<ttFont>
<head>
    <!-- Most of this table will be recalculated by the compiler -->
    <tableVersion value="1.0"/>
    <fontRevision value="1.204"/>
    <checkSumAdjustment value="0x960faec4"/>
    <magicNumber value="0x5f0f3cf5"/>
    <flags value="00000000 00011111"/>
    <unitsPerEm value="1000"/>
    <created value="Sat Nov  5 18:46:46 2016"/>
    <modified value="Sun Sep 24 04:26:32 2017"/>
    <xMin value="-1777"/>
    <yMin value="-500"/>
    <xMax value="1192"/>
    <yMax value="1050"/>
    <macStyle value="00000000 00000000"/>
    <lowestRecPPEM value="8"/>
    <fontDirectionHint value="2"/>
    <indexToLocFormat value="1"/>
    <glyphDataFormat value="0"/>
  </head>
    <TTGlyph name=".notdef" xMin="90" yMin="-350" xMax="510" yMax="1050">
      <contour>
        <pt x="510" y="1050" on="1"/>
        <pt x="510" y="-350" on="1"/>
        <pt x="90" y="-350" on="1"/>
        <pt x="90" y="1050" on="1"/>
      </contour>
      <contour>
        <pt x="456" y="998" on="1"/>
        <pt x="145" y="998" on="1"/>
        <pt x="145" y="-298" on="1"/>
        <pt x="456" y="-298" on="1"/>
      </contour>
      <contour>
        <pt x="307" y="162" on="0"/>
        <pt x="292" y="149" on="0"/>
        <pt x="282" y="149" on="1"/>
        <pt x="272" y="149" on="0"/>
        <pt x="257" y="162" on="0"/>
        <pt x="257" y="173" on="1"/>
        <pt x="257" y="257" on="1"/>
        <pt x="310" y="260" on="0"/>
        <pt x="348" y="293" on="0"/>
        <pt x="348" y="334" on="1"/>
        <pt x="348" y="367" on="0"/>
        <pt x="322" y="403" on="0"/>
        <pt x="287" y="403" on="1"/>
        <pt x="258" y="403" on="0"/>
        <pt x="235" y="392" on="1"/>
        <pt x="228" y="389" on="0"/>
        <pt x="222" y="389" on="1"/>
        <pt x="211" y="389" on="0"/>
        <pt x="198" y="402" on="0"/>
        <pt x="198" y="412" on="1"/>
        <pt x="198" y="431" on="0"/>
        <pt x="257" y="451" on="0"/>
        <pt x="291" y="451" on="1"/>
        <pt x="351" y="451" on="0"/>
        <pt x="402" y="387" on="0"/>
        <pt x="402" y="336" on="1"/>
        <pt x="402" y="283" on="0"/>
        <pt x="357" y="225" on="0"/>
        <pt x="307" y="218" on="1"/>
        <pt x="307" y="173" on="1"/>
      </contour>
      <contour>
        <pt x="247" y="100" on="0"/>
        <pt x="267" y="120" on="0"/>
        <pt x="282" y="120" on="1"/>
        <pt x="297" y="120" on="0"/>
        <pt x="317" y="100" on="0"/>
        <pt x="317" y="85" on="1"/>
        <pt x="317" y="69" on="0"/>
        <pt x="297" y="48" on="0"/>
        <pt x="282" y="48" on="1"/>
        <pt x="267" y="48" on="0"/>
        <pt x="247" y="69" on="0"/>
        <pt x="247" y="85" on="1"/>
      </contour>
    </TTGlyph>
    <TTGlyph name="A" xMin="20" yMin="0" xMax="579" yMax="689">
      <contour>
        <pt x="161" y="176" on="1"/>
        <pt x="106" y="0" on="1"/>
        <pt x="20" y="0" on="1"/>
        <pt x="245" y="689" on="1"/>
        <pt x="355" y="689" on="1"/>
        <pt x="579" y="0" on="1"/>
        <pt x="489" y="0" on="1"/>
        <pt x="434" y="176" on="1"/>
      </contour>
      <contour>
        <pt x="411" y="248" on="1"/>
        <pt x="298" y="615" on="1"/>
        <pt x="184" y="248" on="1"/>
      </contour>
    </TTGlyph>
    <TTGlyph name="AE" xMin="-12" yMin="0" xMax="607" yMax="689">
      <contour>
        <pt x="126" y="175" on="1"/>
        <pt x="77" y="0" on="1"/>
        <pt x="-12" y="0" on="1"/>
        <pt x="190" y="689" on="1"/>
        <pt x="566" y="689" on="1"/>
        <pt x="556" y="618" on="1"/>
        <pt x="320" y="618" on="1"/>
        <pt x="371" y="385" on="1"/>
        <pt x="557" y="385" on="1"/>
        <pt x="557" y="314" on="1"/>
        <pt x="384" y="314" on="1"/>
        <pt x="436" y="71" on="1"/>
        <pt x="607" y="71" on="1"/>
        <pt x="607" y="0" on="1"/>
        <pt x="366" y="0" on="1"/>
        <pt x="330" y="175" on="1"/>
      </contour>
      <contour>
        <pt x="314" y="248" on="1"/>
        <pt x="241" y="620" on="1"/>
        <pt x="148" y="248" on="1"/>
      </contour>
    </TTGlyph>
    <TTGlyph name="AEacute" xMin="-12" yMin="0" xMax="607" yMax="906">
      <component glyphName="AE" x="0" y="0" flags="0x1000"/>
      <component glyphName="acute.case" x="64" y="0" flags="0x1000"/>
    </TTGlyph>
    <TTGlyph name="Aacute" xMin="20" yMin="0" xMax="579" yMax="906">
      <component glyphName="A" x="0" y="0" flags="0x1000"/>
      <component glyphName="acute.case" x="3" y="0" flags="0x1000"/>
    </TTGlyph>
    <TTGlyph name="Abreve" xMin="20" yMin="0" xMax="579" yMax="891">
      <component glyphName="A" x="0" y="0" flags="0x1000"/>
      <component glyphName="breve.case" x="-1" y="0" flags="0x1000"/>
    </TTGlyph>
    <TTGlyph name="Acircumflex" xMin="20" yMin="0" xMax="579" yMax="910">
      <component glyphName="A" x="0" y="0" flags="0x1000"/>
      <component glyphName="circumflex.case" x="0" y="0" flags="0x1000"/>
    </TTGlyph>
    <TTGlyph name="Adieresis" xMin="20" yMin="0" xMax="579" yMax="875">
      <component glyphName="A" x="0" y="0" flags="0x1000"/>
      <component glyphName="dieresis.case" x="1" y="0" flags="0x1000"/>
    </TTGlyph>
    <TTGlyph name="Agrave" xMin="20" yMin="0" xMax="579" yMax="909">
      <component glyphName="A" x="0" y="0" flags="0x1000"/>
      <component glyphName="grave.case" x="1" y="0" flags="0x1000"/>
    </TTGlyph>
    <TTGlyph name="Alpha" xMin="20" yMin="0" xMax="579" yMax="689">
      <contour>
        <pt x="161" y="176" on="1"/>
        <pt x="106" y="0" on="1"/>
        <pt x="20" y="0" on="1"/>
        <pt x="245" y="689" on="1"/>
        <pt x="355" y="689" on="1"/>
        <pt x="579" y="0" on="1"/>
        <pt x="489" y="0" on="1"/>
        <pt x="434" y="176" on="1"/>
      </contour>
      <contour>
        <pt x="411" y="248" on="1"/>
        <pt x="298" y="615" on="1"/>
        <pt x="184" y="248" on="1"/>
      </contour>
    </TTGlyph>
    <TTGlyph name="Alphatonos" xMin="20" yMin="0" xMax="579" yMax="705">
      <component glyphName="A" x="0" y="0" flags="0x1000"/>
      <component glyphName="tonos.case" x="-179" y="0" flags="0x1000"/>
    </TTGlyph>
    <TTGlyph name="Amacron" xMin="20" yMin="0" xMax="579" yMax="859">
      <component glyphName="A" x="0" y="0" flags="0x1000"/>
      <component glyphName="macron.case" x="1" y="0" flags="0x1000"/>
    </TTGlyph>
    <TTGlyph name="Aogonek" xMin="20" yMin="-229" xMax="579" yMax="689">
      <contour>
        <pt x="467" y="-31" on="0"/>
        <pt x="415" y="-85" on="0"/>
        <pt x="415" y="-114" on="1"/>
        <pt x="415" y="-138" on="0"/>
        <pt x="441" y="-162" on="0"/>
        <pt x="471" y="-162" on="1"/>
        <pt x="498" y="-162" on="0"/>
        <pt x="532" y="-155" on="1"/>
        <pt x="524" y="-223" on="1"/>
        <pt x="482" y="-229" on="0"/>
        <pt x="460" y="-229" on="1"/>
        <pt x="404" y="-229" on="0"/>
        <pt x="338" y="-174" on="0"/>
        <pt x="338" y="-131" on="1"/>
        <pt x="338" y="-36" on="0"/>
        <pt x="484" y="17" on="1"/>
        <pt x="434" y="176" on="1"/>
        <pt x="161" y="176" on="1"/>
        <pt x="106" y="0" on="1"/>
        <pt x="20" y="0" on="1"/>
        <pt x="245" y="689" on="1"/>
        <pt x="355" y="689" on="1"/>
        <pt x="579" y="0" on="1"/>
        <pt x="539" y="0" on="1"/>
      </contour>
      <contour>
        <pt x="411" y="248" on="1"/>
        <pt x="298" y="615" on="1"/>
        <pt x="184" y="248" on="1"/>
      </contour>
    </TTGlyph>
    <TTGlyph name="Aring" xMin="20" yMin="0" xMax="579" yMax="943">
      <component glyphName="A" x="0" y="0" flags="0x1000"/>
      <component glyphName="ring.case" x="1" y="0" flags="0x1000"/>
    </TTGlyph>
    <TTGlyph name="Atilde" xMin="20" yMin="0" xMax="579" yMax="891">
      <component glyphName="A" x="0" y="0" flags="0x1000"/>
      <component glyphName="tilde.case" x="1" y="0" flags="0x1000"/>
    </TTGlyph>
    <TTGlyph name="B" xMin="96" yMin="0" xMax="540" yMax="689">
      <contour>
        <pt x="540" y="92" on="0"/>
        <pt x="391" y="0" on="0"/>
        <pt x="282" y="0" on="1"/>
        <pt x="96" y="0" on="1"/>
        <pt x="96" y="689" on="1"/>
        <pt x="266" y="689" on="1"/>
        <pt x="371" y="689" on="0"/>
        <pt x="510" y="608" on="0"/>
        <pt x="510" y="515" on="1"/>
        <pt x="510" y="453" on="0"/>
        <pt x="436" y="378" on="0"/>
        <pt x="381" y="365" on="1"/>
        <pt x="540" y="338" on="0"/>
        <pt x="540" y="196" on="1"/>
      </contour>
      <contour>
        <pt x="421" y="567" on="0"/>
        <pt x="351" y="618" on="0"/>
        <pt x="286" y="618" on="1"/>
        <pt x="183" y="618" on="1"/>
        <pt x="183" y="396" on="1"/>
        <pt x="294" y="396" on="1"/>
        <pt x="421" y="396" on="0"/>
        <pt x="421" y="510" on="1"/>
      </contour>
      <contour>
        <pt x="448" y="266" on="0"/>
        <pt x="369" y="324" on="0"/>
        <pt x="300" y="324" on="1"/>
        <pt x="183" y="324" on="1"/>
        <pt x="183" y="72" on="1"/>
        <pt x="297" y="72" on="1"/>
        <pt x="360" y="72" on="0"/>
        <pt x="448" y="124" on="0"/>
        <pt x="448" y="193" on="1"/>
      </contour>
    </TTGlyph>
    <TTGlyph name="Beta" xMin="96" yMin="0" xMax="540" yMax="689">
      <component glyphName="B" x="0" y="0" flags="0x1000"/>
    </TTGlyph>
    <TTGlyph name="C" xMin="63" yMin="-11" xMax="568" yMax="700">
      <contour>
        <pt x="422" y="700" on="0"/>
        <pt x="514" y="667" on="0"/>
        <pt x="558" y="633" on="1"/>
        <pt x="509" y="576" on="1"/>
        <pt x="448" y="627" on="0"/>
        <pt x="364" y="627" on="1"/>
        <pt x="271" y="627" on="0"/>
        <pt x="154" y="492" on="0"/>
        <pt x="154" y="345" on="1"/>
        <pt x="154" y="199" on="0"/>
        <pt x="268" y="63" on="0"/>
        <pt x="363" y="63" on="1"/>
        <pt x="415" y="63" on="0"/>
        <pt x="489" y="93" on="0"/>
        <pt x="523" y="120" on="1"/>
        <pt x="568" y="64" on="1"/>
        <pt x="491" y="-11" on="0"/>
        <pt x="362" y="-11" on="1"/>
        <pt x="277" y="-11" on="0"/>
        <pt x="141" y="72" on="0"/>
        <pt x="63" y="232" on="0"/>
        <pt x="63" y="345" on="1"/>
        <pt x="63" y="457" on="0"/>
        <pt x="142" y="618" on="0"/>
        <pt x="277" y="700" on="0"/>
        <pt x="358" y="700" on="1"/>
      </contour>
    </TTGlyph>
    <TTGlyph name="Cacute" xMin="63" yMin="-11" xMax="568" yMax="906">
      <component glyphName="C" x="0" y="0" flags="0x1000"/>
      <component glyphName="acute.case" x="68" y="0" flags="0x1000"/>
    </TTGlyph>
    <TTGlyph name="Cacute.loclPLK" xMin="63" yMin="-11" xMax="568" yMax="915">
      <component glyphName="C" x="0" y="0" flags="0x1000"/>
      <component glyphName="acute.case.loclPLK" x="100" y="0" flags="0x1000"/>
    </TTGlyph>
    <TTGlyph name="Ccaron" xMin="63" yMin="-11" xMax="568" yMax="905">
      <component glyphName="C" x="0" y="0" flags="0x1000"/>
      <component glyphName="caron.case" x="65" y="0" flags="0x1000"/>
    </TTGlyph>
    <TTGlyph name="Ccedilla" xMin="63" yMin="-238" xMax="568" yMax="700">
      <contour>
        <pt x="416" y="-61" on="0"/>
        <pt x="463" y="-108" on="0"/>
        <pt x="463" y="-140" on="1"/>
        <pt x="463" y="-187" on="0"/>
        <pt x="392" y="-238" on="0"/>
        <pt x="341" y="-238" on="1"/>
        <pt x="311" y="-238" on="0"/>
        <pt x="256" y="-225" on="0"/>
        <pt x="236" y="-214" on="1"/>
        <pt x="263" y="-166" on="1"/>
        <pt x="293" y="-182" on="0"/>
        <pt x="330" y="-182" on="1"/>
        <pt x="390" y="-182" on="0"/>
        <pt x="390" y="-141" on="1"/>
        <pt x="390" y="-115" on="0"/>
        <pt x="348" y="-97" on="0"/>
        <pt x="304" y="-97" on="1"/>
        <pt x="310" y="-7" on="1"/>
        <pt x="238" y="5" on="0"/>
        <pt x="126" y="93" on="0"/>
        <pt x="63" y="244" on="0"/>
        <pt x="63" y="345" on="1"/>
        <pt x="63" y="457" on="0"/>
        <pt x="142" y="618" on="0"/>
        <pt x="277" y="700" on="0"/>
        <pt x="358" y="700" on="1"/>
        <pt x="422" y="700" on="0"/>
        <pt x="514" y="667" on="0"/>
        <pt x="558" y="633" on="1"/>
        <pt x="509" y="576" on="1"/>
        <pt x="448" y="627" on="0"/>
        <pt x="364" y="627" on="1"/>
        <pt x="271" y="627" on="0"/>
        <pt x="154" y="492" on="0"/>
        <pt x="154" y="345" on="1"/>
        <pt x="154" y="199" on="0"/>
        <pt x="268" y="63" on="0"/>
        <pt x="363" y="63" on="1"/>
        <pt x="415" y="63" on="0"/>
        <pt x="489" y="93" on="0"/>
        <pt x="523" y="120" on="1"/>
        <pt x="568" y="64" on="1"/>
        <pt x="494" y="-8" on="0"/>
        <pt x="370" y="-11" on="1"/>
        <pt x="370" y="-57" on="1"/>
      </contour>
    </TTGlyph>
    <TTGlyph name="Ccircumflex" xMin="63" yMin="-11" xMax="568" yMax="910">
      <component glyphName="C" x="0" y="0" flags="0x1000"/>
      <component glyphName="circumflex.case" x="65" y="0" flags="0x1000"/>
    </TTGlyph>
    <TTGlyph name="Cdotaccent" xMin="63" yMin="-11" xMax="568" yMax="892">
      <component glyphName="C" x="0" y="0" flags="0x1000"/>
      <component glyphName="dotaccent.case" x="66" y="0" flags="0x1000"/>
    </TTGlyph>
    <TTGlyph name="Chi" xMin="31" yMin="0" xMax="569" yMax="689">
      <component glyphName="X" x="0" y="0" flags="0x1000"/>
    </TTGlyph>
    <TTGlyph name="D" xMin="83" yMin="0" xMax="553" yMax="689">
      <contour>
        <pt x="553" y="152" on="0"/>
        <pt x="373" y="0" on="0"/>
        <pt x="241" y="0" on="1"/>
        <pt x="83" y="0" on="1"/>
        <pt x="83" y="689" on="1"/>
        <pt x="230" y="689" on="1"/>
        <pt x="375" y="689" on="0"/>
        <pt x="553" y="543" on="0"/>
        <pt x="553" y="348" on="1"/>
      </contour>
      <contour>
        <pt x="460" y="460" on="0"/>
        <pt x="399" y="579" on="0"/>
        <pt x="309" y="618" on="0"/>
        <pt x="251" y="618" on="1"/>
        <pt x="170" y="618" on="1"/>
        <pt x="170" y="70" on="1"/>
        <pt x="252" y="70" on="1"/>
        <pt x="341" y="70" on="0"/>
        <pt x="460" y="193" on="0"/>
        <pt x="460" y="348" on="1"/>
      </contour>
    </TTGlyph>
    <TTGlyph name="Dcaron" xMin="83" yMin="0" xMax="553" yMax="905">
      <component glyphName="D" x="0" y="0" flags="0x1000"/>
      <component glyphName="caron.case" x="-16" y="0" flags="0x1000"/>
    </TTGlyph>
    <TTGlyph name="Dcroat" xMin="20" yMin="0" xMax="563" yMax="689">
      <component glyphName="Eth" x="0" y="0" flags="0x1000"/>
    </TTGlyph>
    <TTGlyph name="E" xMin="126" yMin="0" xMax="526" yMax="689">
      <contour>
        <pt x="212" y="385" on="1"/>
        <pt x="468" y="385" on="1"/>
        <pt x="468" y="314" on="1"/>
        <pt x="212" y="314" on="1"/>
        <pt x="212" y="70" on="1"/>
        <pt x="526" y="70" on="1"/>
        <pt x="526" y="0" on="1"/>
        <pt x="126" y="0" on="1"/>
        <pt x="126" y="689" on="1"/>
        <pt x="517" y="689" on="1"/>
        <pt x="507" y="617" on="1"/>
        <pt x="212" y="617" on="1"/>
      </contour>
    </TTGlyph>
    <TTGlyph name="Eacute" xMin="126" yMin="0" xMax="526" yMax="906">
      <component glyphName="E" x="0" y="0" flags="0x1000"/>
      <component glyphName="acute.case" x="24" y="0" flags="0x1000"/>
    </TTGlyph>
    <TTGlyph name="Ebreve" xMin="126" yMin="0" xMax="526" yMax="891">
      <component glyphName="E" x="0" y="0" flags="0x1000"/>
      <component glyphName="breve.case" x="20" y="0" flags="0x1000"/>
    </TTGlyph>
    <TTGlyph name="Ecaron" xMin="126" yMin="0" xMax="526" yMax="905">
      <component glyphName="E" x="0" y="0" flags="0x1000"/>
      <component glyphName="caron.case" x="21" y="0" flags="0x1000"/>
    </TTGlyph>
    <TTGlyph name="Ecircumflex" xMin="126" yMin="0" xMax="526" yMax="910">
      <component glyphName="E" x="0" y="0" flags="0x1000"/>
      <component glyphName="circumflex.case" x="21" y="0" flags="0x1000"/>
    </TTGlyph>
    <TTGlyph name="Edieresis" xMin="126" yMin="0" xMax="526" yMax="875">
      <component glyphName="E" x="0" y="0" flags="0x1000"/>
      <component glyphName="dieresis.case" x="22" y="0" flags="0x1000"/>
    </TTGlyph>
    <TTGlyph name="Edotaccent" xMin="126" yMin="0" xMax="526" yMax="892">
      <component glyphName="E" x="0" y="0" flags="0x1000"/>
      <component glyphName="dotaccent.case" x="22" y="0" flags="0x1000"/>
    </TTGlyph>
    <TTGlyph name="Egrave" xMin="126" yMin="0" xMax="526" yMax="909">
      <component glyphName="E" x="0" y="0" flags="0x1000"/>
      <component glyphName="grave.case" x="22" y="0" flags="0x1000"/>
    </TTGlyph>
    <TTGlyph name="Emacron" xMin="126" yMin="0" xMax="526" yMax="859">
      <component glyphName="E" x="0" y="0" flags="0x1000"/>
      <component glyphName="macron.case" x="22" y="0" flags="0x1000"/>
    </TTGlyph>
    <TTGlyph name="Eng" xMin="83" yMin="-212" xMax="517" yMax="689">
      <contour>
        <pt x="517" y="689" on="1"/>
        <pt x="517" y="-62" on="1"/>
        <pt x="517" y="-135" on="0"/>
        <pt x="440" y="-212" on="0"/>
        <pt x="372" y="-212" on="1"/>
        <pt x="308" y="-212" on="0"/>
        <pt x="259" y="-175" on="1"/>
        <pt x="293" y="-118" on="1"/>
        <pt x="312" y="-131" on="0"/>
        <pt x="344" y="-142" on="0"/>
        <pt x="368" y="-142" on="1"/>
        <pt x="430" y="-142" on="0"/>
        <pt x="430" y="-67" on="1"/>
        <pt x="430" y="0" on="1"/>
        <pt x="395" y="0" on="1"/>
        <pt x="152" y="605" on="1"/>
        <pt x="152" y="598" on="0"/>
        <pt x="164" y="438" on="0"/>
        <pt x="164" y="345" on="1"/>
        <pt x="164" y="0" on="1"/>
        <pt x="83" y="0" on="1"/>
        <pt x="83" y="689" on="1"/>
        <pt x="201" y="689" on="1"/>
        <pt x="448" y="81" on="1"/>
        <pt x="446" y="117" on="1"/>
        <pt x="436" y="240" on="0"/>
        <pt x="436" y="344" on="1"/>
        <pt x="436" y="689" on="1"/>
      </contour>
    </TTGlyph>
    <TTGlyph name="Eogonek" xMin="126" yMin="-229" xMax="526" yMax="689">
      <contour>
        <pt x="526" y="70" on="1"/>
        <pt x="526" y="0" on="1"/>
        <pt x="468" y="0" on="1"/>
        <pt x="396" y="-31" on="0"/>
        <pt x="344" y="-85" on="0"/>
        <pt x="344" y="-114" on="1"/>
        <pt x="344" y="-138" on="0"/>
        <pt x="370" y="-162" on="0"/>
        <pt x="400" y="-162" on="1"/>
        <pt x="427" y="-162" on="0"/>
        <pt x="461" y="-155" on="1"/>
        <pt x="453" y="-223" on="1"/>
        <pt x="411" y="-229" on="0"/>
        <pt x="389" y="-229" on="1"/>
        <pt x="333" y="-229" on="0"/>
        <pt x="267" y="-174" on="0"/>
        <pt x="267" y="-131" on="1"/>
        <pt x="267" y="-51" on="0"/>
        <pt x="372" y="0" on="1"/>
        <pt x="126" y="0" on="1"/>
        <pt x="126" y="689" on="1"/>
        <pt x="517" y="689" on="1"/>
        <pt x="507" y="617" on="1"/>
        <pt x="212" y="617" on="1"/>
        <pt x="212" y="385" on="1"/>
        <pt x="468" y="385" on="1"/>
        <pt x="468" y="314" on="1"/>
        <pt x="212" y="314" on="1"/>
        <pt x="212" y="70" on="1"/>
      </contour>
    </TTGlyph>
    <TTGlyph name="Epsilon" xMin="126" yMin="0" xMax="526" yMax="689">
      <contour>
        <pt x="212" y="385" on="1"/>
        <pt x="468" y="385" on="1"/>
        <pt x="468" y="314" on="1"/>
        <pt x="212" y="314" on="1"/>
        <pt x="212" y="70" on="1"/>
        <pt x="526" y="70" on="1"/>
        <pt x="526" y="0" on="1"/>
        <pt x="126" y="0" on="1"/>
        <pt x="126" y="689" on="1"/>
        <pt x="517" y="689" on="1"/>
        <pt x="507" y="617" on="1"/>
        <pt x="212" y="617" on="1"/>
      </contour>
    </TTGlyph>
    <TTGlyph name="Epsilontonos" xMin="-29" yMin="0" xMax="526" yMax="705">
      <component glyphName="E" x="0" y="0" flags="0x1000"/>
      <component glyphName="tonos.case" x="-261" y="0" flags="0x1000"/>
    </TTGlyph>
    <TTGlyph name="Eta" xMin="83" yMin="0" xMax="517" yMax="689">
      <contour>
        <pt x="430" y="327" on="1"/>
        <pt x="170" y="327" on="1"/>
        <pt x="170" y="0" on="1"/>
        <pt x="83" y="0" on="1"/>
        <pt x="83" y="689" on="1"/>
        <pt x="170" y="689" on="1"/>
        <pt x="170" y="398" on="1"/>
        <pt x="430" y="398" on="1"/>
        <pt x="430" y="689" on="1"/>
        <pt x="517" y="689" on="1"/>
        <pt x="517" y="0" on="1"/>
        <pt x="430" y="0" on="1"/>
      </contour>
    </TTGlyph>
    <TTGlyph name="Etatonos" xMin="-72" yMin="0" xMax="517" yMax="705">
      <component glyphName="H" x="0" y="0" flags="0x1000"/>
      <component glyphName="tonos.case" x="-304" y="0" flags="0x1000"/>
    </TTGlyph>
    <TTGlyph name="Eth" xMin="20" yMin="0" xMax="563" yMax="689">
      <contour>
        <pt x="385" y="689" on="0"/>
        <pt x="563" y="543" on="0"/>
        <pt x="563" y="348" on="1"/>
        <pt x="563" y="152" on="0"/>
        <pt x="383" y="0" on="0"/>
        <pt x="251" y="0" on="1"/>
        <pt x="93" y="0" on="1"/>
        <pt x="93" y="320" on="1"/>
        <pt x="20" y="320" on="1"/>
        <pt x="20" y="386" on="1"/>
        <pt x="93" y="386" on="1"/>
        <pt x="93" y="689" on="1"/>
        <pt x="240" y="689" on="1"/>
      </contour>
      <contour>
        <pt x="351" y="70" on="0"/>
        <pt x="470" y="193" on="0"/>
        <pt x="470" y="348" on="1"/>
        <pt x="470" y="460" on="0"/>
        <pt x="409" y="579" on="0"/>
        <pt x="319" y="618" on="0"/>
        <pt x="261" y="618" on="1"/>
        <pt x="180" y="618" on="1"/>
        <pt x="180" y="386" on="1"/>
        <pt x="338" y="386" on="1"/>
        <pt x="338" y="320" on="1"/>
        <pt x="180" y="320" on="1"/>
        <pt x="180" y="70" on="1"/>
        <pt x="262" y="70" on="1"/>
      </contour>
    </TTGlyph>
    <TTGlyph name="Euro" xMin="35" yMin="-11" xMax="541" yMax="700">
      <contour>
        <pt x="431" y="700" on="0"/>
        <pt x="506" y="678" on="0"/>
        <pt x="541" y="655" on="1"/>
        <pt x="499" y="594" on="1"/>
        <pt x="444" y="628" on="0"/>
        <pt x="385" y="628" on="1"/>
        <pt x="317" y="628" on="0"/>
        <pt x="233" y="544" on="0"/>
        <pt x="219" y="453" on="1"/>
        <pt x="464" y="453" on="1"/>
        <pt x="450" y="394" on="1"/>
        <pt x="212" y="394" on="1"/>
        <pt x="212" y="302" on="1"/>
        <pt x="430" y="302" on="1"/>
        <pt x="416" y="242" on="1"/>
        <pt x="216" y="242" on="1"/>
        <pt x="228" y="148" on="0"/>
        <pt x="307" y="61" on="0"/>
        <pt x="380" y="61" on="1"/>
        <pt x="423" y="61" on="0"/>
        <pt x="496" y="89" on="0"/>
        <pt x="521" y="111" on="1"/>
        <pt x="521" y="24" on="1"/>
        <pt x="458" y="-11" on="0"/>
        <pt x="377" y="-11" on="1"/>
        <pt x="273" y="-11" on="0"/>
        <pt x="146" y="119" on="0"/>
        <pt x="128" y="242" on="1"/>
        <pt x="35" y="242" on="1"/>
        <pt x="50" y="302" on="1"/>
        <pt x="122" y="302" on="1"/>
        <pt x="123" y="394" on="1"/>
        <pt x="35" y="394" on="1"/>
        <pt x="50" y="453" on="1"/>
        <pt x="130" y="453" on="1"/>
        <pt x="152" y="570" on="0"/>
        <pt x="287" y="700" on="0"/>
        <pt x="381" y="700" on="1"/>
      </contour>
    </TTGlyph>
    <TTGlyph name="Euro.tosf" xMin="35" yMin="-11" xMax="541" yMax="700">
      <component glyphName="Euro" x="0" y="0" flags="0x1000"/>
    </TTGlyph>
    <TTGlyph name="F" xMin="138" yMin="0" xMax="544" yMax="689">
      <contour>
        <pt x="225" y="376" on="1"/>
        <pt x="495" y="376" on="1"/>
        <pt x="495" y="306" on="1"/>
        <pt x="225" y="306" on="1"/>
        <pt x="225" y="0" on="1"/>
        <pt x="138" y="0" on="1"/>
        <pt x="138" y="689" on="1"/>
        <pt x="544" y="689" on="1"/>
        <pt x="534" y="617" on="1"/>
        <pt x="225" y="617" on="1"/>
      </contour>
    </TTGlyph>
    <TTGlyph name="G" xMin="45" yMin="-11" xMax="539" yMax="700">
      <contour>
        <pt x="188" y="-11" on="0"/>
        <pt x="45" y="170" on="0"/>
        <pt x="45" y="345" on="1"/>
        <pt x="45" y="459" on="0"/>
        <pt x="125" y="619" on="0"/>
        <pt x="257" y="700" on="0"/>
        <pt x="334" y="700" on="1"/>
        <pt x="399" y="700" on="0"/>
        <pt x="487" y="664" on="0"/>
        <pt x="530" y="624" on="1"/>
        <pt x="478" y="570" on="1"/>
        <pt x="446" y="599" on="0"/>
        <pt x="377" y="627" on="0"/>
        <pt x="334" y="627" on="1"/>
        <pt x="250" y="627" on="0"/>
        <pt x="138" y="493" on="0"/>
        <pt x="138" y="345" on="1"/>
        <pt x="138" y="198" on="0"/>
        <pt x="229" y="62" on="0"/>
        <pt x="321" y="62" on="1"/>
        <pt x="394" y="62" on="0"/>
        <pt x="452" y="95" on="1"/>
        <pt x="452" y="304" on="1"/>
        <pt x="317" y="304" on="1"/>
        <pt x="307" y="377" on="1"/>
        <pt x="539" y="377" on="1"/>
        <pt x="539" y="49" on="1"/>
        <pt x="487" y="20" on="0"/>
        <pt x="382" y="-11" on="0"/>
        <pt x="314" y="-11" on="1"/>
      </contour>
    </TTGlyph>
    <TTGlyph name="Gamma" xMin="136" yMin="0" xMax="544" yMax="689">
      <component glyphName="uni0413" x="0" y="0" flags="0x1000"/>
    </TTGlyph>
    <TTGlyph name="Gbreve" xMin="45" yMin="-11" xMax="539" yMax="891">
      <component glyphName="G" x="0" y="0" flags="0x1000"/>
      <component glyphName="breve.case" x="29" y="0" flags="0x1000"/>
    </TTGlyph>
    <TTGlyph name="Gcircumflex" xMin="45" yMin="-11" xMax="539" yMax="910">
      <component glyphName="G" x="0" y="0" flags="0x1000"/>
      <component glyphName="circumflex.case" x="30" y="0" flags="0x1000"/>
    </TTGlyph>
    <TTGlyph name="Gcommaaccent" xMin="45" yMin="-286" xMax="539" yMax="700">
      <component glyphName="G" x="0" y="0" flags="0x1000"/>
      <component glyphName="uni0326" x="630" y="0" flags="0x1000"/>
    </TTGlyph>
    <TTGlyph name="Gdotaccent" xMin="45" yMin="-11" xMax="539" yMax="892">
      <component glyphName="G" x="0" y="0" flags="0x1000"/>
      <component glyphName="dotaccent.case" x="31" y="0" flags="0x1000"/>
    </TTGlyph>
    <TTGlyph name="H" xMin="83" yMin="0" xMax="517" yMax="689">
      <contour>
        <pt x="430" y="327" on="1"/>
        <pt x="170" y="327" on="1"/>
        <pt x="170" y="0" on="1"/>
        <pt x="83" y="0" on="1"/>
        <pt x="83" y="689" on="1"/>
        <pt x="170" y="689" on="1"/>
        <pt x="170" y="398" on="1"/>
        <pt x="430" y="398" on="1"/>
        <pt x="430" y="689" on="1"/>
        <pt x="517" y="689" on="1"/>
        <pt x="517" y="0" on="1"/>
        <pt x="430" y="0" on="1"/>
      </contour>
    </TTGlyph>
    <TTGlyph name="Hbar" xMin="2" yMin="0" xMax="598" yMax="689">
      <contour>
        <pt x="598" y="509" on="1"/>
        <pt x="517" y="509" on="1"/>
        <pt x="517" y="0" on="1"/>
        <pt x="431" y="0" on="1"/>
        <pt x="431" y="326" on="1"/>
        <pt x="169" y="326" on="1"/>
        <pt x="169" y="0" on="1"/>
        <pt x="83" y="0" on="1"/>
        <pt x="83" y="509" on="1"/>
        <pt x="2" y="509" on="1"/>
        <pt x="2" y="575" on="1"/>
        <pt x="83" y="575" on="1"/>
        <pt x="83" y="689" on="1"/>
        <pt x="169" y="689" on="1"/>
        <pt x="169" y="575" on="1"/>
        <pt x="431" y="575" on="1"/>
        <pt x="431" y="689" on="1"/>
        <pt x="517" y="689" on="1"/>
        <pt x="517" y="575" on="1"/>
        <pt x="598" y="575" on="1"/>
      </contour>
      <contour>
        <pt x="431" y="509" on="1"/>
        <pt x="169" y="509" on="1"/>
        <pt x="169" y="398" on="1"/>
        <pt x="431" y="398" on="1"/>
      </contour>
    </TTGlyph>
    <TTGlyph name="Hcircumflex" xMin="83" yMin="0" xMax="517" yMax="910">
      <component glyphName="H" x="0" y="0" flags="0x1000"/>
      <component glyphName="circumflex.case" x="0" y="0" flags="0x1000"/>
    </TTGlyph>
    <TTGlyph name="I" xMin="103" yMin="0" xMax="497" yMax="689">
      <contour>
        <pt x="497" y="619" on="1"/>
        <pt x="344" y="619" on="1"/>
        <pt x="344" y="69" on="1"/>
        <pt x="497" y="69" on="1"/>
        <pt x="497" y="0" on="1"/>
        <pt x="103" y="0" on="1"/>
        <pt x="103" y="69" on="1"/>
        <pt x="256" y="69" on="1"/>
        <pt x="256" y="619" on="1"/>
        <pt x="103" y="619" on="1"/>
        <pt x="103" y="689" on="1"/>
        <pt x="497" y="689" on="1"/>
      </contour>
    </TTGlyph>
    <TTGlyph name="IJ" xMin="11" yMin="-136" xMax="532" yMax="689">
      <contour>
        <pt x="293" y="-61" on="0"/>
        <pt x="403" y="6" on="0"/>
        <pt x="445" y="113" on="0"/>
        <pt x="445" y="193" on="1"/>
        <pt x="445" y="617" on="1"/>
        <pt x="201" y="617" on="1"/>
        <pt x="201" y="72" on="1"/>
        <pt x="281" y="72" on="1"/>
        <pt x="281" y="0" on="1"/>
        <pt x="11" y="0" on="1"/>
        <pt x="11" y="72" on="1"/>
        <pt x="111" y="72" on="1"/>
        <pt x="111" y="617" on="1"/>
        <pt x="11" y="617" on="1"/>
        <pt x="11" y="689" on="1"/>
        <pt x="532" y="689" on="1"/>
        <pt x="532" y="188" on="1"/>
        <pt x="532" y="53" on="0"/>
        <pt x="388" y="-119" on="0"/>
        <pt x="204" y="-136" on="1"/>
        <pt x="194" y="-71" on="1"/>
      </contour>
    </TTGlyph>
    <TTGlyph name="Iacute" xMin="103" yMin="0" xMax="497" yMax="906">
      <component glyphName="I" x="0" y="0" flags="0x1000"/>
      <component glyphName="acute.case" x="3" y="0" flags="0x1000"/>
    </TTGlyph>
    <TTGlyph name="Ibreve" xMin="103" yMin="0" xMax="497" yMax="891">
      <component glyphName="I" x="0" y="0" flags="0x1000"/>
      <component glyphName="breve.case" x="-1" y="0" flags="0x1000"/>
    </TTGlyph>
    <TTGlyph name="Icircumflex" xMin="103" yMin="0" xMax="497" yMax="910">
      <component glyphName="I" x="0" y="0" flags="0x1000"/>
      <component glyphName="circumflex.case" x="0" y="0" flags="0x1000"/>
    </TTGlyph>
    <TTGlyph name="Idieresis" xMin="103" yMin="0" xMax="497" yMax="875">
      <component glyphName="I" x="0" y="0" flags="0x1000"/>
      <component glyphName="dieresis.case" x="1" y="0" flags="0x1000"/>
    </TTGlyph>
    <TTGlyph name="Idotaccent" xMin="103" yMin="0" xMax="497" yMax="892">
      <component glyphName="I" x="0" y="0" flags="0x1000"/>
      <component glyphName="dotaccent.case" x="1" y="0" flags="0x1000"/>
    </TTGlyph>
    <TTGlyph name="Igrave" xMin="103" yMin="0" xMax="497" yMax="909">
      <component glyphName="I" x="0" y="0" flags="0x1000"/>
      <component glyphName="grave.case" x="1" y="0" flags="0x1000"/>
    </TTGlyph>
    <TTGlyph name="Imacron" xMin="103" yMin="0" xMax="497" yMax="859">
      <component glyphName="I" x="0" y="0" flags="0x1000"/>
      <component glyphName="macron.case" x="1" y="0" flags="0x1000"/>
    </TTGlyph>
    <TTGlyph name="Iogonek" xMin="103" yMin="-229" xMax="497" yMax="689">
      <contour>
        <pt x="344" y="619" on="1"/>
        <pt x="344" y="69" on="1"/>
        <pt x="497" y="69" on="1"/>
        <pt x="497" y="0" on="1"/>
        <pt x="344" y="0" on="1"/>
        <pt x="272" y="-31" on="0"/>
        <pt x="220" y="-85" on="0"/>
        <pt x="220" y="-114" on="1"/>
        <pt x="220" y="-138" on="0"/>
        <pt x="246" y="-162" on="0"/>
        <pt x="276" y="-162" on="1"/>
        <pt x="303" y="-162" on="0"/>
        <pt x="337" y="-155" on="1"/>
        <pt x="329" y="-223" on="1"/>
        <pt x="287" y="-229" on="0"/>
        <pt x="265" y="-229" on="1"/>
        <pt x="209" y="-229" on="0"/>
        <pt x="143" y="-174" on="0"/>
        <pt x="143" y="-131" on="1"/>
        <pt x="143" y="-51" on="0"/>
        <pt x="248" y="0" on="1"/>
        <pt x="103" y="0" on="1"/>
        <pt x="103" y="69" on="1"/>
        <pt x="256" y="69" on="1"/>
        <pt x="256" y="619" on="1"/>
        <pt x="103" y="619" on="1"/>
        <pt x="103" y="689" on="1"/>
        <pt x="497" y="689" on="1"/>
        <pt x="497" y="619" on="1"/>
      </contour>
    </TTGlyph>
    <TTGlyph name="Iota" xMin="103" yMin="0" xMax="497" yMax="689">
      <contour>
        <pt x="497" y="619" on="1"/>
        <pt x="344" y="619" on="1"/>
        <pt x="344" y="69" on="1"/>
        <pt x="497" y="69" on="1"/>
        <pt x="497" y="0" on="1"/>
        <pt x="103" y="0" on="1"/>
        <pt x="103" y="69" on="1"/>
        <pt x="256" y="69" on="1"/>
        <pt x="256" y="619" on="1"/>
        <pt x="103" y="619" on="1"/>
        <pt x="103" y="689" on="1"/>
        <pt x="497" y="689" on="1"/>
      </contour>
    </TTGlyph>
    <TTGlyph name="Iotadieresis" xMin="103" yMin="0" xMax="497" yMax="875">
      <component glyphName="I" x="0" y="0" flags="0x1000"/>
      <component glyphName="dieresis.case" x="1" y="0" flags="0x1000"/>
    </TTGlyph>
    <TTGlyph name="Iotatonos" xMin="-52" yMin="0" xMax="497" yMax="705">
      <component glyphName="I" x="0" y="0" flags="0x1000"/>
      <component glyphName="tonos.case" x="-284" y="0" flags="0x1000"/>
    </TTGlyph>
    <TTGlyph name="Itilde" xMin="103" yMin="0" xMax="497" yMax="891">
      <component glyphName="I" x="0" y="0" flags="0x1000"/>
      <component glyphName="tilde.case" x="1" y="0" flags="0x1000"/>
    </TTGlyph>
    <TTGlyph name="J" xMin="73" yMin="-12" xMax="497" yMax="689">
      <contour>
        <pt x="497" y="229" on="1"/>
        <pt x="497" y="128" on="0"/>
        <pt x="386" y="-12" on="0"/>
        <pt x="261" y="-12" on="1"/>
        <pt x="210" y="-12" on="0"/>
        <pt x="113" y="20" on="0"/>
        <pt x="73" y="51" on="1"/>
        <pt x="111" y="108" on="1"/>
        <pt x="186" y="61" on="0"/>
        <pt x="260" y="61" on="1"/>
        <pt x="332" y="61" on="0"/>
        <pt x="410" y="152" on="0"/>
        <pt x="410" y="233" on="1"/>
        <pt x="410" y="618" on="1"/>
        <pt x="206" y="618" on="1"/>
        <pt x="206" y="689" on="1"/>
        <pt x="497" y="689" on="1"/>
      </contour>
    </TTGlyph>
    <TTGlyph name="Jcircumflex" xMin="73" yMin="-12" xMax="513" yMax="910">
      <component glyphName="J" x="0" y="0" flags="0x1000"/>
      <component glyphName="circumflex.case" x="50" y="0" flags="0x1000"/>
    </TTGlyph>
    <TTGlyph name="K" xMin="105" yMin="0" xMax="587" yMax="689">
      <contour>
        <pt x="105" y="0" on="1"/>
        <pt x="105" y="689" on="1"/>
        <pt x="192" y="689" on="1"/>
        <pt x="192" y="0" on="1"/>
      </contour>
      <contour>
        <pt x="467" y="689" on="1"/>
        <pt x="568" y="689" on="1"/>
        <pt x="299" y="373" on="1"/>
        <pt x="587" y="0" on="1"/>
        <pt x="478" y="0" on="1"/>
        <pt x="197" y="368" on="1"/>
      </contour>
    </TTGlyph>
    <TTGlyph name="Kappa" xMin="105" yMin="0" xMax="587" yMax="689">
      <component glyphName="K" x="0" y="0" flags="0x1000"/>
    </TTGlyph>
    <TTGlyph name="Kcommaaccent" xMin="105" yMin="-286" xMax="587" yMax="689">
      <component glyphName="K" x="0" y="0" flags="0x1000"/>
      <component glyphName="uni0326.case" x="622" y="0" flags="0x1000"/>
    </TTGlyph>
    <TTGlyph name="L" xMin="136" yMin="0" xMax="537" yMax="689">
      <contour>
        <pt x="136" y="689" on="1"/>
        <pt x="222" y="689" on="1"/>
        <pt x="222" y="77" on="1"/>
        <pt x="537" y="77" on="1"/>
        <pt x="526" y="0" on="1"/>
        <pt x="136" y="0" on="1"/>
      </contour>
    </TTGlyph>
    <TTGlyph name="Lacute" xMin="64" yMin="0" xMax="537" yMax="906">
      <component glyphName="L" x="0" y="0" flags="0x1000"/>
      <component glyphName="acute.case" x="-118" y="0" flags="0x1000"/>
    </TTGlyph>
    <TTGlyph name="Lambda" xMin="24" yMin="0" xMax="574" yMax="689">
      <contour>
        <pt x="574" y="0" on="1"/>
        <pt x="484" y="0" on="1"/>
        <pt x="298" y="608" on="1"/>
        <pt x="111" y="0" on="1"/>
        <pt x="24" y="0" on="1"/>
        <pt x="245" y="689" on="1"/>
        <pt x="355" y="689" on="1"/>
      </contour>
    </TTGlyph>
    <TTGlyph name="Lcaron" xMin="136" yMin="0" xMax="537" yMax="698">
      <component glyphName="L" x="0" y="0" flags="0x1000"/>
      <component glyphName="caron.alt" x="29" y="0" flags="0x1000"/>
    </TTGlyph>
    <TTGlyph name="Lcommaaccent" xMin="136" yMin="-286" xMax="537" yMax="689">
      <component glyphName="L" x="0" y="0" flags="0x1000"/>
      <component glyphName="uni0326.case" x="632" y="0" flags="0x1000"/>
    </TTGlyph>
    <TTGlyph name="Ldot" xMin="136" yMin="0" xMax="537" yMax="689">
      <component glyphName="L" x="0" y="0" flags="0x1000"/>
      <component glyphName="dotaccent" x="173" y="-337" flags="0x1004"/>
    </TTGlyph>
    <TTGlyph name="Lslash" xMin="40" yMin="0" xMax="535" yMax="689">
      <contour>
        <pt x="535" y="77" on="1"/>
        <pt x="524" y="0" on="1"/>
        <pt x="134" y="0" on="1"/>
        <pt x="134" y="267" on="1"/>
        <pt x="77" y="232" on="1"/>
        <pt x="40" y="289" on="1"/>
        <pt x="134" y="346" on="1"/>
        <pt x="134" y="689" on="1"/>
        <pt x="220" y="689" on="1"/>
        <pt x="220" y="399" on="1"/>
        <pt x="385" y="502" on="1"/>
        <pt x="422" y="446" on="1"/>
        <pt x="220" y="321" on="1"/>
        <pt x="220" y="77" on="1"/>
      </contour>
    </TTGlyph>
    <TTGlyph name="M" xMin="30" yMin="0" xMax="570" yMax="689">
      <contour>
        <pt x="570" y="0" on="1"/>
        <pt x="486" y="0" on="1"/>
        <pt x="465" y="360" on="1"/>
        <pt x="459" y="455" on="0"/>
        <pt x="459" y="609" on="1"/>
        <pt x="343" y="124" on="1"/>
        <pt x="256" y="124" on="1"/>
        <pt x="132" y="609" on="1"/>
        <pt x="134" y="573" on="0"/>
        <pt x="134" y="513" on="1"/>
        <pt x="134" y="421" on="0"/>
        <pt x="130" y="360" on="1"/>
        <pt x="112" y="0" on="1"/>
        <pt x="30" y="0" on="1"/>
        <pt x="69" y="689" on="1"/>
        <pt x="190" y="689" on="1"/>
        <pt x="302" y="217" on="1"/>
        <pt x="409" y="689" on="1"/>
        <pt x="531" y="689" on="1"/>
      </contour>
    </TTGlyph>
    <TTGlyph name="Mu" xMin="30" yMin="0" xMax="570" yMax="689">
      <component glyphName="M" x="0" y="0" flags="0x1000"/>
    </TTGlyph>
    <TTGlyph name="N" xMin="83" yMin="0" xMax="517" yMax="689">
      <contour>
        <pt x="152" y="605" on="1"/>
        <pt x="152" y="598" on="0"/>
        <pt x="164" y="438" on="0"/>
        <pt x="164" y="345" on="1"/>
        <pt x="164" y="0" on="1"/>
        <pt x="83" y="0" on="1"/>
        <pt x="83" y="689" on="1"/>
        <pt x="201" y="689" on="1"/>
        <pt x="448" y="81" on="1"/>
        <pt x="446" y="117" on="1"/>
        <pt x="436" y="240" on="0"/>
        <pt x="436" y="344" on="1"/>
        <pt x="436" y="689" on="1"/>
        <pt x="517" y="689" on="1"/>
        <pt x="517" y="0" on="1"/>
        <pt x="395" y="0" on="1"/>
      </contour>
    </TTGlyph>
    <TTGlyph name="Nacute" xMin="83" yMin="0" xMax="517" yMax="906">
      <component glyphName="N" x="0" y="0" flags="0x1000"/>
      <component glyphName="acute.case" x="2" y="0" flags="0x1000"/>
    </TTGlyph>
    <TTGlyph name="Nacute.loclPLK" xMin="83" yMin="0" xMax="517" yMax="915">
      <component glyphName="N" x="0" y="0" flags="0x1000"/>
      <component glyphName="acute.case.loclPLK" x="34" y="0" flags="0x1000"/>
    </TTGlyph>
    <TTGlyph name="Ncaron" xMin="83" yMin="0" xMax="517" yMax="905">
      <component glyphName="N" x="0" y="0" flags="0x1000"/>
      <component glyphName="caron.case" x="-1" y="0" flags="0x1000"/>
    </TTGlyph>
    <TTGlyph name="Ncommaaccent" xMin="83" yMin="-286" xMax="517" yMax="689">
      <component glyphName="N" x="0" y="0" flags="0x1000"/>
      <component glyphName="uni0326.case" x="600" y="0" flags="0x1000"/>
    </TTGlyph>
    <TTGlyph name="Ntilde" xMin="83" yMin="0" xMax="517" yMax="891">
      <component glyphName="N" x="0" y="0" flags="0x1000"/>
      <component glyphName="tilde.case" x="0" y="0" flags="0x1000"/>
    </TTGlyph>
    <TTGlyph name="Nu" xMin="83" yMin="0" xMax="517" yMax="689">
      <component glyphName="N" x="0" y="0" flags="0x1000"/>
    </TTGlyph>
    <TTGlyph name="O" xMin="47" yMin="-11" xMax="553" yMax="700">
      <contour>
        <pt x="553" y="183" on="0"/>
        <pt x="422" y="-11" on="0"/>
        <pt x="300" y="-11" on="1"/>
        <pt x="177" y="-11" on="0"/>
        <pt x="47" y="179" on="0"/>
        <pt x="47" y="343" on="1"/>
        <pt x="47" y="448" on="0"/>
        <pt x="105" y="610" on="0"/>
        <pt x="219" y="700" on="0"/>
        <pt x="300" y="700" on="1"/>
        <pt x="422" y="700" on="0"/>
        <pt x="553" y="507" on="0"/>
        <pt x="553" y="344" on="1"/>
      </contour>
      <contour>
        <pt x="463" y="485" on="0"/>
        <pt x="385" y="627" on="0"/>
        <pt x="300" y="627" on="1"/>
        <pt x="215" y="627" on="0"/>
        <pt x="137" y="484" on="0"/>
        <pt x="137" y="343" on="1"/>
        <pt x="137" y="203" on="0"/>
        <pt x="216" y="62" on="0"/>
        <pt x="300" y="62" on="1"/>
        <pt x="385" y="62" on="0"/>
        <pt x="463" y="203" on="0"/>
        <pt x="463" y="344" on="1"/>
      </contour>
    </TTGlyph>
    <TTGlyph name="OE" xMin="-1" yMin="-11" xMax="617" yMax="700">
      <contour>
        <pt x="245" y="700" on="0"/>
        <pt x="283" y="689" on="1"/>
        <pt x="608" y="689" on="1"/>
        <pt x="598" y="618" on="1"/>
        <pt x="354" y="618" on="1"/>
        <pt x="412" y="549" on="0"/>
        <pt x="419" y="385" on="1"/>
        <pt x="573" y="385" on="1"/>
        <pt x="573" y="314" on="1"/>
        <pt x="419" y="314" on="1"/>
        <pt x="415" y="145" on="0"/>
        <pt x="350" y="71" on="1"/>
        <pt x="617" y="71" on="1"/>
        <pt x="617" y="0" on="1"/>
        <pt x="280" y="0" on="1"/>
        <pt x="245" y="-11" on="0"/>
        <pt x="212" y="-11" on="1"/>
        <pt x="-1" y="-11" on="0"/>
        <pt x="-1" y="343" on="1"/>
        <pt x="-1" y="517" on="0"/>
        <pt x="106" y="700" on="0"/>
        <pt x="212" y="700" on="1"/>
      </contour>
      <contour>
        <pt x="149" y="628" on="0"/>
        <pt x="92" y="494" on="0"/>
        <pt x="92" y="343" on="1"/>
        <pt x="92" y="193" on="0"/>
        <pt x="151" y="59" on="0"/>
        <pt x="211" y="59" on="1"/>
        <pt x="275" y="59" on="0"/>
        <pt x="333" y="192" on="0"/>
        <pt x="333" y="344" on="1"/>
        <pt x="333" y="496" on="0"/>
        <pt x="276" y="628" on="0"/>
        <pt x="211" y="628" on="1"/>
      </contour>
    </TTGlyph>
    <TTGlyph name="Oacute" xMin="47" yMin="-11" xMax="553" yMax="906">
      <component glyphName="O" x="0" y="0" flags="0x1000"/>
      <component glyphName="acute.case" x="3" y="0" flags="0x1000"/>
    </TTGlyph>
    <TTGlyph name="Oacute.loclPLK" xMin="47" yMin="-11" xMax="553" yMax="915">
      <component glyphName="O" x="0" y="0" flags="0x1000"/>
      <component glyphName="acute.case.loclPLK" x="35" y="0" flags="0x1000"/>
    </TTGlyph>
    <TTGlyph name="Obreve" xMin="47" yMin="-11" xMax="553" yMax="891">
      <component glyphName="O" x="0" y="0" flags="0x1000"/>
      <component glyphName="breve.case" x="-1" y="0" flags="0x1000"/>
    </TTGlyph>
    <TTGlyph name="Ocircumflex" xMin="47" yMin="-11" xMax="553" yMax="910">
      <component glyphName="O" x="0" y="0" flags="0x1000"/>
      <component glyphName="circumflex.case" x="0" y="0" flags="0x1000"/>
    </TTGlyph>
    <TTGlyph name="Odieresis" xMin="47" yMin="-11" xMax="553" yMax="875">
      <component glyphName="O" x="0" y="0" flags="0x1000"/>
      <component glyphName="dieresis.case" x="1" y="0" flags="0x1000"/>
    </TTGlyph>
    <TTGlyph name="Ograve" xMin="47" yMin="-11" xMax="553" yMax="909">
      <component glyphName="O" x="0" y="0" flags="0x1000"/>
      <component glyphName="grave.case" x="1" y="0" flags="0x1000"/>
    </TTGlyph>
    <TTGlyph name="Ohungarumlaut" xMin="47" yMin="-11" xMax="553" yMax="955">
      <component glyphName="O" x="0" y="0" flags="0x1000"/>
      <component glyphName="hungarumlaut.case" x="46" y="0" flags="0x1000"/>
    </TTGlyph>
    <TTGlyph name="Omacron" xMin="47" yMin="-11" xMax="553" yMax="859">
      <component glyphName="O" x="0" y="0" flags="0x1000"/>
      <component glyphName="macron.case" x="1" y="0" flags="0x1000"/>
    </TTGlyph>
    <TTGlyph name="Omegatonos" xMin="-40" yMin="0" xMax="553" yMax="705">
      <component glyphName="uni03A9" x="0" y="0" flags="0x1000"/>
      <component glyphName="tonos.case" x="-272" y="0" flags="0x1000"/>
    </TTGlyph>
    <TTGlyph name="Omicron" xMin="47" yMin="-11" xMax="553" yMax="700">
      <contour>
        <pt x="553" y="183" on="0"/>
        <pt x="422" y="-11" on="0"/>
        <pt x="300" y="-11" on="1"/>
        <pt x="177" y="-11" on="0"/>
        <pt x="47" y="179" on="0"/>
        <pt x="47" y="343" on="1"/>
        <pt x="47" y="448" on="0"/>
        <pt x="105" y="610" on="0"/>
        <pt x="219" y="700" on="0"/>
        <pt x="300" y="700" on="1"/>
        <pt x="422" y="700" on="0"/>
        <pt x="553" y="507" on="0"/>
        <pt x="553" y="344" on="1"/>
      </contour>
      <contour>
        <pt x="463" y="485" on="0"/>
        <pt x="385" y="627" on="0"/>
        <pt x="300" y="627" on="1"/>
        <pt x="215" y="627" on="0"/>
        <pt x="137" y="484" on="0"/>
        <pt x="137" y="343" on="1"/>
        <pt x="137" y="203" on="0"/>
        <pt x="216" y="62" on="0"/>
        <pt x="300" y="62" on="1"/>
        <pt x="385" y="62" on="0"/>
        <pt x="463" y="203" on="0"/>
        <pt x="463" y="344" on="1"/>
      </contour>
    </TTGlyph>
    <TTGlyph name="Omicrontonos" xMin="-40" yMin="-11" xMax="553" yMax="705">
      <component glyphName="O" x="0" y="0" flags="0x1000"/>
      <component glyphName="tonos.case" x="-272" y="0" flags="0x1000"/>
    </TTGlyph>
    <TTGlyph name="Oslash" xMin="47" yMin="-110" xMax="553" yMax="803">
      <contour>
        <pt x="492" y="617" on="0"/>
        <pt x="553" y="454" on="0"/>
        <pt x="553" y="344" on="1"/>
        <pt x="553" y="183" on="0"/>
        <pt x="422" y="-11" on="0"/>
        <pt x="300" y="-11" on="1"/>
        <pt x="272" y="-11" on="0"/>
        <pt x="237" y="-4" on="1"/>
        <pt x="204" y="-110" on="1"/>
        <pt x="129" y="-91" on="1"/>
        <pt x="167" y="29" on="1"/>
        <pt x="108" y="71" on="0"/>
        <pt x="47" y="233" on="0"/>
        <pt x="47" y="343" on="1"/>
        <pt x="47" y="448" on="0"/>
        <pt x="105" y="610" on="0"/>
        <pt x="219" y="700" on="0"/>
        <pt x="300" y="700" on="1"/>
        <pt x="333" y="700" on="0"/>
        <pt x="365" y="692" on="1"/>
        <pt x="397" y="803" on="1"/>
        <pt x="472" y="783" on="1"/>
        <pt x="434" y="659" on="1"/>
      </contour>
      <contour>
        <pt x="138" y="248" on="0"/>
        <pt x="167" y="129" on="0"/>
        <pt x="198" y="98" on="1"/>
        <pt x="348" y="621" on="1"/>
        <pt x="327" y="627" on="0"/>
        <pt x="300" y="627" on="1"/>
        <pt x="215" y="627" on="0"/>
        <pt x="138" y="484" on="0"/>
        <pt x="138" y="343" on="1"/>
      </contour>
      <contour>
        <pt x="385" y="62" on="0"/>
        <pt x="462" y="203" on="0"/>
        <pt x="462" y="344" on="1"/>
        <pt x="462" y="441" on="0"/>
        <pt x="433" y="560" on="0"/>
        <pt x="402" y="591" on="1"/>
        <pt x="252" y="68" on="1"/>
        <pt x="273" y="62" on="0"/>
        <pt x="300" y="62" on="1"/>
      </contour>
    </TTGlyph>
    <TTGlyph name="Oslashacute" xMin="47" yMin="-110" xMax="553" yMax="906">
      <component glyphName="Oslash" x="0" y="0" flags="0x1000"/>
      <component glyphName="acute.case" x="3" y="0" flags="0x1000"/>
    </TTGlyph>
    <TTGlyph name="Otilde" xMin="47" yMin="-11" xMax="553" yMax="891">
      <component glyphName="O" x="0" y="0" flags="0x1000"/>
      <component glyphName="tilde.case" x="1" y="0" flags="0x1000"/>
    </TTGlyph>
    <TTGlyph name="P" xMin="116" yMin="0" xMax="557" yMax="689">
      <contour>
        <pt x="557" y="362" on="0"/>
        <pt x="415" y="256" on="0"/>
        <pt x="291" y="256" on="1"/>
        <pt x="202" y="256" on="1"/>
        <pt x="202" y="0" on="1"/>
        <pt x="116" y="0" on="1"/>
        <pt x="116" y="689" on="1"/>
        <pt x="291" y="689" on="1"/>
        <pt x="418" y="689" on="0"/>
        <pt x="557" y="583" on="0"/>
        <pt x="557" y="477" on="1"/>
      </contour>
      <contour>
        <pt x="464" y="551" on="0"/>
        <pt x="377" y="620" on="0"/>
        <pt x="302" y="620" on="1"/>
        <pt x="202" y="620" on="1"/>
        <pt x="202" y="325" on="1"/>
        <pt x="299" y="325" on="1"/>
        <pt x="377" y="325" on="0"/>
        <pt x="464" y="393" on="0"/>
        <pt x="464" y="476" on="1"/>
      </contour>
    </TTGlyph>
    <TTGlyph name="Phi" xMin="11" yMin="0" xMax="589" yMax="689">
      <contour>
        <pt x="342" y="610" on="1"/>
        <pt x="468" y="603" on="0"/>
        <pt x="589" y="472" on="0"/>
        <pt x="589" y="347" on="1"/>
        <pt x="589" y="219" on="0"/>
        <pt x="463" y="85" on="0"/>
        <pt x="342" y="81" on="1"/>
        <pt x="342" y="0" on="1"/>
        <pt x="258" y="0" on="1"/>
        <pt x="258" y="81" on="1"/>
        <pt x="138" y="85" on="0"/>
        <pt x="11" y="219" on="0"/>
        <pt x="11" y="347" on="1"/>
        <pt x="11" y="471" on="0"/>
        <pt x="133" y="603" on="0"/>
        <pt x="258" y="610" on="1"/>
        <pt x="258" y="689" on="1"/>
        <pt x="342" y="689" on="1"/>
      </contour>
      <contour>
        <pt x="175" y="543" on="0"/>
        <pt x="98" y="454" on="0"/>
        <pt x="98" y="347" on="1"/>
        <pt x="98" y="244" on="0"/>
        <pt x="174" y="150" on="0"/>
        <pt x="259" y="145" on="1"/>
        <pt x="259" y="545" on="1"/>
      </contour>
      <contour>
        <pt x="341" y="145" on="1"/>
        <pt x="426" y="150" on="0"/>
        <pt x="502" y="245" on="0"/>
        <pt x="502" y="347" on="1"/>
        <pt x="502" y="455" on="0"/>
        <pt x="425" y="544" on="0"/>
        <pt x="341" y="545" on="1"/>
      </contour>
    </TTGlyph>
    <TTGlyph name="Pi" xMin="83" yMin="0" xMax="517" yMax="689">
      <component glyphName="uni041F" x="0" y="0" flags="0x1000"/>
    </TTGlyph>
    <TTGlyph name="Psi" xMin="13" yMin="0" xMax="587" yMax="689">
      <contour>
        <pt x="256" y="192" on="1"/>
        <pt x="134" y="201" on="0"/>
        <pt x="13" y="329" on="0"/>
        <pt x="13" y="430" on="1"/>
        <pt x="13" y="689" on="1"/>
        <pt x="102" y="689" on="1"/>
        <pt x="102" y="435" on="1"/>
        <pt x="102" y="356" on="0"/>
        <pt x="172" y="273" on="0"/>
        <pt x="257" y="266" on="1"/>
        <pt x="257" y="689" on="1"/>
        <pt x="344" y="689" on="1"/>
        <pt x="344" y="267" on="1"/>
        <pt x="427" y="274" on="0"/>
        <pt x="498" y="357" on="0"/>
        <pt x="498" y="435" on="1"/>
        <pt x="498" y="689" on="1"/>
        <pt x="587" y="689" on="1"/>
        <pt x="587" y="430" on="1"/>
        <pt x="587" y="330" on="0"/>
        <pt x="465" y="203" on="0"/>
        <pt x="345" y="193" on="1"/>
        <pt x="345" y="0" on="1"/>
        <pt x="256" y="0" on="1"/>
      </contour>
    </TTGlyph>
    <TTGlyph name="Q" xMin="45" yMin="-173" xMax="593" yMax="700">
      <contour>
        <pt x="554" y="228" on="0"/>
        <pt x="487" y="69" on="0"/>
        <pt x="411" y="27" on="1"/>
        <pt x="485" y="12" on="0"/>
        <pt x="568" y="-62" on="0"/>
        <pt x="593" y="-137" on="1"/>
        <pt x="501" y="-173" on="1"/>
        <pt x="467" y="-88" on="0"/>
        <pt x="375" y="-10" on="0"/>
        <pt x="290" y="-10" on="1"/>
        <pt x="212" y="-10" on="0"/>
        <pt x="102" y="77" on="0"/>
        <pt x="45" y="236" on="0"/>
        <pt x="45" y="343" on="1"/>
        <pt x="45" y="448" on="0"/>
        <pt x="103" y="610" on="0"/>
        <pt x="218" y="700" on="0"/>
        <pt x="300" y="700" on="1"/>
        <pt x="422" y="700" on="0"/>
        <pt x="554" y="507" on="0"/>
        <pt x="554" y="344" on="1"/>
      </contour>
      <contour>
        <pt x="463" y="485" on="0"/>
        <pt x="385" y="627" on="0"/>
        <pt x="300" y="627" on="1"/>
        <pt x="215" y="627" on="0"/>
        <pt x="136" y="484" on="0"/>
        <pt x="136" y="343" on="1"/>
        <pt x="136" y="203" on="0"/>
        <pt x="216" y="62" on="0"/>
        <pt x="300" y="62" on="1"/>
        <pt x="385" y="62" on="0"/>
        <pt x="463" y="203" on="0"/>
        <pt x="463" y="344" on="1"/>
      </contour>
    </TTGlyph>
    <TTGlyph name="R" xMin="102" yMin="0" xMax="574" yMax="689">
      <contour>
        <pt x="537" y="421" on="0"/>
        <pt x="445" y="324" on="0"/>
        <pt x="369" y="305" on="1"/>
        <pt x="574" y="0" on="1"/>
        <pt x="470" y="0" on="1"/>
        <pt x="281" y="295" on="1"/>
        <pt x="188" y="295" on="1"/>
        <pt x="188" y="0" on="1"/>
        <pt x="102" y="0" on="1"/>
        <pt x="102" y="689" on="1"/>
        <pt x="278" y="689" on="1"/>
        <pt x="406" y="689" on="0"/>
        <pt x="537" y="591" on="0"/>
        <pt x="537" y="495" on="1"/>
      </contour>
      <contour>
        <pt x="445" y="561" on="0"/>
        <pt x="369" y="619" on="0"/>
        <pt x="288" y="619" on="1"/>
        <pt x="188" y="619" on="1"/>
        <pt x="188" y="363" on="1"/>
        <pt x="289" y="363" on="1"/>
        <pt x="366" y="363" on="0"/>
        <pt x="445" y="426" on="0"/>
        <pt x="445" y="495" on="1"/>
      </contour>
    </TTGlyph>
    <TTGlyph name="Racute" xMin="102" yMin="0" xMax="574" yMax="906">
      <component glyphName="R" x="0" y="0" flags="0x1000"/>
      <component glyphName="acute.case" x="3" y="0" flags="0x1000"/>
    </TTGlyph>
    <TTGlyph name="Rcaron" xMin="102" yMin="0" xMax="574" yMax="905">
      <component glyphName="R" x="0" y="0" flags="0x1000"/>
      <component glyphName="caron.case" x="0" y="0" flags="0x1000"/>
    </TTGlyph>
    <TTGlyph name="Rcommaaccent" xMin="102" yMin="-286" xMax="574" yMax="689">
      <component glyphName="R" x="0" y="0" flags="0x1000"/>
      <component glyphName="uni0326.case" x="599" y="0" flags="0x1000"/>
    </TTGlyph>
    <TTGlyph name="Rho" xMin="116" yMin="0" xMax="557" yMax="689">
      <contour>
        <pt x="557" y="362" on="0"/>
        <pt x="415" y="256" on="0"/>
        <pt x="291" y="256" on="1"/>
        <pt x="202" y="256" on="1"/>
        <pt x="202" y="0" on="1"/>
        <pt x="116" y="0" on="1"/>
        <pt x="116" y="689" on="1"/>
        <pt x="291" y="689" on="1"/>
        <pt x="418" y="689" on="0"/>
        <pt x="557" y="583" on="0"/>
        <pt x="557" y="477" on="1"/>
      </contour>
      <contour>
        <pt x="464" y="551" on="0"/>
        <pt x="377" y="620" on="0"/>
        <pt x="302" y="620" on="1"/>
        <pt x="202" y="620" on="1"/>
        <pt x="202" y="325" on="1"/>
        <pt x="299" y="325" on="1"/>
        <pt x="377" y="325" on="0"/>
        <pt x="464" y="393" on="0"/>
        <pt x="464" y="476" on="1"/>
      </contour>
    </TTGlyph>
    <TTGlyph name="S" xMin="43" yMin="-11" xMax="537" yMax="700">
      <contour>
        <pt x="537" y="131" on="0"/>
        <pt x="477" y="40" on="0"/>
        <pt x="363" y="-11" on="0"/>
        <pt x="285" y="-11" on="1"/>
        <pt x="210" y="-11" on="0"/>
        <pt x="87" y="34" on="0"/>
        <pt x="43" y="76" on="1"/>
        <pt x="95" y="135" on="1"/>
        <pt x="133" y="99" on="0"/>
        <pt x="226" y="61" on="0"/>
        <pt x="286" y="61" on="1"/>
        <pt x="354" y="61" on="0"/>
        <pt x="446" y="127" on="0"/>
        <pt x="446" y="189" on="1"/>
        <pt x="446" y="224" on="0"/>
        <pt x="420" y="270" on="0"/>
        <pt x="355" y="306" on="0"/>
        <pt x="296" y="323" on="1"/>
        <pt x="184" y="356" on="0"/>
        <pt x="74" y="445" on="0"/>
        <pt x="74" y="522" on="1"/>
        <pt x="74" y="573" on="0"/>
        <pt x="130" y="655" on="0"/>
        <pt x="232" y="700" on="0"/>
        <pt x="297" y="700" on="1"/>
        <pt x="365" y="700" on="0"/>
        <pt x="472" y="660" on="0"/>
        <pt x="517" y="621" on="1"/>
        <pt x="465" y="565" on="1"/>
        <pt x="394" y="627" on="0"/>
        <pt x="300" y="627" on="1"/>
        <pt x="240" y="627" on="0"/>
        <pt x="162" y="575" on="0"/>
        <pt x="162" y="525" on="1"/>
        <pt x="162" y="495" on="0"/>
        <pt x="194" y="453" on="0"/>
        <pt x="268" y="417" on="0"/>
        <pt x="335" y="398" on="1"/>
        <pt x="432" y="370" on="0"/>
        <pt x="537" y="280" on="0"/>
        <pt x="537" y="191" on="1"/>
      </contour>
    </TTGlyph>
    <TTGlyph name="Sacute" xMin="43" yMin="-11" xMax="537" yMax="906">
      <component glyphName="S" x="0" y="0" flags="0x1000"/>
      <component glyphName="acute.case" x="9" y="0" flags="0x1000"/>
    </TTGlyph>
    <TTGlyph name="Sacute.loclPLK" xMin="43" yMin="-11" xMax="537" yMax="915">
      <component glyphName="S" x="0" y="0" flags="0x1000"/>
      <component glyphName="acute.case.loclPLK" x="41" y="0" flags="0x1000"/>
    </TTGlyph>
    <TTGlyph name="Scaron" xMin="43" yMin="-11" xMax="537" yMax="905">
      <component glyphName="S" x="0" y="0" flags="0x1000"/>
      <component glyphName="caron.case" x="6" y="0" flags="0x1000"/>
    </TTGlyph>
    <TTGlyph name="Scedilla" xMin="43" yMin="-238" xMax="537" yMax="700">
      <contour>
        <pt x="537" y="107" on="0"/>
        <pt x="421" y="-2" on="0"/>
        <pt x="317" y="-10" on="1"/>
        <pt x="317" y="-57" on="1"/>
        <pt x="363" y="-61" on="0"/>
        <pt x="410" y="-108" on="0"/>
        <pt x="410" y="-140" on="1"/>
        <pt x="410" y="-187" on="0"/>
        <pt x="339" y="-238" on="0"/>
        <pt x="288" y="-238" on="1"/>
        <pt x="258" y="-238" on="0"/>
        <pt x="203" y="-225" on="0"/>
        <pt x="183" y="-214" on="1"/>
        <pt x="210" y="-166" on="1"/>
        <pt x="240" y="-182" on="0"/>
        <pt x="277" y="-182" on="1"/>
        <pt x="337" y="-182" on="0"/>
        <pt x="337" y="-141" on="1"/>
        <pt x="337" y="-115" on="0"/>
        <pt x="295" y="-97" on="0"/>
        <pt x="251" y="-97" on="1"/>
        <pt x="257" y="-10" on="1"/>
        <pt x="125" y="-2" on="0"/>
        <pt x="43" y="76" on="1"/>
        <pt x="95" y="135" on="1"/>
        <pt x="133" y="99" on="0"/>
        <pt x="226" y="61" on="0"/>
        <pt x="286" y="61" on="1"/>
        <pt x="354" y="61" on="0"/>
        <pt x="446" y="127" on="0"/>
        <pt x="446" y="189" on="1"/>
        <pt x="446" y="224" on="0"/>
        <pt x="420" y="270" on="0"/>
        <pt x="355" y="306" on="0"/>
        <pt x="296" y="323" on="1"/>
        <pt x="184" y="356" on="0"/>
        <pt x="74" y="445" on="0"/>
        <pt x="74" y="522" on="1"/>
        <pt x="74" y="573" on="0"/>
        <pt x="130" y="655" on="0"/>
        <pt x="232" y="700" on="0"/>
        <pt x="297" y="700" on="1"/>
        <pt x="365" y="700" on="0"/>
        <pt x="472" y="660" on="0"/>
        <pt x="517" y="621" on="1"/>
        <pt x="465" y="565" on="1"/>
        <pt x="394" y="627" on="0"/>
        <pt x="300" y="627" on="1"/>
        <pt x="240" y="627" on="0"/>
        <pt x="162" y="575" on="0"/>
        <pt x="162" y="525" on="1"/>
        <pt x="162" y="495" on="0"/>
        <pt x="194" y="453" on="0"/>
        <pt x="268" y="417" on="0"/>
        <pt x="335" y="398" on="1"/>
        <pt x="432" y="370" on="0"/>
        <pt x="537" y="280" on="0"/>
        <pt x="537" y="191" on="1"/>
      </contour>
    </TTGlyph>
    <TTGlyph name="Scircumflex" xMin="43" yMin="-11" xMax="537" yMax="910">
      <component glyphName="S" x="0" y="0" flags="0x1000"/>
      <component glyphName="circumflex.case" x="6" y="0" flags="0x1000"/>
    </TTGlyph>
    <TTGlyph name="Scommaaccent" xMin="43" yMin="-286" xMax="537" yMax="700">
      <component glyphName="S" x="0" y="0" flags="0x1000"/>
      <component glyphName="uni0326.case" x="597" y="0" flags="0x1000"/>
    </TTGlyph>
    <TTGlyph name="Sigma" xMin="73" yMin="0" xMax="527" yMax="689">
      <contour>
        <pt x="175" y="73" on="1"/>
        <pt x="527" y="73" on="1"/>
        <pt x="527" y="0" on="1"/>
        <pt x="73" y="0" on="1"/>
        <pt x="73" y="73" on="1"/>
        <pt x="328" y="344" on="1"/>
        <pt x="73" y="614" on="1"/>
        <pt x="73" y="689" on="1"/>
        <pt x="527" y="689" on="1"/>
        <pt x="527" y="615" on="1"/>
        <pt x="173" y="615" on="1"/>
        <pt x="404" y="377" on="1"/>
        <pt x="404" y="315" on="1"/>
      </contour>
    </TTGlyph>
    <TTGlyph name="T" xMin="40" yMin="0" xMax="559" yMax="689">
      <contour>
        <pt x="342" y="0" on="1"/>
        <pt x="255" y="0" on="1"/>
        <pt x="255" y="614" on="1"/>
        <pt x="40" y="614" on="1"/>
        <pt x="40" y="689" on="1"/>
        <pt x="559" y="689" on="1"/>
        <pt x="550" y="614" on="1"/>
        <pt x="342" y="614" on="1"/>
      </contour>
    </TTGlyph>
    <TTGlyph name="Tau" xMin="40" yMin="0" xMax="559" yMax="689">
      <component glyphName="T" x="0" y="0" flags="0x1000"/>
    </TTGlyph>
    <TTGlyph name="Tbar" xMin="40" yMin="0" xMax="559" yMax="689">
      <contour>
        <pt x="342" y="614" on="1"/>
        <pt x="342" y="417" on="1"/>
        <pt x="473" y="417" on="1"/>
        <pt x="473" y="350" on="1"/>
        <pt x="342" y="350" on="1"/>
        <pt x="342" y="0" on="1"/>
        <pt x="255" y="0" on="1"/>
        <pt x="255" y="350" on="1"/>
        <pt x="125" y="350" on="1"/>
        <pt x="125" y="417" on="1"/>
        <pt x="255" y="417" on="1"/>
        <pt x="255" y="614" on="1"/>
        <pt x="40" y="614" on="1"/>
        <pt x="40" y="689" on="1"/>
        <pt x="559" y="689" on="1"/>
        <pt x="550" y="614" on="1"/>
      </contour>
    </TTGlyph>
    <TTGlyph name="Tcaron" xMin="40" yMin="0" xMax="559" yMax="905">
      <component glyphName="T" x="0" y="0" flags="0x1000"/>
      <component glyphName="caron.case" x="-1" y="0" flags="0x1000"/>
    </TTGlyph>
    <TTGlyph name="Theta" xMin="47" yMin="-11" xMax="553" yMax="700">
      <contour>
        <pt x="553" y="183" on="0"/>
        <pt x="422" y="-11" on="0"/>
        <pt x="300" y="-11" on="1"/>
        <pt x="177" y="-11" on="0"/>
        <pt x="47" y="179" on="0"/>
        <pt x="47" y="343" on="1"/>
        <pt x="47" y="448" on="0"/>
        <pt x="105" y="610" on="0"/>
        <pt x="219" y="700" on="0"/>
        <pt x="300" y="700" on="1"/>
        <pt x="422" y="700" on="0"/>
        <pt x="553" y="507" on="0"/>
        <pt x="553" y="344" on="1"/>
      </contour>
      <contour>
        <pt x="462" y="485" on="0"/>
        <pt x="385" y="627" on="0"/>
        <pt x="300" y="627" on="1"/>
        <pt x="215" y="627" on="0"/>
        <pt x="138" y="484" on="0"/>
        <pt x="138" y="343" on="1"/>
        <pt x="138" y="203" on="0"/>
        <pt x="217" y="62" on="0"/>
        <pt x="300" y="62" on="1"/>
        <pt x="385" y="62" on="0"/>
        <pt x="462" y="203" on="0"/>
        <pt x="462" y="344" on="1"/>
      </contour>
      <contour>
        <pt x="197" y="316" on="1"/>
        <pt x="197" y="388" on="1"/>
        <pt x="402" y="388" on="1"/>
        <pt x="402" y="316" on="1"/>
      </contour>
    </TTGlyph>
    <TTGlyph name="Thorn" xMin="107" yMin="0" xMax="556" yMax="689">
      <contour>
        <pt x="194" y="572" on="1"/>
        <pt x="292" y="572" on="1"/>
        <pt x="419" y="572" on="0"/>
        <pt x="556" y="464" on="0"/>
        <pt x="556" y="355" on="1"/>
        <pt x="556" y="239" on="0"/>
        <pt x="414" y="128" on="0"/>
        <pt x="292" y="128" on="1"/>
        <pt x="194" y="128" on="1"/>
        <pt x="194" y="0" on="1"/>
        <pt x="107" y="0" on="1"/>
        <pt x="107" y="689" on="1"/>
        <pt x="194" y="689" on="1"/>
      </contour>
      <contour>
        <pt x="194" y="503" on="1"/>
        <pt x="194" y="198" on="1"/>
        <pt x="303" y="198" on="1"/>
        <pt x="381" y="198" on="0"/>
        <pt x="464" y="267" on="0"/>
        <pt x="464" y="353" on="1"/>
        <pt x="464" y="430" on="0"/>
        <pt x="379" y="503" on="0"/>
        <pt x="303" y="503" on="1"/>
      </contour>
    </TTGlyph>
    <TTGlyph name="U" xMin="72" yMin="-11" xMax="528" yMax="689">
      <contour>
        <pt x="528" y="223" on="1"/>
        <pt x="528" y="154" on="0"/>
        <pt x="471" y="47" on="0"/>
        <pt x="368" y="-11" on="0"/>
        <pt x="299" y="-11" on="1"/>
        <pt x="229" y="-11" on="0"/>
        <pt x="127" y="48" on="0"/>
        <pt x="72" y="154" on="0"/>
        <pt x="72" y="223" on="1"/>
        <pt x="72" y="689" on="1"/>
        <pt x="159" y="689" on="1"/>
        <pt x="159" y="220" on="1"/>
        <pt x="159" y="142" on="0"/>
        <pt x="231" y="64" on="0"/>
        <pt x="299" y="64" on="1"/>
        <pt x="367" y="64" on="0"/>
        <pt x="440" y="142" on="0"/>
        <pt x="440" y="220" on="1"/>
        <pt x="440" y="689" on="1"/>
        <pt x="528" y="689" on="1"/>
      </contour>
    </TTGlyph>
    <TTGlyph name="Uacute" xMin="72" yMin="-11" xMax="528" yMax="906">
      <component glyphName="U" x="0" y="0" flags="0x1000"/>
      <component glyphName="acute.case" x="3" y="0" flags="0x1000"/>
    </TTGlyph>
    <TTGlyph name="Ubreve" xMin="72" yMin="-11" xMax="528" yMax="891">
      <component glyphName="U" x="0" y="0" flags="0x1000"/>
      <component glyphName="breve.case" x="-1" y="0" flags="0x1000"/>
    </TTGlyph>
    <TTGlyph name="Ucircumflex" xMin="72" yMin="-11" xMax="528" yMax="910">
      <component glyphName="U" x="0" y="0" flags="0x1000"/>
      <component glyphName="circumflex.case" x="0" y="0" flags="0x1000"/>
    </TTGlyph>
    <TTGlyph name="Udieresis" xMin="72" yMin="-11" xMax="528" yMax="875">
      <component glyphName="U" x="0" y="0" flags="0x1000"/>
      <component glyphName="dieresis.case" x="1" y="0" flags="0x1000"/>
    </TTGlyph>
    <TTGlyph name="Ugrave" xMin="72" yMin="-11" xMax="528" yMax="909">
      <component glyphName="U" x="0" y="0" flags="0x1000"/>
      <component glyphName="grave.case" x="1" y="0" flags="0x1000"/>
    </TTGlyph>
    <TTGlyph name="Uhungarumlaut" xMin="72" yMin="-11" xMax="528" yMax="955">
      <component glyphName="U" x="0" y="0" flags="0x1000"/>
      <component glyphName="hungarumlaut.case" x="46" y="0" flags="0x1000"/>
    </TTGlyph>
    <TTGlyph name="Umacron" xMin="72" yMin="-11" xMax="528" yMax="859">
      <component glyphName="U" x="0" y="0" flags="0x1000"/>
      <component glyphName="macron.case" x="1" y="0" flags="0x1000"/>
    </TTGlyph>
    <TTGlyph name="Uogonek" xMin="72" yMin="-229" xMax="528" yMax="689">
      <contour>
        <pt x="528" y="689" on="1"/>
        <pt x="528" y="223" on="1"/>
        <pt x="528" y="139" on="0"/>
        <pt x="447" y="21" on="0"/>
        <pt x="375" y="-1" on="1"/>
        <pt x="304" y="-32" on="0"/>
        <pt x="252" y="-85" on="0"/>
        <pt x="252" y="-114" on="1"/>
        <pt x="252" y="-138" on="0"/>
        <pt x="278" y="-162" on="0"/>
        <pt x="308" y="-162" on="1"/>
        <pt x="335" y="-162" on="0"/>
        <pt x="369" y="-155" on="1"/>
        <pt x="361" y="-223" on="1"/>
        <pt x="319" y="-229" on="0"/>
        <pt x="297" y="-229" on="1"/>
        <pt x="241" y="-229" on="0"/>
        <pt x="175" y="-174" on="0"/>
        <pt x="175" y="-131" on="1"/>
        <pt x="175" y="-57" on="0"/>
        <pt x="263" y="-9" on="1"/>
        <pt x="174" y="2" on="0"/>
        <pt x="72" y="127" on="0"/>
        <pt x="72" y="223" on="1"/>
        <pt x="72" y="689" on="1"/>
        <pt x="159" y="689" on="1"/>
        <pt x="159" y="220" on="1"/>
        <pt x="159" y="142" on="0"/>
        <pt x="231" y="64" on="0"/>
        <pt x="299" y="64" on="1"/>
        <pt x="367" y="64" on="0"/>
        <pt x="440" y="142" on="0"/>
        <pt x="440" y="220" on="1"/>
        <pt x="440" y="689" on="1"/>
      </contour>
    </TTGlyph>
    <TTGlyph name="Upsilon" xMin="23" yMin="0" xMax="577" yMax="689">
      <contour>
        <pt x="344" y="0" on="1"/>
        <pt x="256" y="0" on="1"/>
        <pt x="256" y="265" on="1"/>
        <pt x="23" y="689" on="1"/>
        <pt x="119" y="689" on="1"/>
        <pt x="302" y="343" on="1"/>
        <pt x="487" y="689" on="1"/>
        <pt x="577" y="689" on="1"/>
        <pt x="344" y="266" on="1"/>
      </contour>
    </TTGlyph>
    <TTGlyph name="Upsilondieresis" xMin="23" yMin="0" xMax="577" yMax="875">
      <component glyphName="Y" x="0" y="0" flags="0x1000"/>
      <component glyphName="dieresis.case" x="4" y="0" flags="0x1000"/>
    </TTGlyph>
    <TTGlyph name="Upsilontonos" xMin="-122" yMin="0" xMax="577" yMax="705">
      <component glyphName="Y" x="0" y="0" flags="0x1000"/>
      <component glyphName="tonos.case" x="-354" y="0" flags="0x1000"/>
    </TTGlyph>
    <TTGlyph name="Uring" xMin="72" yMin="-11" xMax="528" yMax="943">
      <component glyphName="U" x="0" y="0" flags="0x1000"/>
      <component glyphName="ring.case" x="1" y="0" flags="0x1000"/>
    </TTGlyph>
    <TTGlyph name="Utilde" xMin="72" yMin="-11" xMax="528" yMax="891">
      <component glyphName="U" x="0" y="0" flags="0x1000"/>
      <component glyphName="tilde.case" x="1" y="0" flags="0x1000"/>
    </TTGlyph>
    <TTGlyph name="V" xMin="25" yMin="0" xMax="575" yMax="689">
      <contour>
        <pt x="488" y="689" on="1"/>
        <pt x="575" y="689" on="1"/>
        <pt x="345" y="0" on="1"/>
        <pt x="255" y="0" on="1"/>
        <pt x="25" y="689" on="1"/>
        <pt x="118" y="689" on="1"/>
        <pt x="302" y="99" on="1"/>
      </contour>
    </TTGlyph>
    <TTGlyph name="W" xMin="5" yMin="0" xMax="595" yMax="689">
      <contour>
        <pt x="491" y="0" on="1"/>
        <pt x="377" y="0" on="1"/>
        <pt x="298" y="520" on="1"/>
        <pt x="218" y="0" on="1"/>
        <pt x="101" y="0" on="1"/>
        <pt x="5" y="689" on="1"/>
        <pt x="92" y="689" on="1"/>
        <pt x="165" y="95" on="1"/>
        <pt x="248" y="609" on="1"/>
        <pt x="354" y="609" on="1"/>
        <pt x="433" y="95" on="1"/>
        <pt x="515" y="689" on="1"/>
        <pt x="595" y="689" on="1"/>
      </contour>
    </TTGlyph>
    <TTGlyph name="Wacute" xMin="5" yMin="0" xMax="595" yMax="906">
      <component glyphName="W" x="0" y="0" flags="0x1000"/>
      <component glyphName="acute.case" x="3" y="0" flags="0x1000"/>
    </TTGlyph>
    <TTGlyph name="Wcircumflex" xMin="5" yMin="0" xMax="595" yMax="910">
      <component glyphName="W" x="0" y="0" flags="0x1000"/>
      <component glyphName="circumflex.case" x="0" y="0" flags="0x1000"/>
    </TTGlyph>
    <TTGlyph name="Wdieresis" xMin="5" yMin="0" xMax="595" yMax="875">
      <component glyphName="W" x="0" y="0" flags="0x1000"/>
      <component glyphName="dieresis.case" x="1" y="0" flags="0x1000"/>
    </TTGlyph>
    <TTGlyph name="Wgrave" xMin="5" yMin="0" xMax="595" yMax="909">
      <component glyphName="W" x="0" y="0" flags="0x1000"/>
      <component glyphName="grave.case" x="1" y="0" flags="0x1000"/>
    </TTGlyph>
    <TTGlyph name="X" xMin="31" yMin="0" xMax="569" yMax="689">
      <contour>
        <pt x="149" y="689" on="1"/>
        <pt x="300" y="424" on="1"/>
        <pt x="452" y="689" on="1"/>
        <pt x="545" y="689" on="1"/>
        <pt x="350" y="372" on="1"/>
        <pt x="569" y="0" on="1"/>
        <pt x="469" y="0" on="1"/>
        <pt x="298" y="311" on="1"/>
        <pt x="124" y="0" on="1"/>
        <pt x="31" y="0" on="1"/>
        <pt x="247" y="367" on="1"/>
        <pt x="49" y="689" on="1"/>
      </contour>
    </TTGlyph>
    <TTGlyph name="Xi" xMin="77" yMin="0" xMax="523" yMax="689">
      <contour>
        <pt x="501" y="609" on="1"/>
        <pt x="77" y="609" on="1"/>
        <pt x="77" y="689" on="1"/>
        <pt x="513" y="689" on="1"/>
      </contour>
      <contour>
        <pt x="464" y="309" on="1"/>
        <pt x="127" y="309" on="1"/>
        <pt x="127" y="389" on="1"/>
        <pt x="464" y="389" on="1"/>
      </contour>
      <contour>
        <pt x="523" y="0" on="1"/>
        <pt x="77" y="0" on="1"/>
        <pt x="77" y="81" on="1"/>
        <pt x="523" y="81" on="1"/>
      </contour>
    </TTGlyph>
    <TTGlyph name="Y" xMin="23" yMin="0" xMax="577" yMax="689">
      <contour>
        <pt x="344" y="0" on="1"/>
        <pt x="256" y="0" on="1"/>
        <pt x="256" y="265" on="1"/>
        <pt x="23" y="689" on="1"/>
        <pt x="119" y="689" on="1"/>
        <pt x="302" y="343" on="1"/>
        <pt x="487" y="689" on="1"/>
        <pt x="577" y="689" on="1"/>
        <pt x="344" y="266" on="1"/>
      </contour>
    </TTGlyph>
    <TTGlyph name="Yacute" xMin="23" yMin="0" xMax="577" yMax="906">
      <component glyphName="Y" x="0" y="0" flags="0x1000"/>
      <component glyphName="acute.case" x="6" y="0" flags="0x1000"/>
    </TTGlyph>
    <TTGlyph name="Ycircumflex" xMin="23" yMin="0" xMax="577" yMax="910">
      <component glyphName="Y" x="0" y="0" flags="0x1000"/>
      <component glyphName="circumflex.case" x="3" y="0" flags="0x1000"/>
    </TTGlyph>
    <TTGlyph name="Ydieresis" xMin="23" yMin="0" xMax="577" yMax="875">
      <component glyphName="Y" x="0" y="0" flags="0x1000"/>
      <component glyphName="dieresis.case" x="4" y="0" flags="0x1000"/>
    </TTGlyph>
    <TTGlyph name="Ygrave" xMin="23" yMin="0" xMax="577" yMax="909">
      <component glyphName="Y" x="0" y="0" flags="0x1000"/>
      <component glyphName="grave.case" x="4" y="0" flags="0x1000"/>
    </TTGlyph>
    <TTGlyph name="Z" xMin="72" yMin="0" xMax="528" yMax="689">
      <contour>
        <pt x="527" y="75" on="1"/>
        <pt x="517" y="0" on="1"/>
        <pt x="72" y="0" on="1"/>
        <pt x="72" y="70" on="1"/>
        <pt x="435" y="614" on="1"/>
        <pt x="108" y="614" on="1"/>
        <pt x="108" y="689" on="1"/>
        <pt x="528" y="689" on="1"/>
        <pt x="528" y="617" on="1"/>
        <pt x="167" y="75" on="1"/>
      </contour>
    </TTGlyph>
    <TTGlyph name="Zacute" xMin="72" yMin="0" xMax="528" yMax="906">
      <component glyphName="Z" x="0" y="0" flags="0x1000"/>
      <component glyphName="acute.case" x="22" y="0" flags="0x1000"/>
    </TTGlyph>
    <TTGlyph name="Zacute.loclPLK" xMin="72" yMin="0" xMax="528" yMax="915">
      <component glyphName="Z" x="0" y="0" flags="0x1000"/>
      <component glyphName="acute.case.loclPLK" x="54" y="0" flags="0x1000"/>
    </TTGlyph>
    <TTGlyph name="Zcaron" xMin="72" yMin="0" xMax="528" yMax="905">
      <component glyphName="Z" x="0" y="0" flags="0x1000"/>
      <component glyphName="caron.case" x="19" y="0" flags="0x1000"/>
    </TTGlyph>
    <TTGlyph name="Zdotaccent" xMin="72" yMin="0" xMax="528" yMax="892">
      <component glyphName="Z" x="0" y="0" flags="0x1000"/>
      <component glyphName="dotaccent.case" x="20" y="0" flags="0x1000"/>
    </TTGlyph>
    <TTGlyph name="Zeta" xMin="72" yMin="0" xMax="528" yMax="689">
      <component glyphName="Z" x="0" y="0" flags="0x1000"/>
    </TTGlyph>
    <TTGlyph name="a" xMin="69" yMin="-12" xMax="521" yMax="538">
      <contour>
        <pt x="478" y="84" on="0"/>
        <pt x="498" y="55" on="0"/>
        <pt x="521" y="48" on="1"/>
        <pt x="500" y="-12" on="1"/>
        <pt x="423" y="-2" on="0"/>
        <pt x="404" y="63" on="1"/>
        <pt x="376" y="27" on="0"/>
        <pt x="291" y="-11" on="0"/>
        <pt x="239" y="-11" on="1"/>
        <pt x="160" y="-11" on="0"/>
        <pt x="69" y="77" on="0"/>
        <pt x="69" y="151" on="1"/>
        <pt x="69" y="232" on="0"/>
        <pt x="196" y="320" on="0"/>
        <pt x="315" y="320" on="1"/>
        <pt x="393" y="320" on="1"/>
        <pt x="393" y="363" on="1"/>
        <pt x="393" y="419" on="0"/>
        <pt x="329" y="468" on="0"/>
        <pt x="268" y="468" on="1"/>
        <pt x="208" y="468" on="0"/>
        <pt x="131" y="441" on="1"/>
        <pt x="108" y="505" on="1"/>
        <pt x="201" y="538" on="0"/>
        <pt x="281" y="538" on="1"/>
        <pt x="377" y="538" on="0"/>
        <pt x="478" y="448" on="0"/>
        <pt x="478" y="368" on="1"/>
        <pt x="478" y="115" on="1"/>
      </contour>
      <contour>
        <pt x="299" y="52" on="0"/>
        <pt x="370" y="92" on="0"/>
        <pt x="393" y="127" on="1"/>
        <pt x="393" y="262" on="1"/>
        <pt x="317" y="262" on="1"/>
        <pt x="233" y="262" on="0"/>
        <pt x="159" y="206" on="0"/>
        <pt x="159" y="152" on="1"/>
        <pt x="159" y="52" on="0"/>
        <pt x="260" y="52" on="1"/>
      </contour>
    </TTGlyph>
    <TTGlyph name="aacute" xMin="69" yMin="-12" xMax="521" yMax="797">
      <component glyphName="a" x="0" y="0" flags="0x1000"/>
      <component glyphName="acute" x="-8" y="0" flags="0x1000"/>
    </TTGlyph>
    <TTGlyph name="abreve" xMin="69" yMin="-12" xMax="521" yMax="779">
      <component glyphName="a" x="0" y="0" flags="0x1000"/>
      <component glyphName="breve" x="-8" y="0" flags="0x1000"/>
    </TTGlyph>
    <TTGlyph name="acircumflex" xMin="69" yMin="-12" xMax="521" yMax="789">
      <component glyphName="a" x="0" y="0" flags="0x1000"/>
      <component glyphName="circumflex" x="-8" y="0" flags="0x1000"/>
    </TTGlyph>
    <TTGlyph name="acute" xMin="187" yMin="640" xMax="422" yMax="797">
      <contour>
        <pt x="422" y="725" on="1"/>
        <pt x="213" y="640" on="1"/>
        <pt x="187" y="685" on="1"/>
        <pt x="384" y="797" on="1"/>
      </contour>
    </TTGlyph>
    <TTGlyph name="acute.case" xMin="182" yMin="755" xMax="417" yMax="906">
      <contour>
        <pt x="417" y="834" on="1"/>
        <pt x="204" y="755" on="1"/>
        <pt x="182" y="801" on="1"/>
        <pt x="380" y="906" on="1"/>
      </contour>
    </TTGlyph>
    <TTGlyph name="acute.case.loclPLK" xMin="215" yMin="728" xMax="386" yMax="915">
      <contour>
        <pt x="386" y="871" on="1"/>
        <pt x="256" y="728" on="1"/>
        <pt x="215" y="753" on="1"/>
        <pt x="320" y="915" on="1"/>
      </contour>
    </TTGlyph>
    <TTGlyph name="acute.loclPLK" xMin="215" yMin="577" xMax="385" yMax="771">
      <contour>
        <pt x="385" y="728" on="1"/>
        <pt x="256" y="577" on="1"/>
        <pt x="215" y="602" on="1"/>
        <pt x="319" y="771" on="1"/>
      </contour>
    </TTGlyph>
    <TTGlyph name="acutecomb" xMin="-413" yMin="640" xMax="-178" yMax="797">
      <contour>
        <pt x="-178" y="725" on="1"/>
        <pt x="-387" y="640" on="1"/>
        <pt x="-413" y="685" on="1"/>
        <pt x="-216" y="797" on="1"/>
      </contour>
    </TTGlyph>
    <TTGlyph name="adieresis" xMin="69" yMin="-12" xMax="521" yMax="756">
      <component glyphName="a" x="0" y="0" flags="0x1000"/>
      <component glyphName="dieresis" x="-8" y="0" flags="0x1000"/>
    </TTGlyph>
    <TTGlyph name="ae" xMin="-6" yMin="-11" xMax="607" yMax="538">
      <contour>
        <pt x="522" y="538" on="0"/>
        <pt x="607" y="403" on="0"/>
        <pt x="607" y="279" on="1"/>
        <pt x="607" y="257" on="0"/>
        <pt x="605" y="233" on="1"/>
        <pt x="336" y="233" on="1"/>
        <pt x="343" y="142" on="0"/>
        <pt x="396" y="59" on="0"/>
        <pt x="449" y="59" on="1"/>
        <pt x="476" y="59" on="0"/>
        <pt x="521" y="78" on="0"/>
        <pt x="548" y="99" on="1"/>
        <pt x="587" y="41" on="1"/>
        <pt x="554" y="15" on="0"/>
        <pt x="488" y="-11" on="0"/>
        <pt x="447" y="-11" on="1"/>
        <pt x="396" y="-11" on="0"/>
        <pt x="324" y="34" on="0"/>
        <pt x="299" y="78" on="1"/>
        <pt x="264" y="30" on="0"/>
        <pt x="195" y="-11" on="0"/>
        <pt x="146" y="-11" on="1"/>
        <pt x="76" y="-11" on="0"/>
        <pt x="-6" y="77" on="0"/>
        <pt x="-6" y="151" on="1"/>
        <pt x="-6" y="234" on="0"/>
        <pt x="103" y="320" on="0"/>
        <pt x="208" y="320" on="1"/>
        <pt x="254" y="320" on="1"/>
        <pt x="254" y="363" on="1"/>
        <pt x="254" y="468" on="0"/>
        <pt x="163" y="468" on="1"/>
        <pt x="137" y="468" on="0"/>
        <pt x="93" y="456" on="0"/>
        <pt x="58" y="441" on="1"/>
        <pt x="36" y="504" on="1"/>
        <pt x="107" y="538" on="0"/>
        <pt x="171" y="538" on="1"/>
        <pt x="227" y="538" on="0"/>
        <pt x="292" y="493" on="0"/>
        <pt x="309" y="450" on="1"/>
        <pt x="323" y="491" on="0"/>
        <pt x="388" y="538" on="0"/>
        <pt x="435" y="538" on="1"/>
      </contour>
      <contour>
        <pt x="386" y="468" on="0"/>
        <pt x="342" y="392" on="0"/>
        <pt x="336" y="299" on="1"/>
        <pt x="525" y="299" on="1"/>
        <pt x="523" y="385" on="0"/>
        <pt x="481" y="468" on="0"/>
        <pt x="432" y="468" on="1"/>
      </contour>
      <contour>
        <pt x="212" y="262" on="1"/>
        <pt x="143" y="262" on="0"/>
        <pt x="85" y="207" on="0"/>
        <pt x="85" y="156" on="1"/>
        <pt x="85" y="106" on="0"/>
        <pt x="125" y="53" on="0"/>
        <pt x="159" y="53" on="1"/>
        <pt x="190" y="53" on="0"/>
        <pt x="239" y="99" on="0"/>
        <pt x="268" y="150" on="1"/>
        <pt x="254" y="195" on="0"/>
        <pt x="254" y="262" on="1"/>
      </contour>
    </TTGlyph>
    <TTGlyph name="aeacute" xMin="-6" yMin="-11" xMax="607" yMax="797">
      <component glyphName="ae" x="0" y="0" flags="0x1000"/>
      <component glyphName="acute" x="9" y="0" flags="0x1000"/>
    </TTGlyph>
    <TTGlyph name="agrave" xMin="69" yMin="-12" xMax="521" yMax="787">
      <component glyphName="a" x="0" y="0" flags="0x1000"/>
      <component glyphName="grave" x="-8" y="0" flags="0x1000"/>
    </TTGlyph>
    <TTGlyph name="alpha" xMin="59" yMin="-13" xMax="544" yMax="538">
      <contour>
        <pt x="325" y="538" on="0"/>
        <pt x="405" y="463" on="0"/>
        <pt x="421" y="373" on="1"/>
        <pt x="448" y="527" on="1"/>
        <pt x="525" y="527" on="1"/>
        <pt x="474" y="246" on="1"/>
        <pt x="499" y="110" on="1"/>
        <pt x="503" y="90" on="0"/>
        <pt x="522" y="67" on="0"/>
        <pt x="544" y="58" on="1"/>
        <pt x="514" y="-13" on="1"/>
        <pt x="480" y="-7" on="0"/>
        <pt x="428" y="43" on="0"/>
        <pt x="422" y="83" on="1"/>
        <pt x="413" y="139" on="1"/>
        <pt x="363" y="-11" on="0"/>
        <pt x="250" y="-11" on="1"/>
        <pt x="158" y="-11" on="0"/>
        <pt x="59" y="125" on="0"/>
        <pt x="59" y="259" on="1"/>
        <pt x="59" y="385" on="0"/>
        <pt x="160" y="538" on="0"/>
        <pt x="255" y="538" on="1"/>
      </contour>
      <contour>
        <pt x="207" y="470" on="0"/>
        <pt x="149" y="361" on="0"/>
        <pt x="149" y="259" on="1"/>
        <pt x="149" y="155" on="0"/>
        <pt x="203" y="57" on="0"/>
        <pt x="257" y="57" on="1"/>
        <pt x="302" y="57" on="0"/>
        <pt x="376" y="146" on="0"/>
        <pt x="399" y="267" on="1"/>
        <pt x="385" y="346" on="0"/>
        <pt x="347" y="434" on="0"/>
        <pt x="296" y="470" on="0"/>
        <pt x="261" y="470" on="1"/>
      </contour>
    </TTGlyph>
    <TTGlyph name="alphatonos" xMin="59" yMin="-13" xMax="544" yMax="808">
      <component glyphName="alpha" x="0" y="0" flags="0x1000"/>
      <component glyphName="tonos" x="10" y="0" flags="0x1000"/>
    </TTGlyph>
    <TTGlyph name="amacron" xMin="69" yMin="-12" xMax="521" yMax="740">
      <component glyphName="a" x="0" y="0" flags="0x1000"/>
      <component glyphName="macron" x="-8" y="0" flags="0x1000"/>
    </TTGlyph>
    <TTGlyph name="ampersand" xMin="54" yMin="-11" xMax="574" yMax="699">
      <contour>
        <pt x="328" y="699" on="0"/>
        <pt x="407" y="667" on="0"/>
        <pt x="446" y="624" on="1"/>
        <pt x="396" y="578" on="1"/>
        <pt x="369" y="608" on="0"/>
        <pt x="314" y="636" on="0"/>
        <pt x="278" y="636" on="1"/>
        <pt x="226" y="636" on="0"/>
        <pt x="172" y="580" on="0"/>
        <pt x="172" y="534" on="1"/>
        <pt x="172" y="504" on="0"/>
        <pt x="205" y="451" on="0"/>
        <pt x="262" y="420" on="0"/>
        <pt x="296" y="420" on="1"/>
        <pt x="574" y="420" on="1"/>
        <pt x="574" y="353" on="1"/>
        <pt x="484" y="353" on="1"/>
        <pt x="484" y="81" on="1"/>
        <pt x="454" y="44" on="0"/>
        <pt x="354" y="-11" on="0"/>
        <pt x="277" y="-11" on="1"/>
        <pt x="203" y="-11" on="0"/>
        <pt x="102" y="47" on="0"/>
        <pt x="54" y="141" on="0"/>
        <pt x="54" y="195" on="1"/>
        <pt x="54" y="272" on="0"/>
        <pt x="135" y="371" on="0"/>
        <pt x="210" y="387" on="1"/>
        <pt x="210" y="390" on="1"/>
        <pt x="147" y="405" on="0"/>
        <pt x="90" y="483" on="0"/>
        <pt x="90" y="534" on="1"/>
        <pt x="90" y="578" on="0"/>
        <pt x="136" y="654" on="0"/>
        <pt x="222" y="699" on="0"/>
        <pt x="279" y="699" on="1"/>
      </contour>
      <contour>
        <pt x="283" y="353" on="1"/>
        <pt x="234" y="353" on="0"/>
        <pt x="168" y="307" on="0"/>
        <pt x="136" y="236" on="0"/>
        <pt x="136" y="198" on="1"/>
        <pt x="136" y="138" on="0"/>
        <pt x="208" y="57" on="0"/>
        <pt x="279" y="57" on="1"/>
        <pt x="321" y="57" on="0"/>
        <pt x="387" y="84" on="0"/>
        <pt x="407" y="109" on="1"/>
        <pt x="407" y="353" on="1"/>
      </contour>
    </TTGlyph>
    <TTGlyph name="ampersand_ampersand.liga" xMin="-496" yMin="-11" xMax="524" yMax="699">
      <contour>
        <pt x="524" y="420" on="1"/>
        <pt x="524" y="353" on="1"/>
        <pt x="434" y="353" on="1"/>
        <pt x="434" y="81" on="1"/>
        <pt x="404" y="44" on="0"/>
        <pt x="304" y="-11" on="0"/>
        <pt x="227" y="-11" on="1"/>
        <pt x="153" y="-11" on="0"/>
        <pt x="52" y="47" on="0"/>
        <pt x="4" y="141" on="0"/>
        <pt x="4" y="195" on="1"/>
        <pt x="4" y="301" on="0"/>
        <pt x="78" y="353" on="1"/>
        <pt x="-66" y="353" on="1"/>
        <pt x="-66" y="81" on="1"/>
        <pt x="-96" y="44" on="0"/>
        <pt x="-196" y="-11" on="0"/>
        <pt x="-273" y="-11" on="1"/>
        <pt x="-347" y="-11" on="0"/>
        <pt x="-448" y="47" on="0"/>
        <pt x="-496" y="141" on="0"/>
        <pt x="-496" y="195" on="1"/>
        <pt x="-496" y="272" on="0"/>
        <pt x="-415" y="371" on="0"/>
        <pt x="-340" y="387" on="1"/>
        <pt x="-340" y="390" on="1"/>
        <pt x="-403" y="405" on="0"/>
        <pt x="-460" y="483" on="0"/>
        <pt x="-460" y="534" on="1"/>
        <pt x="-460" y="578" on="0"/>
        <pt x="-414" y="654" on="0"/>
        <pt x="-328" y="699" on="0"/>
        <pt x="-271" y="699" on="1"/>
        <pt x="-222" y="699" on="0"/>
        <pt x="-143" y="667" on="0"/>
        <pt x="-104" y="624" on="1"/>
        <pt x="-154" y="578" on="1"/>
        <pt x="-181" y="608" on="0"/>
        <pt x="-236" y="636" on="0"/>
        <pt x="-272" y="636" on="1"/>
        <pt x="-324" y="636" on="0"/>
        <pt x="-378" y="580" on="0"/>
        <pt x="-378" y="534" on="1"/>
        <pt x="-378" y="504" on="0"/>
        <pt x="-345" y="451" on="0"/>
        <pt x="-288" y="420" on="0"/>
        <pt x="-254" y="420" on="1"/>
        <pt x="93" y="420" on="1"/>
        <pt x="40" y="459" on="0"/>
        <pt x="40" y="534" on="1"/>
        <pt x="40" y="578" on="0"/>
        <pt x="86" y="654" on="0"/>
        <pt x="172" y="699" on="0"/>
        <pt x="229" y="699" on="1"/>
        <pt x="278" y="699" on="0"/>
        <pt x="357" y="667" on="0"/>
        <pt x="396" y="624" on="1"/>
        <pt x="346" y="578" on="1"/>
        <pt x="319" y="608" on="0"/>
        <pt x="264" y="636" on="0"/>
        <pt x="228" y="636" on="1"/>
        <pt x="176" y="636" on="0"/>
        <pt x="122" y="580" on="0"/>
        <pt x="122" y="534" on="1"/>
        <pt x="122" y="504" on="0"/>
        <pt x="155" y="451" on="0"/>
        <pt x="212" y="420" on="0"/>
        <pt x="246" y="420" on="1"/>
      </contour>
      <contour>
        <pt x="-143" y="353" on="1"/>
        <pt x="-267" y="353" on="1"/>
        <pt x="-316" y="353" on="0"/>
        <pt x="-382" y="307" on="0"/>
        <pt x="-414" y="236" on="0"/>
        <pt x="-414" y="198" on="1"/>
        <pt x="-414" y="138" on="0"/>
        <pt x="-342" y="57" on="0"/>
        <pt x="-271" y="57" on="1"/>
        <pt x="-229" y="57" on="0"/>
        <pt x="-163" y="84" on="0"/>
        <pt x="-143" y="109" on="1"/>
      </contour>
      <contour>
        <pt x="357" y="353" on="1"/>
        <pt x="233" y="353" on="1"/>
        <pt x="184" y="353" on="0"/>
        <pt x="118" y="307" on="0"/>
        <pt x="86" y="236" on="0"/>
        <pt x="86" y="198" on="1"/>
        <pt x="86" y="138" on="0"/>
        <pt x="158" y="57" on="0"/>
        <pt x="229" y="57" on="1"/>
        <pt x="271" y="57" on="0"/>
        <pt x="337" y="84" on="0"/>
        <pt x="357" y="109" on="1"/>
      </contour>
    </TTGlyph>
    <TTGlyph name="anoteleia" xMin="212" yMin="254" xMax="388" yMax="430">
      <component glyphName="periodcentered" x="1" y="0" flags="0x1000"/>
    </TTGlyph>
    <TTGlyph name="aogonek" xMin="69" yMin="-241" xMax="521" yMax="538">
      <contour>
        <pt x="428" y="-43" on="0"/>
        <pt x="376" y="-97" on="0"/>
        <pt x="376" y="-126" on="1"/>
        <pt x="376" y="-150" on="0"/>
        <pt x="402" y="-174" on="0"/>
        <pt x="432" y="-174" on="1"/>
        <pt x="459" y="-174" on="0"/>
        <pt x="493" y="-167" on="1"/>
        <pt x="485" y="-235" on="1"/>
        <pt x="443" y="-241" on="0"/>
        <pt x="421" y="-241" on="1"/>
        <pt x="365" y="-241" on="0"/>
        <pt x="299" y="-186" on="0"/>
        <pt x="299" y="-143" on="1"/>
        <pt x="299" y="-96" on="0"/>
        <pt x="370" y="-22" on="0"/>
        <pt x="446" y="6" on="1"/>
        <pt x="415" y="26" on="0"/>
        <pt x="404" y="63" on="1"/>
        <pt x="376" y="27" on="0"/>
        <pt x="291" y="-11" on="0"/>
        <pt x="239" y="-11" on="1"/>
        <pt x="160" y="-11" on="0"/>
        <pt x="69" y="77" on="0"/>
        <pt x="69" y="151" on="1"/>
        <pt x="69" y="232" on="0"/>
        <pt x="196" y="320" on="0"/>
        <pt x="315" y="320" on="1"/>
        <pt x="393" y="320" on="1"/>
        <pt x="393" y="363" on="1"/>
        <pt x="393" y="419" on="0"/>
        <pt x="329" y="468" on="0"/>
        <pt x="268" y="468" on="1"/>
        <pt x="208" y="468" on="0"/>
        <pt x="131" y="441" on="1"/>
        <pt x="108" y="505" on="1"/>
        <pt x="201" y="538" on="0"/>
        <pt x="281" y="538" on="1"/>
        <pt x="377" y="538" on="0"/>
        <pt x="478" y="448" on="0"/>
        <pt x="478" y="368" on="1"/>
        <pt x="478" y="115" on="1"/>
        <pt x="478" y="84" on="0"/>
        <pt x="498" y="55" on="0"/>
        <pt x="521" y="48" on="1"/>
        <pt x="500" y="-12" on="1"/>
      </contour>
      <contour>
        <pt x="393" y="262" on="1"/>
        <pt x="317" y="262" on="1"/>
        <pt x="233" y="262" on="0"/>
        <pt x="159" y="206" on="0"/>
        <pt x="159" y="152" on="1"/>
        <pt x="159" y="52" on="0"/>
        <pt x="260" y="52" on="1"/>
        <pt x="299" y="52" on="0"/>
        <pt x="370" y="92" on="0"/>
        <pt x="393" y="127" on="1"/>
      </contour>
    </TTGlyph>
    <TTGlyph name="approxequal" xMin="95" yMin="159" xMax="505" yMax="470">
      <contour>
        <pt x="257" y="470" on="0"/>
        <pt x="302" y="451" on="0"/>
        <pt x="328" y="435" on="1"/>
        <pt x="348" y="424" on="0"/>
        <pt x="369" y="414" on="0"/>
        <pt x="380" y="414" on="1"/>
        <pt x="403" y="414" on="0"/>
        <pt x="433" y="440" on="0"/>
        <pt x="447" y="464" on="1"/>
        <pt x="505" y="434" on="1"/>
        <pt x="459" y="347" on="0"/>
        <pt x="374" y="347" on="1"/>
        <pt x="343" y="347" on="0"/>
        <pt x="298" y="366" on="0"/>
        <pt x="272" y="382" on="1"/>
        <pt x="252" y="393" on="0"/>
        <pt x="231" y="403" on="0"/>
        <pt x="220" y="403" on="1"/>
        <pt x="197" y="403" on="0"/>
        <pt x="167" y="377" on="0"/>
        <pt x="153" y="352" on="1"/>
        <pt x="95" y="382" on="1"/>
        <pt x="114" y="418" on="0"/>
        <pt x="178" y="470" on="0"/>
        <pt x="226" y="470" on="1"/>
      </contour>
      <contour>
        <pt x="257" y="282" on="0"/>
        <pt x="302" y="263" on="0"/>
        <pt x="328" y="247" on="1"/>
        <pt x="346" y="236" on="0"/>
        <pt x="369" y="225" on="0"/>
        <pt x="380" y="225" on="1"/>
        <pt x="403" y="225" on="0"/>
        <pt x="433" y="251" on="0"/>
        <pt x="447" y="276" on="1"/>
        <pt x="505" y="246" on="1"/>
        <pt x="486" y="210" on="0"/>
        <pt x="423" y="159" on="0"/>
        <pt x="374" y="159" on="1"/>
        <pt x="344" y="159" on="0"/>
        <pt x="299" y="177" on="0"/>
        <pt x="272" y="193" on="1"/>
        <pt x="252" y="204" on="0"/>
        <pt x="231" y="214" on="0"/>
        <pt x="220" y="214" on="1"/>
        <pt x="197" y="214" on="0"/>
        <pt x="167" y="188" on="0"/>
        <pt x="153" y="164" on="1"/>
        <pt x="95" y="194" on="1"/>
        <pt x="114" y="230" on="0"/>
        <pt x="178" y="282" on="0"/>
        <pt x="226" y="282" on="1"/>
      </contour>
    </TTGlyph>
    <TTGlyph name="approxequal.tosf" xMin="95" yMin="159" xMax="505" yMax="470">
      <component glyphName="approxequal" x="0" y="0" flags="0x1000"/>
    </TTGlyph>
    <TTGlyph name="aring" xMin="69" yMin="-12" xMax="521" yMax="824">
      <component glyphName="a" x="0" y="0" flags="0x1000"/>
      <component glyphName="ring" x="-8" y="0" flags="0x1000"/>
    </TTGlyph>
    <TTGlyph name="arrowboth" xMin="-74" yMin="52" xMax="674" yMax="606">
      <contour>
        <pt x="430" y="52" on="1"/>
        <pt x="367" y="105" on="1"/>
        <pt x="483" y="234" on="1"/>
        <pt x="514" y="270" on="0"/>
        <pt x="547" y="292" on="1"/>
        <pt x="53" y="292" on="1"/>
        <pt x="82" y="273" on="0"/>
        <pt x="117" y="234" on="1"/>
        <pt x="236" y="105" on="1"/>
        <pt x="173" y="52" on="1"/>
        <pt x="-74" y="329" on="1"/>
        <pt x="174" y="606" on="1"/>
        <pt x="236" y="553" on="1"/>
        <pt x="117" y="424" on="1"/>
        <pt x="95" y="399" on="0"/>
        <pt x="73" y="379" on="0"/>
        <pt x="53" y="366" on="1"/>
        <pt x="547" y="366" on="1"/>
        <pt x="527" y="379" on="0"/>
        <pt x="505" y="399" on="0"/>
        <pt x="483" y="424" on="1"/>
        <pt x="366" y="553" on="1"/>
        <pt x="428" y="606" on="1"/>
        <pt x="674" y="329" on="1"/>
      </contour>
    </TTGlyph>
    <TTGlyph name="arrowdown" xMin="-13" yMin="-36" xMax="613" yMax="631">
      <contour>
        <pt x="342" y="82" on="1"/>
        <pt x="353" y="103" on="0"/>
        <pt x="380" y="134" on="0"/>
        <pt x="401" y="152" on="1"/>
        <pt x="562" y="300" on="1"/>
        <pt x="613" y="243" on="1"/>
        <pt x="300" y="-36" on="1"/>
        <pt x="-13" y="243" on="1"/>
        <pt x="38" y="300" on="1"/>
        <pt x="199" y="152" on="1"/>
        <pt x="239" y="119" on="0"/>
        <pt x="258" y="82" on="1"/>
        <pt x="258" y="631" on="1"/>
        <pt x="342" y="631" on="1"/>
      </contour>
    </TTGlyph>
    <TTGlyph name="arrowleft" xMin="23" yMin="24" xMax="577" yMax="634">
      <contour>
        <pt x="357" y="580" on="1"/>
        <pt x="214" y="424" on="1"/>
        <pt x="189" y="397" on="0"/>
        <pt x="170" y="378" on="0"/>
        <pt x="150" y="366" on="1"/>
        <pt x="577" y="366" on="1"/>
        <pt x="577" y="292" on="1"/>
        <pt x="150" y="292" on="1"/>
        <pt x="179" y="273" on="0"/>
        <pt x="214" y="234" on="1"/>
        <pt x="357" y="78" on="1"/>
        <pt x="294" y="24" on="1"/>
        <pt x="23" y="329" on="1"/>
        <pt x="294" y="634" on="1"/>
      </contour>
    </TTGlyph>
    <TTGlyph name="arrowright" xMin="23" yMin="24" xMax="577" yMax="634">
      <contour>
        <pt x="577" y="329" on="1"/>
        <pt x="306" y="24" on="1"/>
        <pt x="243" y="78" on="1"/>
        <pt x="386" y="234" on="1"/>
        <pt x="421" y="273" on="0"/>
        <pt x="450" y="292" on="1"/>
        <pt x="23" y="292" on="1"/>
        <pt x="23" y="366" on="1"/>
        <pt x="450" y="366" on="1"/>
        <pt x="430" y="378" on="0"/>
        <pt x="411" y="397" on="0"/>
        <pt x="386" y="424" on="1"/>
        <pt x="243" y="580" on="1"/>
        <pt x="306" y="634" on="1"/>
      </contour>
    </TTGlyph>
    <TTGlyph name="arrowup" xMin="-13" yMin="0" xMax="613" yMax="668">
      <contour>
        <pt x="613" y="389" on="1"/>
        <pt x="562" y="332" on="1"/>
        <pt x="401" y="479" on="1"/>
        <pt x="381" y="496" on="0"/>
        <pt x="353" y="529" on="0"/>
        <pt x="342" y="550" on="1"/>
        <pt x="342" y="0" on="1"/>
        <pt x="258" y="0" on="1"/>
        <pt x="258" y="550" on="1"/>
        <pt x="247" y="528" on="0"/>
        <pt x="220" y="497" on="0"/>
        <pt x="199" y="479" on="1"/>
        <pt x="38" y="332" on="1"/>
        <pt x="-13" y="389" on="1"/>
        <pt x="300" y="668" on="1"/>
      </contour>
    </TTGlyph>
    <TTGlyph name="arrowupdn" xMin="-13" yMin="-185" xMax="613" yMax="865">
      <contour>
        <pt x="613" y="586" on="1"/>
        <pt x="562" y="530" on="1"/>
        <pt x="401" y="677" on="1"/>
        <pt x="380" y="695" on="0"/>
        <pt x="353" y="726" on="0"/>
        <pt x="342" y="747" on="1"/>
        <pt x="342" y="-68" on="1"/>
        <pt x="353" y="-47" on="0"/>
        <pt x="381" y="-14" on="0"/>
        <pt x="401" y="3" on="1"/>
        <pt x="562" y="150" on="1"/>
        <pt x="613" y="94" on="1"/>
        <pt x="300" y="-185" on="1"/>
        <pt x="-13" y="94" on="1"/>
        <pt x="38" y="150" on="1"/>
        <pt x="199" y="3" on="1"/>
        <pt x="220" y="-15" on="0"/>
        <pt x="247" y="-46" on="0"/>
        <pt x="258" y="-68" on="1"/>
        <pt x="258" y="747" on="1"/>
        <pt x="247" y="726" on="0"/>
        <pt x="220" y="695" on="0"/>
        <pt x="199" y="677" on="1"/>
        <pt x="38" y="530" on="1"/>
        <pt x="-13" y="586" on="1"/>
        <pt x="300" y="865" on="1"/>
      </contour>
    </TTGlyph>
    <TTGlyph name="asciicircum" xMin="74" yMin="527" xMax="526" yMax="840">
      <contour>
        <pt x="526" y="527" on="1"/>
        <pt x="435" y="527" on="1"/>
        <pt x="299" y="764" on="1"/>
        <pt x="164" y="527" on="1"/>
        <pt x="74" y="527" on="1"/>
        <pt x="263" y="840" on="1"/>
        <pt x="337" y="840" on="1"/>
      </contour>
    </TTGlyph>
    <TTGlyph name="asciicircum_equal.liga" xMin="-476" yMin="180" xMax="444" yMax="760">
      <contour>
        <pt x="444" y="442" on="1"/>
        <pt x="444" y="370" on="1"/>
        <pt x="-71" y="370" on="1"/>
        <pt x="-251" y="684" on="1"/>
        <pt x="-386" y="447" on="1"/>
        <pt x="-476" y="447" on="1"/>
        <pt x="-287" y="760" on="1"/>
        <pt x="-213" y="760" on="1"/>
        <pt x="-20" y="442" on="1"/>
      </contour>
      <contour>
        <pt x="-71" y="252" on="1"/>
        <pt x="444" y="252" on="1"/>
        <pt x="444" y="180" on="1"/>
        <pt x="-71" y="180" on="1"/>
      </contour>
    </TTGlyph>
    <TTGlyph name="asciitilde" xMin="43" yMin="228" xMax="557" yMax="401">
      <contour>
        <pt x="242" y="401" on="0"/>
        <pt x="294" y="370" on="0"/>
        <pt x="326" y="342" on="1"/>
        <pt x="349" y="321" on="0"/>
        <pt x="380" y="301" on="0"/>
        <pt x="398" y="301" on="1"/>
        <pt x="451" y="301" on="0"/>
        <pt x="497" y="386" on="1"/>
        <pt x="557" y="354" on="1"/>
        <pt x="527" y="298" on="0"/>
        <pt x="454" y="228" on="0"/>
        <pt x="395" y="228" on="1"/>
        <pt x="361" y="228" on="0"/>
        <pt x="312" y="257" on="0"/>
        <pt x="279" y="285" on="1"/>
        <pt x="256" y="307" on="0"/>
        <pt x="222" y="328" on="0"/>
        <pt x="202" y="328" on="1"/>
        <pt x="172" y="328" on="0"/>
        <pt x="125" y="283" on="0"/>
        <pt x="103" y="243" on="1"/>
        <pt x="43" y="273" on="1"/>
        <pt x="73" y="331" on="0"/>
        <pt x="146" y="401" on="0"/>
        <pt x="205" y="401" on="1"/>
      </contour>
    </TTGlyph>
    <TTGlyph name="asciitilde.tosf" xMin="43" yMin="228" xMax="557" yMax="401">
      <component glyphName="asciitilde" x="0" y="0" flags="0x1000"/>
    </TTGlyph>
    <TTGlyph name="asciitilde_asciitilde.liga" xMin="-448" yMin="228" xMax="448" yMax="401">
      <contour>
        <pt x="448" y="354" on="1"/>
        <pt x="418" y="298" on="0"/>
        <pt x="345" y="228" on="0"/>
        <pt x="286" y="228" on="1"/>
        <pt x="252" y="228" on="0"/>
        <pt x="203" y="257" on="0"/>
        <pt x="170" y="285" on="1"/>
        <pt x="146" y="307" on="0"/>
        <pt x="113" y="328" on="0"/>
        <pt x="93" y="328" on="1"/>
        <pt x="74" y="328" on="0"/>
        <pt x="42" y="307" on="0"/>
        <pt x="18" y="285" on="1"/>
        <pt x="-11" y="258" on="0"/>
        <pt x="-61" y="228" on="0"/>
        <pt x="-96" y="228" on="1"/>
        <pt x="-130" y="228" on="0"/>
        <pt x="-179" y="257" on="0"/>
        <pt x="-212" y="285" on="1"/>
        <pt x="-236" y="307" on="0"/>
        <pt x="-269" y="328" on="0"/>
        <pt x="-289" y="328" on="1"/>
        <pt x="-319" y="328" on="0"/>
        <pt x="-366" y="283" on="0"/>
        <pt x="-388" y="243" on="1"/>
        <pt x="-448" y="273" on="1"/>
        <pt x="-418" y="331" on="0"/>
        <pt x="-345" y="401" on="0"/>
        <pt x="-286" y="401" on="1"/>
        <pt x="-249" y="401" on="0"/>
        <pt x="-197" y="370" on="0"/>
        <pt x="-165" y="342" on="1"/>
        <pt x="-142" y="321" on="0"/>
        <pt x="-111" y="301" on="0"/>
        <pt x="-93" y="301" on="1"/>
        <pt x="-75" y="301" on="0"/>
        <pt x="-45" y="321" on="0"/>
        <pt x="-23" y="342" on="1"/>
        <pt x="8" y="370" on="0"/>
        <pt x="59" y="401" on="0"/>
        <pt x="96" y="401" on="1"/>
        <pt x="133" y="401" on="0"/>
        <pt x="185" y="370" on="0"/>
        <pt x="217" y="342" on="1"/>
        <pt x="240" y="321" on="0"/>
        <pt x="271" y="301" on="0"/>
        <pt x="289" y="301" on="1"/>
        <pt x="342" y="301" on="0"/>
        <pt x="388" y="386" on="1"/>
      </contour>
    </TTGlyph>
    <TTGlyph name="asciitilde_asciitilde_greater.liga" xMin="-1119" yMin="8" xMax="577" yMax="618">
      <contour>
        <pt x="577" y="313" on="1"/>
        <pt x="306" y="8" on="1"/>
        <pt x="243" y="62" on="1"/>
        <pt x="386" y="218" on="1"/>
        <pt x="421" y="257" on="0"/>
        <pt x="450" y="276" on="1"/>
        <pt x="450" y="350" on="1"/>
        <pt x="447" y="352" on="1"/>
        <pt x="447" y="299" on="1"/>
        <pt x="422" y="296" on="0"/>
        <pt x="389" y="279" on="0"/>
        <pt x="367" y="262" on="1"/>
        <pt x="340" y="241" on="0"/>
        <pt x="291" y="219" on="0"/>
        <pt x="249" y="219" on="1"/>
        <pt x="207" y="219" on="0"/>
        <pt x="152" y="252" on="0"/>
        <pt x="122" y="282" on="1"/>
        <pt x="100" y="304" on="0"/>
        <pt x="69" y="325" on="0"/>
        <pt x="49" y="325" on="1"/>
        <pt x="29" y="325" on="0"/>
        <pt x="1" y="307" on="0"/>
        <pt x="-23" y="285" on="1"/>
        <pt x="-53" y="256" on="0"/>
        <pt x="-108" y="225" on="0"/>
        <pt x="-151" y="225" on="1"/>
        <pt x="-193" y="225" on="0"/>
        <pt x="-247" y="252" on="0"/>
        <pt x="-278" y="278" on="1"/>
        <pt x="-301" y="297" on="0"/>
        <pt x="-331" y="314" on="0"/>
        <pt x="-351" y="314" on="1"/>
        <pt x="-371" y="314" on="0"/>
        <pt x="-401" y="296" on="0"/>
        <pt x="-424" y="276" on="1"/>
        <pt x="-454" y="249" on="0"/>
        <pt x="-508" y="219" on="0"/>
        <pt x="-551" y="219" on="1"/>
        <pt x="-593" y="219" on="0"/>
        <pt x="-648" y="252" on="0"/>
        <pt x="-678" y="282" on="1"/>
        <pt x="-700" y="304" on="0"/>
        <pt x="-731" y="325" on="0"/>
        <pt x="-751" y="325" on="1"/>
        <pt x="-771" y="325" on="0"/>
        <pt x="-799" y="307" on="0"/>
        <pt x="-823" y="285" on="1"/>
        <pt x="-853" y="256" on="0"/>
        <pt x="-908" y="225" on="0"/>
        <pt x="-951" y="225" on="1"/>
        <pt x="-985" y="225" on="0"/>
        <pt x="-1055" y="263" on="0"/>
        <pt x="-1109" y="318" on="0"/>
        <pt x="-1119" y="344" on="1"/>
        <pt x="-1048" y="379" on="1"/>
        <pt x="-1030" y="343" on="0"/>
        <pt x="-977" y="297" on="0"/>
        <pt x="-951" y="297" on="1"/>
        <pt x="-931" y="297" on="0"/>
        <pt x="-900" y="317" on="0"/>
        <pt x="-878" y="338" on="1"/>
        <pt x="-848" y="366" on="0"/>
        <pt x="-793" y="397" on="0"/>
        <pt x="-751" y="397" on="1"/>
        <pt x="-708" y="397" on="0"/>
        <pt x="-653" y="366" on="0"/>
        <pt x="-623" y="337" on="1"/>
        <pt x="-599" y="315" on="0"/>
        <pt x="-571" y="297" on="0"/>
        <pt x="-551" y="297" on="1"/>
        <pt x="-531" y="297" on="0"/>
        <pt x="-500" y="317" on="0"/>
        <pt x="-478" y="338" on="1"/>
        <pt x="-448" y="366" on="0"/>
        <pt x="-393" y="397" on="0"/>
        <pt x="-351" y="397" on="1"/>
        <pt x="-309" y="397" on="0"/>
        <pt x="-256" y="367" on="0"/>
        <pt x="-224" y="338" on="1"/>
        <pt x="-202" y="317" on="0"/>
        <pt x="-171" y="297" on="0"/>
        <pt x="-151" y="297" on="1"/>
        <pt x="-131" y="297" on="0"/>
        <pt x="-100" y="317" on="0"/>
        <pt x="-78" y="338" on="1"/>
        <pt x="-48" y="366" on="0"/>
        <pt x="7" y="397" on="0"/>
        <pt x="49" y="397" on="1"/>
        <pt x="92" y="397" on="0"/>
        <pt x="147" y="366" on="0"/>
        <pt x="177" y="337" on="1"/>
        <pt x="201" y="315" on="0"/>
        <pt x="229" y="297" on="0"/>
        <pt x="249" y="297" on="1"/>
        <pt x="268" y="297" on="0"/>
        <pt x="298" y="314" on="0"/>
        <pt x="318" y="331" on="1"/>
        <pt x="341" y="351" on="0"/>
        <pt x="382" y="375" on="0"/>
        <pt x="412" y="379" on="1"/>
        <pt x="386" y="408" on="1"/>
        <pt x="243" y="564" on="1"/>
        <pt x="306" y="618" on="1"/>
      </contour>
    </TTGlyph>
    <TTGlyph name="asciitilde_at.liga" xMin="-557" yMin="-91" xMax="586" yMax="700">
      <contour>
        <pt x="459" y="700" on="0"/>
        <pt x="586" y="471" on="0"/>
        <pt x="586" y="285" on="1"/>
        <pt x="586" y="151" on="0"/>
        <pt x="562" y="-10" on="0"/>
        <pt x="498" y="-91" on="0"/>
        <pt x="439" y="-91" on="1"/>
        <pt x="400" y="-91" on="0"/>
        <pt x="346" y="-43" on="0"/>
        <pt x="320" y="24" on="0"/>
        <pt x="321" y="52" on="1"/>
        <pt x="317" y="52" on="1"/>
        <pt x="277" y="-46" on="0"/>
        <pt x="180" y="-46" on="1"/>
        <pt x="102" y="-46" on="0"/>
        <pt x="30" y="77" on="0"/>
        <pt x="30" y="183" on="1"/>
        <pt x="30" y="312" on="0"/>
        <pt x="131" y="441" on="0"/>
        <pt x="226" y="441" on="1"/>
        <pt x="263" y="441" on="0"/>
        <pt x="327" y="425" on="0"/>
        <pt x="367" y="404" on="1"/>
        <pt x="367" y="108" on="1"/>
        <pt x="367" y="34" on="0"/>
        <pt x="404" y="-23" on="0"/>
        <pt x="437" y="-23" on="1"/>
        <pt x="466" y="-23" on="0"/>
        <pt x="493" y="50" on="0"/>
        <pt x="499" y="165" on="0"/>
        <pt x="499" y="268" on="1"/>
        <pt x="499" y="382" on="0"/>
        <pt x="468" y="535" on="0"/>
        <pt x="374" y="626" on="0"/>
        <pt x="285" y="626" on="1"/>
        <pt x="227" y="626" on="0"/>
        <pt x="94" y="599" on="0"/>
        <pt x="57" y="554" on="1"/>
        <pt x="31" y="524" on="0"/>
        <pt x="-6" y="447" on="0"/>
        <pt x="-26" y="395" on="1"/>
        <pt x="-39" y="360" on="0"/>
        <pt x="-43" y="354" on="1"/>
        <pt x="-73" y="298" on="0"/>
        <pt x="-146" y="228" on="0"/>
        <pt x="-205" y="228" on="1"/>
        <pt x="-239" y="228" on="0"/>
        <pt x="-288" y="257" on="0"/>
        <pt x="-321" y="285" on="1"/>
        <pt x="-344" y="307" on="0"/>
        <pt x="-378" y="328" on="0"/>
        <pt x="-398" y="328" on="1"/>
        <pt x="-428" y="328" on="0"/>
        <pt x="-475" y="283" on="0"/>
        <pt x="-497" y="243" on="1"/>
        <pt x="-557" y="273" on="1"/>
        <pt x="-527" y="331" on="0"/>
        <pt x="-454" y="401" on="0"/>
        <pt x="-395" y="401" on="1"/>
        <pt x="-358" y="401" on="0"/>
        <pt x="-306" y="370" on="0"/>
        <pt x="-274" y="342" on="1"/>
        <pt x="-251" y="321" on="0"/>
        <pt x="-220" y="301" on="0"/>
        <pt x="-202" y="301" on="1"/>
        <pt x="-149" y="301" on="0"/>
        <pt x="-103" y="386" on="1"/>
        <pt x="-101" y="389" on="0"/>
        <pt x="-82" y="434" on="1"/>
        <pt x="-59" y="490" on="0"/>
        <pt x="-19" y="572" on="0"/>
        <pt x="7" y="605" on="1"/>
        <pt x="53" y="664" on="0"/>
        <pt x="212" y="700" on="0"/>
        <pt x="284" y="700" on="1"/>
      </contour>
      <contour>
        <pt x="293" y="365" on="1"/>
        <pt x="264" y="379" on="0"/>
        <pt x="229" y="379" on="1"/>
        <pt x="163" y="379" on="0"/>
        <pt x="111" y="285" on="0"/>
        <pt x="111" y="183" on="1"/>
        <pt x="111" y="104" on="0"/>
        <pt x="147" y="17" on="0"/>
        <pt x="190" y="17" on="1"/>
        <pt x="222" y="17" on="0"/>
        <pt x="263" y="46" on="0"/>
        <pt x="282" y="79" on="0"/>
        <pt x="293" y="105" on="1"/>
      </contour>
    </TTGlyph>
    <TTGlyph name="asciitilde_equal.liga" xMin="-357" yMin="180" xMax="357" yMax="502">
      <contour>
        <pt x="-107" y="502" on="0"/>
        <pt x="-33" y="470" on="0"/>
        <pt x="20" y="438" on="1"/>
        <pt x="61" y="413" on="0"/>
        <pt x="110" y="390" on="0"/>
        <pt x="134" y="390" on="1"/>
        <pt x="185" y="390" on="0"/>
        <pt x="277" y="439" on="0"/>
        <pt x="297" y="475" on="1"/>
        <pt x="357" y="446" on="1"/>
        <pt x="331" y="397" on="0"/>
        <pt x="210" y="320" on="0"/>
        <pt x="131" y="320" on="1"/>
        <pt x="91" y="320" on="0"/>
        <pt x="18" y="351" on="0"/>
        <pt x="-35" y="382" on="1"/>
        <pt x="-74" y="406" on="0"/>
        <pt x="-128" y="431" on="0"/>
        <pt x="-153" y="431" on="1"/>
        <pt x="-200" y="431" on="0"/>
        <pt x="-275" y="375" on="0"/>
        <pt x="-297" y="335" on="1"/>
        <pt x="-357" y="363" on="1"/>
        <pt x="-328" y="419" on="0"/>
        <pt x="-226" y="502" on="0"/>
        <pt x="-150" y="502" on="1"/>
      </contour>
      <contour>
        <pt x="344" y="180" on="1"/>
        <pt x="-344" y="180" on="1"/>
        <pt x="-344" y="252" on="1"/>
        <pt x="344" y="252" on="1"/>
      </contour>
    </TTGlyph>
    <TTGlyph name="asciitilde_greater.liga" xMin="-425" yMin="8" xMax="468" yMax="618">
      <contour>
        <pt x="468" y="313" on="1"/>
        <pt x="197" y="8" on="1"/>
        <pt x="134" y="62" on="1"/>
        <pt x="277" y="218" on="1"/>
        <pt x="312" y="257" on="0"/>
        <pt x="341" y="276" on="1"/>
        <pt x="341" y="299" on="1"/>
        <pt x="316" y="296" on="0"/>
        <pt x="283" y="279" on="0"/>
        <pt x="261" y="262" on="1"/>
        <pt x="234" y="241" on="0"/>
        <pt x="185" y="219" on="0"/>
        <pt x="143" y="219" on="1"/>
        <pt x="100" y="219" on="0"/>
        <pt x="45" y="252" on="0"/>
        <pt x="15" y="282" on="1"/>
        <pt x="-8" y="305" on="0"/>
        <pt x="-37" y="325" on="0"/>
        <pt x="-57" y="325" on="1"/>
        <pt x="-77" y="325" on="0"/>
        <pt x="-105" y="307" on="0"/>
        <pt x="-129" y="285" on="1"/>
        <pt x="-159" y="256" on="0"/>
        <pt x="-214" y="225" on="0"/>
        <pt x="-257" y="225" on="1"/>
        <pt x="-291" y="225" on="0"/>
        <pt x="-361" y="263" on="0"/>
        <pt x="-415" y="318" on="0"/>
        <pt x="-425" y="344" on="1"/>
        <pt x="-354" y="379" on="1"/>
        <pt x="-336" y="343" on="0"/>
        <pt x="-284" y="297" on="0"/>
        <pt x="-257" y="297" on="1"/>
        <pt x="-237" y="297" on="0"/>
        <pt x="-209" y="315" on="0"/>
        <pt x="-185" y="337" on="1"/>
        <pt x="-155" y="366" on="0"/>
        <pt x="-100" y="397" on="0"/>
        <pt x="-57" y="397" on="1"/>
        <pt x="-14" y="397" on="0"/>
        <pt x="41" y="366" on="0"/>
        <pt x="71" y="337" on="1"/>
        <pt x="95" y="315" on="0"/>
        <pt x="123" y="297" on="0"/>
        <pt x="143" y="297" on="1"/>
        <pt x="162" y="297" on="0"/>
        <pt x="192" y="314" on="0"/>
        <pt x="212" y="331" on="1"/>
        <pt x="235" y="351" on="0"/>
        <pt x="275" y="374" on="0"/>
        <pt x="304" y="379" on="1"/>
        <pt x="295" y="387" on="0"/>
        <pt x="277" y="408" on="1"/>
        <pt x="134" y="564" on="1"/>
        <pt x="197" y="618" on="1"/>
      </contour>
    </TTGlyph>
    <TTGlyph name="asciitilde_hyphen.liga" xMin="-477" yMin="225" xMax="475" yMax="398">
      <contour>
        <pt x="-477" y="272" on="1"/>
        <pt x="-447" y="328" on="0"/>
        <pt x="-374" y="398" on="0"/>
        <pt x="-315" y="398" on="1"/>
        <pt x="-281" y="398" on="0"/>
        <pt x="-232" y="369" on="0"/>
        <pt x="-199" y="341" on="1"/>
        <pt x="-176" y="319" on="0"/>
        <pt x="-142" y="298" on="0"/>
        <pt x="-122" y="298" on="1"/>
        <pt x="-102" y="298" on="0"/>
        <pt x="-75" y="310" on="0"/>
        <pt x="-55" y="322" on="1"/>
        <pt x="-35" y="335" on="0"/>
        <pt x="0" y="349" on="0"/>
        <pt x="26" y="349" on="1"/>
        <pt x="475" y="349" on="1"/>
        <pt x="475" y="277" on="1"/>
        <pt x="42" y="277" on="1"/>
        <pt x="15" y="277" on="0"/>
        <pt x="-19" y="264" on="0"/>
        <pt x="-40" y="251" on="1"/>
        <pt x="-62" y="238" on="0"/>
        <pt x="-98" y="225" on="0"/>
        <pt x="-125" y="225" on="1"/>
        <pt x="-162" y="225" on="0"/>
        <pt x="-214" y="256" on="0"/>
        <pt x="-246" y="284" on="1"/>
        <pt x="-269" y="305" on="0"/>
        <pt x="-300" y="325" on="0"/>
        <pt x="-318" y="325" on="1"/>
        <pt x="-371" y="325" on="0"/>
        <pt x="-417" y="240" on="1"/>
      </contour>
    </TTGlyph>
    <TTGlyph name="asterisk" xMin="48" yMin="98" xMax="552" yMax="578">
      <contour>
        <pt x="264" y="376" on="1"/>
        <pt x="74" y="444" on="1"/>
        <pt x="48" y="365" on="1"/>
        <pt x="242" y="307" on="1"/>
        <pt x="119" y="147" on="1"/>
        <pt x="186" y="98" on="1"/>
        <pt x="300" y="266" on="1"/>
        <pt x="414" y="98" on="1"/>
        <pt x="481" y="147" on="1"/>
        <pt x="358" y="307" on="1"/>
        <pt x="552" y="365" on="1"/>
        <pt x="526" y="444" on="1"/>
        <pt x="336" y="376" on="1"/>
        <pt x="342" y="578" on="1"/>
        <pt x="258" y="578" on="1"/>
      </contour>
    </TTGlyph>
    <TTGlyph name="asterisk.lc" xMin="48" yMin="58" xMax="552" yMax="538">
      <component glyphName="asterisk" x="0" y="-40" flags="0x1004"/>
    </TTGlyph>
    <TTGlyph name="asterisk_asterisk.liga" xMin="-527" yMin="98" xMax="527" yMax="578">
      <component glyphName="asterisk" x="-575" y="0" flags="0x1000"/>
      <component glyphName="asterisk" x="-25" y="0" flags="0x1000"/>
    </TTGlyph>
    <TTGlyph name="asterisk_asterisk_asterisk.liga" xMin="-1052" yMin="98" xMax="452" yMax="728">
      <component glyphName="asterisk" x="-600" y="150" flags="0x1004"/>
      <component glyphName="asterisk" x="-1100" y="0" flags="0x1000"/>
      <component glyphName="asterisk" x="-100" y="0" flags="0x1000"/>
    </TTGlyph>
    <TTGlyph name="asterisk_greater.liga" xMin="-556" yMin="5" xMax="463" yMax="631">
      <contour>
        <pt x="-204" y="631" on="1"/>
        <pt x="-215" y="371" on="1"/>
        <pt x="31" y="459" on="1"/>
        <pt x="56" y="375" on="1"/>
        <pt x="-192" y="306" on="1"/>
        <pt x="-26" y="107" on="1"/>
        <pt x="-99" y="51" on="1"/>
        <pt x="-247" y="267" on="1"/>
        <pt x="-380" y="57" on="1"/>
        <pt x="-455" y="109" on="1"/>
        <pt x="-303" y="306" on="1"/>
        <pt x="-556" y="374" on="1"/>
        <pt x="-526" y="459" on="1"/>
        <pt x="-282" y="370" on="1"/>
        <pt x="-293" y="631" on="1"/>
      </contour>
      <contour>
        <pt x="463" y="356" on="1"/>
        <pt x="463" y="270" on="1"/>
        <pt x="38" y="5" on="1"/>
        <pt x="38" y="95" on="1"/>
        <pt x="391" y="313" on="1"/>
        <pt x="38" y="530" on="1"/>
        <pt x="38" y="619" on="1"/>
      </contour>
    </TTGlyph>
    <TTGlyph name="asterisk_slash.liga" xMin="-516" yMin="-103" xMax="464" yMax="809">
      <component glyphName="asterisk" x="-564" y="24" flags="0x1004"/>
      <component glyphName="slash" x="-83" y="0" flags="0x1000"/>
    </TTGlyph>
    <TTGlyph name="at" xMin="9" yMin="-91" xMax="586" yMax="700">
      <contour>
        <pt x="459" y="700" on="0"/>
        <pt x="586" y="471" on="0"/>
        <pt x="586" y="285" on="1"/>
        <pt x="586" y="151" on="0"/>
        <pt x="562" y="-10" on="0"/>
        <pt x="498" y="-91" on="0"/>
        <pt x="439" y="-91" on="1"/>
        <pt x="400" y="-91" on="0"/>
        <pt x="346" y="-43" on="0"/>
        <pt x="320" y="24" on="0"/>
        <pt x="321" y="52" on="1"/>
        <pt x="317" y="52" on="1"/>
        <pt x="277" y="-46" on="0"/>
        <pt x="180" y="-46" on="1"/>
        <pt x="102" y="-46" on="0"/>
        <pt x="30" y="77" on="0"/>
        <pt x="30" y="183" on="1"/>
        <pt x="30" y="312" on="0"/>
        <pt x="131" y="441" on="0"/>
        <pt x="226" y="441" on="1"/>
        <pt x="263" y="441" on="0"/>
        <pt x="327" y="425" on="0"/>
        <pt x="367" y="404" on="1"/>
        <pt x="367" y="108" on="1"/>
        <pt x="367" y="34" on="0"/>
        <pt x="404" y="-23" on="0"/>
        <pt x="437" y="-23" on="1"/>
        <pt x="466" y="-23" on="0"/>
        <pt x="493" y="50" on="0"/>
        <pt x="499" y="165" on="0"/>
        <pt x="499" y="268" on="1"/>
        <pt x="499" y="382" on="0"/>
        <pt x="468" y="535" on="0"/>
        <pt x="374" y="626" on="0"/>
        <pt x="285" y="626" on="1"/>
        <pt x="228" y="626" on="0"/>
        <pt x="116" y="586" on="0"/>
        <pt x="58" y="534" on="1"/>
        <pt x="9" y="591" on="1"/>
        <pt x="74" y="647" on="0"/>
        <pt x="214" y="700" on="0"/>
        <pt x="284" y="700" on="1"/>
      </contour>
      <contour>
        <pt x="163" y="379" on="0"/>
        <pt x="111" y="285" on="0"/>
        <pt x="111" y="183" on="1"/>
        <pt x="111" y="104" on="0"/>
        <pt x="147" y="17" on="0"/>
        <pt x="190" y="17" on="1"/>
        <pt x="222" y="17" on="0"/>
        <pt x="263" y="46" on="0"/>
        <pt x="282" y="79" on="0"/>
        <pt x="293" y="105" on="1"/>
        <pt x="293" y="365" on="1"/>
        <pt x="264" y="379" on="0"/>
        <pt x="229" y="379" on="1"/>
      </contour>
    </TTGlyph>
    <TTGlyph name="atilde" xMin="69" yMin="-12" xMax="521" yMax="772">
      <component glyphName="a" x="0" y="0" flags="0x1000"/>
      <component glyphName="tilde" x="-8" y="0" flags="0x1000"/>
    </TTGlyph>
    <TTGlyph name="b" xMin="100" yMin="-11" xMax="532" yMax="749">
      <contour>
        <pt x="245" y="538" on="0"/>
        <pt x="335" y="538" on="1"/>
        <pt x="436" y="538" on="0"/>
        <pt x="532" y="394" on="0"/>
        <pt x="532" y="264" on="1"/>
        <pt x="532" y="140" on="0"/>
        <pt x="422" y="-11" on="0"/>
        <pt x="323" y="-11" on="1"/>
        <pt x="232" y="-11" on="0"/>
        <pt x="180" y="55" on="1"/>
        <pt x="174" y="0" on="1"/>
        <pt x="100" y="0" on="1"/>
        <pt x="100" y="739" on="1"/>
        <pt x="184" y="749" on="1"/>
        <pt x="184" y="458" on="1"/>
      </contour>
      <contour>
        <pt x="370" y="57" on="0"/>
        <pt x="441" y="161" on="0"/>
        <pt x="441" y="264" on="1"/>
        <pt x="441" y="366" on="0"/>
        <pt x="378" y="470" on="0"/>
        <pt x="316" y="470" on="1"/>
        <pt x="276" y="470" on="0"/>
        <pt x="209" y="422" on="0"/>
        <pt x="184" y="386" on="1"/>
        <pt x="184" y="125" on="1"/>
        <pt x="205" y="93" on="0"/>
        <pt x="267" y="57" on="0"/>
        <pt x="304" y="57" on="1"/>
      </contour>
    </TTGlyph>
    <TTGlyph name="backslash" xMin="53" yMin="-103" xMax="547" yMax="809">
      <contour>
        <pt x="119" y="809" on="1"/>
        <pt x="547" y="-73" on="1"/>
        <pt x="479" y="-103" on="1"/>
        <pt x="53" y="777" on="1"/>
      </contour>
    </TTGlyph>
    <TTGlyph name="backslash_backslash.liga" xMin="-497" yMin="-103" xMax="497" yMax="809">
      <component glyphName="backslash" x="-550" y="0" flags="0x1000"/>
      <component glyphName="backslash" x="-50" y="0" flags="0x1000"/>
    </TTGlyph>
    <TTGlyph name="backslash_backslash_backslash.liga" xMin="-1047" yMin="-103" xMax="447" yMax="809">
      <component glyphName="backslash" x="-1100" y="0" flags="0x1000"/>
      <component glyphName="backslash" x="-600" y="0" flags="0x1000"/>
      <component glyphName="backslash" x="-100" y="0" flags="0x1000"/>
    </TTGlyph>
    <TTGlyph name="bar" xMin="262" yMin="-102" xMax="337" yMax="807">
      <contour>
        <pt x="337" y="-102" on="1"/>
        <pt x="262" y="-102" on="1"/>
        <pt x="262" y="807" on="1"/>
        <pt x="337" y="807" on="1"/>
      </contour>
    </TTGlyph>
    <TTGlyph name="bar_bar.liga" xMin="-218" yMin="-102" xMax="217" yMax="807">
      <component glyphName="bar" x="-480" y="0" flags="0x1000"/>
      <component glyphName="bar" x="-120" y="0" flags="0x1000"/>
    </TTGlyph>
    <TTGlyph name="bar_bar_bar_greater.liga" xMin="-1307" yMin="-89" xMax="246" yMax="712">
      <contour>
        <pt x="-1231" y="-89" on="1"/>
        <pt x="-1307" y="-89" on="1"/>
        <pt x="-1307" y="712" on="1"/>
        <pt x="-1231" y="712" on="1"/>
      </contour>
      <contour>
        <pt x="-771" y="-89" on="1"/>
        <pt x="-847" y="-89" on="1"/>
        <pt x="-847" y="712" on="1"/>
        <pt x="-771" y="712" on="1"/>
      </contour>
      <contour>
        <pt x="246" y="356" on="1"/>
        <pt x="246" y="270" on="1"/>
        <pt x="-331" y="-89" on="1"/>
        <pt x="-407" y="-89" on="1"/>
        <pt x="-407" y="712" on="1"/>
        <pt x="-331" y="712" on="1"/>
      </contour>
      <contour>
        <pt x="174" y="313" on="1"/>
        <pt x="-331" y="623" on="1"/>
        <pt x="-331" y="1" on="1"/>
      </contour>
    </TTGlyph>
    <TTGlyph name="bar_bar_equal.liga" xMin="-938" yMin="-102" xMax="394" yMax="724">
      <contour>
        <pt x="-863" y="-102" on="1"/>
        <pt x="-938" y="-102" on="1"/>
        <pt x="-938" y="724" on="1"/>
        <pt x="-863" y="724" on="1"/>
      </contour>
      <contour>
        <pt x="-513" y="-102" on="1"/>
        <pt x="-588" y="-102" on="1"/>
        <pt x="-588" y="724" on="1"/>
        <pt x="-513" y="724" on="1"/>
      </contour>
      <contour>
        <pt x="394" y="370" on="1"/>
        <pt x="-294" y="370" on="1"/>
        <pt x="-294" y="442" on="1"/>
        <pt x="394" y="442" on="1"/>
      </contour>
      <contour>
        <pt x="394" y="180" on="1"/>
        <pt x="-294" y="180" on="1"/>
        <pt x="-294" y="252" on="1"/>
        <pt x="394" y="252" on="1"/>
      </contour>
    </TTGlyph>
    <TTGlyph name="bar_bar_greater.liga" xMin="-756" yMin="-89" xMax="296" yMax="712">
      <contour>
        <pt x="-680" y="-89" on="1"/>
        <pt x="-756" y="-89" on="1"/>
        <pt x="-756" y="712" on="1"/>
        <pt x="-680" y="712" on="1"/>
      </contour>
      <contour>
        <pt x="296" y="356" on="1"/>
        <pt x="296" y="270" on="1"/>
        <pt x="-281" y="-89" on="1"/>
        <pt x="-357" y="-89" on="1"/>
        <pt x="-357" y="712" on="1"/>
        <pt x="-281" y="712" on="1"/>
      </contour>
      <contour>
        <pt x="224" y="313" on="1"/>
        <pt x="-281" y="623" on="1"/>
        <pt x="-281" y="1" on="1"/>
      </contour>
    </TTGlyph>
    <TTGlyph name="bar_equal.liga" xMin="-338" yMin="-102" xMax="394" yMax="724">
      <contour>
        <pt x="-263" y="-102" on="1"/>
        <pt x="-338" y="-102" on="1"/>
        <pt x="-338" y="724" on="1"/>
        <pt x="-263" y="724" on="1"/>
      </contour>
      <contour>
        <pt x="394" y="370" on="1"/>
        <pt x="-115" y="370" on="1"/>
        <pt x="-115" y="442" on="1"/>
        <pt x="394" y="442" on="1"/>
      </contour>
      <contour>
        <pt x="394" y="180" on="1"/>
        <pt x="-115" y="180" on="1"/>
        <pt x="-115" y="252" on="1"/>
        <pt x="394" y="252" on="1"/>
      </contour>
    </TTGlyph>
    <TTGlyph name="bar_greater.liga" xMin="-307" yMin="-89" xMax="346" yMax="712">
      <contour>
        <pt x="346" y="356" on="1"/>
        <pt x="346" y="270" on="1"/>
        <pt x="-231" y="-89" on="1"/>
        <pt x="-307" y="-89" on="1"/>
        <pt x="-307" y="712" on="1"/>
        <pt x="-231" y="712" on="1"/>
      </contour>
      <contour>
        <pt x="274" y="313" on="1"/>
        <pt x="-231" y="623" on="1"/>
        <pt x="-231" y="1" on="1"/>
      </contour>
    </TTGlyph>
    <TTGlyph name="beta" xMin="91" yMin="-212" xMax="547" yMax="748">
      <contour>
        <pt x="547" y="383" on="0"/>
        <pt x="547" y="202" on="1"/>
        <pt x="547" y="139" on="0"/>
        <pt x="486" y="42" on="0"/>
        <pt x="384" y="-11" on="0"/>
        <pt x="325" y="-11" on="1"/>
        <pt x="241" y="-11" on="0"/>
        <pt x="175" y="40" on="1"/>
        <pt x="175" y="-201" on="1"/>
        <pt x="91" y="-212" on="1"/>
        <pt x="91" y="540" on="1"/>
        <pt x="91" y="637" on="0"/>
        <pt x="198" y="748" on="0"/>
        <pt x="292" y="748" on="1"/>
        <pt x="347" y="748" on="0"/>
        <pt x="439" y="706" on="0"/>
        <pt x="493" y="625" on="0"/>
        <pt x="493" y="571" on="1"/>
        <pt x="493" y="496" on="0"/>
        <pt x="408" y="412" on="0"/>
        <pt x="342" y="404" on="1"/>
      </contour>
      <contour>
        <pt x="379" y="58" on="0"/>
        <pt x="461" y="134" on="0"/>
        <pt x="461" y="202" on="1"/>
        <pt x="461" y="283" on="0"/>
        <pt x="369" y="366" on="0"/>
        <pt x="281" y="366" on="1"/>
        <pt x="227" y="366" on="1"/>
        <pt x="237" y="431" on="1"/>
        <pt x="290" y="431" on="1"/>
        <pt x="346" y="431" on="0"/>
        <pt x="415" y="496" on="0"/>
        <pt x="415" y="563" on="1"/>
        <pt x="415" y="622" on="0"/>
        <pt x="348" y="682" on="0"/>
        <pt x="293" y="682" on="1"/>
        <pt x="175" y="682" on="0"/>
        <pt x="175" y="539" on="1"/>
        <pt x="175" y="109" on="1"/>
        <pt x="202" y="82" on="0"/>
        <pt x="271" y="58" on="0"/>
        <pt x="317" y="58" on="1"/>
      </contour>
    </TTGlyph>
    <TTGlyph name="block" xMin="0" yMin="-500" xMax="600" yMax="1000">
      <contour>
        <pt x="600" y="-500" on="1"/>
        <pt x="0" y="-500" on="1"/>
        <pt x="0" y="1000" on="1"/>
        <pt x="600" y="1000" on="1"/>
      </contour>
    </TTGlyph>
    <TTGlyph name="braceleft" xMin="117" yMin="-136" xMax="451" yMax="836">
      <contour>
        <pt x="451" y="769" on="1"/>
        <pt x="318" y="769" on="0"/>
        <pt x="326" y="689" on="1"/>
        <pt x="346" y="484" on="1"/>
        <pt x="347" y="475" on="0"/>
        <pt x="347" y="458" on="1"/>
        <pt x="347" y="410" on="0"/>
        <pt x="301" y="359" on="0"/>
        <pt x="253" y="350" on="1"/>
        <pt x="302" y="341" on="0"/>
        <pt x="347" y="292" on="0"/>
        <pt x="347" y="243" on="1"/>
        <pt x="347" y="226" on="0"/>
        <pt x="346" y="216" on="1"/>
        <pt x="326" y="11" on="1"/>
        <pt x="322" y="-33" on="0"/>
        <pt x="390" y="-69" on="0"/>
        <pt x="451" y="-69" on="1"/>
        <pt x="451" y="-136" on="1"/>
        <pt x="361" y="-136" on="0"/>
        <pt x="247" y="-74" on="0"/>
        <pt x="247" y="0" on="1"/>
        <pt x="247" y="13" on="0"/>
        <pt x="248" y="20" on="1"/>
        <pt x="269" y="210" on="1"/>
        <pt x="270" y="217" on="0"/>
        <pt x="270" y="230" on="1"/>
        <pt x="270" y="274" on="0"/>
        <pt x="204" y="316" on="0"/>
        <pt x="117" y="316" on="1"/>
        <pt x="117" y="384" on="1"/>
        <pt x="204" y="384" on="0"/>
        <pt x="270" y="425" on="0"/>
        <pt x="270" y="469" on="1"/>
        <pt x="270" y="481" on="0"/>
        <pt x="269" y="488" on="1"/>
        <pt x="248" y="680" on="1"/>
        <pt x="247" y="687" on="0"/>
        <pt x="247" y="700" on="1"/>
        <pt x="247" y="774" on="0"/>
        <pt x="361" y="836" on="0"/>
        <pt x="451" y="836" on="1"/>
      </contour>
    </TTGlyph>
    <TTGlyph name="braceleft.case" xMin="117" yMin="-146" xMax="451" yMax="826">
      <component glyphName="braceleft" x="0" y="-10" flags="0x1004"/>
    </TTGlyph>
    <TTGlyph name="braceright" xMin="149" yMin="-136" xMax="483" yMax="836">
      <contour>
        <pt x="239" y="836" on="0"/>
        <pt x="353" y="774" on="0"/>
        <pt x="353" y="700" on="1"/>
        <pt x="353" y="687" on="0"/>
        <pt x="352" y="680" on="1"/>
        <pt x="331" y="488" on="1"/>
        <pt x="330" y="483" on="0"/>
        <pt x="330" y="473" on="1"/>
        <pt x="330" y="428" on="0"/>
        <pt x="401" y="384" on="0"/>
        <pt x="483" y="384" on="1"/>
        <pt x="483" y="316" on="1"/>
        <pt x="400" y="316" on="0"/>
        <pt x="330" y="272" on="0"/>
        <pt x="330" y="226" on="1"/>
        <pt x="330" y="216" on="0"/>
        <pt x="331" y="210" on="1"/>
        <pt x="352" y="20" on="1"/>
        <pt x="353" y="13" on="0"/>
        <pt x="353" y="0" on="1"/>
        <pt x="353" y="-74" on="0"/>
        <pt x="239" y="-136" on="0"/>
        <pt x="149" y="-136" on="1"/>
        <pt x="149" y="-69" on="1"/>
        <pt x="210" y="-69" on="0"/>
        <pt x="278" y="-33" on="0"/>
        <pt x="274" y="11" on="1"/>
        <pt x="254" y="216" on="1"/>
        <pt x="252" y="236" on="0"/>
        <pt x="252" y="243" on="1"/>
        <pt x="252" y="293" on="0"/>
        <pt x="302" y="341" on="0"/>
        <pt x="358" y="349" on="1"/>
        <pt x="304" y="359" on="0"/>
        <pt x="253" y="410" on="0"/>
        <pt x="253" y="459" on="1"/>
        <pt x="253" y="475" on="0"/>
        <pt x="254" y="484" on="1"/>
        <pt x="274" y="689" on="1"/>
        <pt x="282" y="769" on="0"/>
        <pt x="149" y="769" on="1"/>
        <pt x="149" y="836" on="1"/>
      </contour>
    </TTGlyph>
    <TTGlyph name="braceright.case" xMin="149" yMin="-146" xMax="483" yMax="826">
      <component glyphName="braceright" x="0" y="-10" flags="0x1004"/>
    </TTGlyph>
    <TTGlyph name="bracketleft" xMin="184" yMin="-115" xMax="435" yMax="815">
      <contour>
        <pt x="184" y="815" on="1"/>
        <pt x="435" y="815" on="1"/>
        <pt x="435" y="743" on="1"/>
        <pt x="264" y="743" on="1"/>
        <pt x="264" y="-44" on="1"/>
        <pt x="435" y="-44" on="1"/>
        <pt x="435" y="-115" on="1"/>
        <pt x="184" y="-115" on="1"/>
      </contour>
    </TTGlyph>
    <TTGlyph name="bracketleft.case" xMin="184" yMin="-125" xMax="435" yMax="805">
      <component glyphName="bracketleft" x="0" y="-10" flags="0x1004"/>
    </TTGlyph>
    <TTGlyph name="bracketright" xMin="165" yMin="-115" xMax="416" yMax="815">
      <contour>
        <pt x="416" y="-115" on="1"/>
        <pt x="165" y="-115" on="1"/>
        <pt x="165" y="-44" on="1"/>
        <pt x="336" y="-44" on="1"/>
        <pt x="336" y="743" on="1"/>
        <pt x="165" y="743" on="1"/>
        <pt x="165" y="815" on="1"/>
        <pt x="416" y="815" on="1"/>
      </contour>
    </TTGlyph>
    <TTGlyph name="bracketright.case" xMin="165" yMin="-125" xMax="416" yMax="805">
      <component glyphName="bracketright" x="0" y="-10" flags="0x1004"/>
    </TTGlyph>
    <TTGlyph name="bracketright_numbersign.liga" xMin="-435" yMin="-115" xMax="487" yMax="815">
      <contour>
        <pt x="398" y="456" on="1"/>
        <pt x="369" y="234" on="1"/>
        <pt x="450" y="234" on="1"/>
        <pt x="450" y="170" on="1"/>
        <pt x="359" y="170" on="1"/>
        <pt x="338" y="0" on="1"/>
        <pt x="267" y="0" on="1"/>
        <pt x="289" y="170" on="1"/>
        <pt x="144" y="170" on="1"/>
        <pt x="121" y="0" on="1"/>
        <pt x="50" y="0" on="1"/>
        <pt x="72" y="170" on="1"/>
        <pt x="-184" y="170" on="1"/>
        <pt x="-184" y="-115" on="1"/>
        <pt x="-435" y="-115" on="1"/>
        <pt x="-435" y="-44" on="1"/>
        <pt x="-264" y="-44" on="1"/>
        <pt x="-264" y="743" on="1"/>
        <pt x="-435" y="743" on="1"/>
        <pt x="-435" y="815" on="1"/>
        <pt x="-184" y="815" on="1"/>
        <pt x="-184" y="522" on="1"/>
        <pt x="119" y="522" on="1"/>
        <pt x="142" y="689" on="1"/>
        <pt x="213" y="689" on="1"/>
        <pt x="190" y="522" on="1"/>
        <pt x="336" y="522" on="1"/>
        <pt x="359" y="689" on="1"/>
        <pt x="430" y="689" on="1"/>
        <pt x="407" y="522" on="1"/>
        <pt x="487" y="522" on="1"/>
        <pt x="487" y="456" on="1"/>
      </contour>
      <contour>
        <pt x="111" y="456" on="1"/>
        <pt x="-184" y="456" on="1"/>
        <pt x="-184" y="234" on="1"/>
        <pt x="80" y="234" on="1"/>
      </contour>
      <contour>
        <pt x="328" y="456" on="1"/>
        <pt x="181" y="456" on="1"/>
        <pt x="152" y="234" on="1"/>
        <pt x="297" y="234" on="1"/>
      </contour>
    </TTGlyph>
    <TTGlyph name="breve" xMin="150" yMin="630" xMax="448" yMax="779">
      <contour>
        <pt x="255" y="630" on="0"/>
        <pt x="191" y="671" on="0"/>
        <pt x="154" y="733" on="0"/>
        <pt x="150" y="766" on="1"/>
        <pt x="208" y="779" on="1"/>
        <pt x="233" y="694" on="0"/>
        <pt x="298" y="694" on="1"/>
        <pt x="333" y="694" on="0"/>
        <pt x="379" y="739" on="0"/>
        <pt x="391" y="779" on="1"/>
        <pt x="448" y="766" on="1"/>
        <pt x="444" y="733" on="0"/>
        <pt x="406" y="671" on="0"/>
        <pt x="341" y="630" on="0"/>
        <pt x="298" y="630" on="1"/>
      </contour>
    </TTGlyph>
    <TTGlyph name="breve.case" xMin="152" yMin="759" xMax="450" yMax="891">
      <contour>
        <pt x="241" y="759" on="0"/>
        <pt x="157" y="824" on="0"/>
        <pt x="152" y="878" on="1"/>
        <pt x="209" y="891" on="1"/>
        <pt x="234" y="824" on="0"/>
        <pt x="299" y="824" on="1"/>
        <pt x="333" y="824" on="0"/>
        <pt x="381" y="860" on="0"/>
        <pt x="392" y="891" on="1"/>
        <pt x="450" y="878" on="1"/>
        <pt x="444" y="824" on="0"/>
        <pt x="358" y="759" on="0"/>
        <pt x="299" y="759" on="1"/>
      </contour>
    </TTGlyph>
    <TTGlyph name="brevecy" xMin="152" yMin="647" xMax="450" yMax="772">
      <contour>
        <pt x="240" y="647" on="0"/>
        <pt x="158" y="706" on="0"/>
        <pt x="152" y="759" on="1"/>
        <pt x="209" y="772" on="1"/>
        <pt x="220" y="740" on="0"/>
        <pt x="263" y="712" on="0"/>
        <pt x="299" y="712" on="1"/>
        <pt x="335" y="712" on="0"/>
        <pt x="381" y="740" on="0"/>
        <pt x="392" y="772" on="1"/>
        <pt x="450" y="759" on="1"/>
        <pt x="444" y="706" on="0"/>
        <pt x="359" y="647" on="0"/>
        <pt x="299" y="647" on="1"/>
      </contour>
    </TTGlyph>
    <TTGlyph name="brevecy.case" xMin="151" yMin="773" xMax="449" yMax="898">
      <contour>
        <pt x="239" y="773" on="0"/>
        <pt x="157" y="832" on="0"/>
        <pt x="151" y="885" on="1"/>
        <pt x="208" y="898" on="1"/>
        <pt x="219" y="866" on="0"/>
        <pt x="262" y="838" on="0"/>
        <pt x="298" y="838" on="1"/>
        <pt x="334" y="838" on="0"/>
        <pt x="380" y="866" on="0"/>
        <pt x="391" y="898" on="1"/>
        <pt x="449" y="885" on="1"/>
        <pt x="443" y="832" on="0"/>
        <pt x="358" y="773" on="0"/>
        <pt x="298" y="773" on="1"/>
      </contour>
    </TTGlyph>
    <TTGlyph name="brokenbar" xMin="262" yMin="-102" xMax="337" yMax="807">
      <contour>
        <pt x="337" y="452" on="1"/>
        <pt x="262" y="452" on="1"/>
        <pt x="262" y="807" on="1"/>
        <pt x="337" y="807" on="1"/>
      </contour>
      <contour>
        <pt x="337" y="-102" on="1"/>
        <pt x="262" y="-102" on="1"/>
        <pt x="262" y="253" on="1"/>
        <pt x="337" y="253" on="1"/>
      </contour>
    </TTGlyph>
    <TTGlyph name="bullet" xMin="178" yMin="220" xMax="422" yMax="463">
      <contour>
        <pt x="248" y="220" on="0"/>
        <pt x="178" y="290" on="0"/>
        <pt x="178" y="342" on="1"/>
        <pt x="178" y="394" on="0"/>
        <pt x="247" y="463" on="0"/>
        <pt x="300" y="463" on="1"/>
        <pt x="353" y="463" on="0"/>
        <pt x="422" y="394" on="0"/>
        <pt x="422" y="341" on="1"/>
        <pt x="422" y="289" on="0"/>
        <pt x="353" y="220" on="0"/>
        <pt x="300" y="220" on="1"/>
      </contour>
    </TTGlyph>
    <TTGlyph name="c" xMin="91" yMin="-11" xMax="516" yMax="538">
      <contour>
        <pt x="408" y="61" on="0"/>
        <pt x="476" y="107" on="1"/>
        <pt x="516" y="52" on="1"/>
        <pt x="483" y="23" on="0"/>
        <pt x="385" y="-11" on="0"/>
        <pt x="339" y="-11" on="1"/>
        <pt x="222" y="-11" on="0"/>
        <pt x="91" y="136" on="0"/>
        <pt x="91" y="261" on="1"/>
        <pt x="91" y="340" on="0"/>
        <pt x="150" y="466" on="0"/>
        <pt x="262" y="538" on="0"/>
        <pt x="339" y="538" on="1"/>
        <pt x="441" y="538" on="0"/>
        <pt x="515" y="476" on="1"/>
        <pt x="474" y="421" on="1"/>
        <pt x="405" y="467" on="0"/>
        <pt x="338" y="467" on="1"/>
        <pt x="267" y="467" on="0"/>
        <pt x="182" y="362" on="0"/>
        <pt x="182" y="261" on="1"/>
        <pt x="182" y="160" on="0"/>
        <pt x="267" y="61" on="0"/>
        <pt x="339" y="61" on="1"/>
      </contour>
    </TTGlyph>
    <TTGlyph name="cacute" xMin="91" yMin="-11" xMax="516" yMax="788">
      <component glyphName="c" x="0" y="0" flags="0x1000"/>
      <component glyphName="acute" x="44" y="-9" flags="0x1004"/>
    </TTGlyph>
    <TTGlyph name="cacute.loclPLK" xMin="91" yMin="-11" xMax="516" yMax="762">
      <component glyphName="c" x="0" y="0" flags="0x1000"/>
      <component glyphName="acute.loclPLK" x="79" y="-9" flags="0x1004"/>
    </TTGlyph>
    <TTGlyph name="caron" xMin="137" yMin="629" xMax="463" yMax="789">
      <contour>
        <pt x="463" y="748" on="1"/>
        <pt x="329" y="629" on="1"/>
        <pt x="272" y="629" on="1"/>
        <pt x="137" y="748" on="1"/>
        <pt x="177" y="789" on="1"/>
        <pt x="301" y="699" on="1"/>
        <pt x="425" y="789" on="1"/>
      </contour>
    </TTGlyph>
    <TTGlyph name="caron.alt" xMin="254" yMin="510" xMax="355" yMax="698">
      <contour>
        <pt x="355" y="688" on="1"/>
        <pt x="302" y="510" on="1"/>
        <pt x="254" y="517" on="1"/>
        <pt x="279" y="698" on="1"/>
      </contour>
    </TTGlyph>
    <TTGlyph name="caron.case" xMin="137" yMin="754" xMax="463" yMax="905">
      <contour>
        <pt x="463" y="862" on="1"/>
        <pt x="329" y="754" on="1"/>
        <pt x="272" y="754" on="1"/>
        <pt x="137" y="862" on="1"/>
        <pt x="175" y="905" on="1"/>
        <pt x="300" y="824" on="1"/>
        <pt x="426" y="905" on="1"/>
      </contour>
    </TTGlyph>
    <TTGlyph name="ccaron" xMin="91" yMin="-11" xMax="516" yMax="780">
      <component glyphName="c" x="0" y="0" flags="0x1000"/>
      <component glyphName="caron" x="44" y="-9" flags="0x1004"/>
    </TTGlyph>
    <TTGlyph name="ccedilla" xMin="91" yMin="-238" xMax="516" yMax="538">
      <contour>
        <pt x="405" y="-61" on="0"/>
        <pt x="452" y="-108" on="0"/>
        <pt x="452" y="-140" on="1"/>
        <pt x="452" y="-187" on="0"/>
        <pt x="381" y="-238" on="0"/>
        <pt x="330" y="-238" on="1"/>
        <pt x="300" y="-238" on="0"/>
        <pt x="245" y="-225" on="0"/>
        <pt x="225" y="-214" on="1"/>
        <pt x="252" y="-166" on="1"/>
        <pt x="282" y="-182" on="0"/>
        <pt x="319" y="-182" on="1"/>
        <pt x="379" y="-182" on="0"/>
        <pt x="379" y="-141" on="1"/>
        <pt x="379" y="-115" on="0"/>
        <pt x="337" y="-97" on="0"/>
        <pt x="293" y="-97" on="1"/>
        <pt x="299" y="-9" on="1"/>
        <pt x="200" y="4" on="0"/>
        <pt x="91" y="147" on="0"/>
        <pt x="91" y="261" on="1"/>
        <pt x="91" y="340" on="0"/>
        <pt x="150" y="466" on="0"/>
        <pt x="262" y="538" on="0"/>
        <pt x="339" y="538" on="1"/>
        <pt x="441" y="538" on="0"/>
        <pt x="515" y="476" on="1"/>
        <pt x="474" y="421" on="1"/>
        <pt x="405" y="467" on="0"/>
        <pt x="338" y="467" on="1"/>
        <pt x="267" y="467" on="0"/>
        <pt x="182" y="362" on="0"/>
        <pt x="182" y="261" on="1"/>
        <pt x="182" y="160" on="0"/>
        <pt x="267" y="61" on="0"/>
        <pt x="339" y="61" on="1"/>
        <pt x="408" y="61" on="0"/>
        <pt x="476" y="107" on="1"/>
        <pt x="516" y="52" on="1"/>
        <pt x="486" y="26" on="0"/>
        <pt x="402" y="-7" on="0"/>
        <pt x="359" y="-10" on="1"/>
        <pt x="359" y="-57" on="1"/>
      </contour>
    </TTGlyph>
    <TTGlyph name="ccircumflex" xMin="91" yMin="-11" xMax="516" yMax="780">
      <component glyphName="c" x="0" y="0" flags="0x1000"/>
      <component glyphName="circumflex" x="44" y="-9" flags="0x1004"/>
    </TTGlyph>
    <TTGlyph name="cdotaccent" xMin="91" yMin="-11" xMax="516" yMax="764">
      <component glyphName="c" x="0" y="0" flags="0x1000"/>
      <component glyphName="dotaccent" x="44" y="-9" flags="0x1004"/>
    </TTGlyph>
    <TTGlyph name="cedilla" xMin="186" yMin="-238" xMax="413" yMax="16">
      <contour>
        <pt x="340" y="-115" on="0"/>
        <pt x="298" y="-97" on="0"/>
        <pt x="254" y="-97" on="1"/>
        <pt x="262" y="16" on="1"/>
        <pt x="320" y="16" on="1"/>
        <pt x="320" y="-57" on="1"/>
        <pt x="366" y="-61" on="0"/>
        <pt x="413" y="-108" on="0"/>
        <pt x="413" y="-140" on="1"/>
        <pt x="413" y="-187" on="0"/>
        <pt x="342" y="-238" on="0"/>
        <pt x="291" y="-238" on="1"/>
        <pt x="261" y="-238" on="0"/>
        <pt x="206" y="-225" on="0"/>
        <pt x="186" y="-214" on="1"/>
        <pt x="213" y="-166" on="1"/>
        <pt x="243" y="-182" on="0"/>
        <pt x="280" y="-182" on="1"/>
        <pt x="340" y="-182" on="0"/>
        <pt x="340" y="-141" on="1"/>
      </contour>
    </TTGlyph>
    <TTGlyph name="cedilla.case" xMin="186" yMin="-238" xMax="413" yMax="16">
      <contour>
        <pt x="340" y="-115" on="0"/>
        <pt x="298" y="-97" on="0"/>
        <pt x="254" y="-97" on="1"/>
        <pt x="262" y="16" on="1"/>
        <pt x="320" y="16" on="1"/>
        <pt x="320" y="-57" on="1"/>
        <pt x="366" y="-61" on="0"/>
        <pt x="413" y="-108" on="0"/>
        <pt x="413" y="-140" on="1"/>
        <pt x="413" y="-187" on="0"/>
        <pt x="342" y="-238" on="0"/>
        <pt x="291" y="-238" on="1"/>
        <pt x="261" y="-238" on="0"/>
        <pt x="206" y="-225" on="0"/>
        <pt x="186" y="-214" on="1"/>
        <pt x="213" y="-166" on="1"/>
        <pt x="243" y="-182" on="0"/>
        <pt x="280" y="-182" on="1"/>
        <pt x="340" y="-182" on="0"/>
        <pt x="340" y="-141" on="1"/>
      </contour>
    </TTGlyph>
    <TTGlyph name="cent" xMin="106" yMin="-153" xMax="494" yMax="683">
      <contour>
        <pt x="373" y="533" on="1"/>
        <pt x="441" y="525" on="0"/>
        <pt x="494" y="482" on="1"/>
        <pt x="452" y="426" on="1"/>
        <pt x="420" y="449" on="0"/>
        <pt x="367" y="467" on="0"/>
        <pt x="336" y="467" on="1"/>
        <pt x="269" y="467" on="0"/>
        <pt x="197" y="363" on="0"/>
        <pt x="197" y="261" on="1"/>
        <pt x="197" y="159" on="0"/>
        <pt x="269" y="61" on="0"/>
        <pt x="336" y="61" on="1"/>
        <pt x="367" y="61" on="0"/>
        <pt x="422" y="81" on="0"/>
        <pt x="453" y="106" on="1"/>
        <pt x="494" y="46" on="1"/>
        <pt x="442" y="2" on="0"/>
        <pt x="373" y="-6" on="1"/>
        <pt x="373" y="-153" on="1"/>
        <pt x="298" y="-153" on="1"/>
        <pt x="298" y="-6" on="1"/>
        <pt x="204" y="6" on="0"/>
        <pt x="106" y="146" on="0"/>
        <pt x="106" y="261" on="1"/>
        <pt x="106" y="372" on="0"/>
        <pt x="205" y="519" on="0"/>
        <pt x="299" y="532" on="1"/>
        <pt x="299" y="683" on="1"/>
        <pt x="373" y="683" on="1"/>
      </contour>
    </TTGlyph>
    <TTGlyph name="cent.tosf" xMin="106" yMin="-153" xMax="494" yMax="683">
      <component glyphName="cent" x="0" y="0" flags="0x1000"/>
    </TTGlyph>
    <TTGlyph name="chi" xMin="54" yMin="-210" xMax="553" yMax="537">
      <contour>
        <pt x="553" y="-203" on="1"/>
        <pt x="465" y="-210" on="1"/>
        <pt x="307" y="123" on="1"/>
        <pt x="145" y="-208" on="1"/>
        <pt x="59" y="-202" on="1"/>
        <pt x="256" y="183" on="1"/>
        <pt x="214" y="277" on="0"/>
        <pt x="151" y="391" on="0"/>
        <pt x="95" y="464" on="0"/>
        <pt x="54" y="506" on="1"/>
        <pt x="136" y="537" on="1"/>
        <pt x="185" y="487" on="0"/>
        <pt x="263" y="354" on="0"/>
        <pt x="307" y="239" on="1"/>
        <pt x="445" y="534" on="1"/>
        <pt x="534" y="529" on="1"/>
        <pt x="357" y="188" on="1"/>
      </contour>
    </TTGlyph>
    <TTGlyph name="circle" xMin="30" yMin="0" xMax="570" yMax="540">
      <contour>
        <pt x="373" y="540" on="0"/>
        <pt x="497" y="467" on="0"/>
        <pt x="570" y="343" on="0"/>
        <pt x="570" y="270" on="1"/>
        <pt x="570" y="196" on="0"/>
        <pt x="497" y="72" on="0"/>
        <pt x="373" y="0" on="0"/>
        <pt x="300" y="0" on="1"/>
        <pt x="226" y="0" on="0"/>
        <pt x="102" y="72" on="0"/>
        <pt x="30" y="196" on="0"/>
        <pt x="30" y="270" on="1"/>
        <pt x="30" y="343" on="0"/>
        <pt x="102" y="467" on="0"/>
        <pt x="226" y="540" on="0"/>
        <pt x="300" y="540" on="1"/>
      </contour>
      <contour>
        <pt x="248" y="460" on="0"/>
        <pt x="161" y="409" on="0"/>
        <pt x="110" y="321" on="0"/>
        <pt x="110" y="270" on="1"/>
        <pt x="110" y="218" on="0"/>
        <pt x="161" y="131" on="0"/>
        <pt x="248" y="80" on="0"/>
        <pt x="300" y="80" on="1"/>
        <pt x="351" y="80" on="0"/>
        <pt x="439" y="131" on="0"/>
        <pt x="490" y="218" on="0"/>
        <pt x="490" y="270" on="1"/>
        <pt x="490" y="321" on="0"/>
        <pt x="438" y="408" on="0"/>
        <pt x="351" y="460" on="0"/>
        <pt x="300" y="460" on="1"/>
      </contour>
    </TTGlyph>
    <TTGlyph name="circumflex" xMin="137" yMin="629" xMax="463" yMax="789">
      <contour>
        <pt x="137" y="670" on="1"/>
        <pt x="272" y="789" on="1"/>
        <pt x="329" y="789" on="1"/>
        <pt x="463" y="670" on="1"/>
        <pt x="425" y="629" on="1"/>
        <pt x="301" y="720" on="1"/>
        <pt x="177" y="629" on="1"/>
      </contour>
    </TTGlyph>
    <TTGlyph name="circumflex.case" xMin="137" yMin="760" xMax="463" yMax="910">
      <contour>
        <pt x="463" y="803" on="1"/>
        <pt x="426" y="760" on="1"/>
        <pt x="300" y="841" on="1"/>
        <pt x="175" y="760" on="1"/>
        <pt x="137" y="803" on="1"/>
        <pt x="272" y="910" on="1"/>
        <pt x="329" y="910" on="1"/>
      </contour>
    </TTGlyph>
    <TTGlyph name="club" xMin="70" yMin="0" xMax="530" yMax="539">
      <contour>
        <pt x="356" y="539" on="0"/>
        <pt x="420" y="491" on="0"/>
        <pt x="420" y="444" on="1"/>
        <pt x="420" y="408" on="0"/>
        <pt x="392" y="363" on="0"/>
        <pt x="366" y="342" on="1"/>
        <pt x="386" y="351" on="0"/>
        <pt x="411" y="356" on="0"/>
        <pt x="433" y="356" on="1"/>
        <pt x="480" y="356" on="0"/>
        <pt x="530" y="295" on="0"/>
        <pt x="530" y="239" on="1"/>
        <pt x="530" y="193" on="0"/>
        <pt x="471" y="134" on="0"/>
        <pt x="426" y="134" on="1"/>
        <pt x="390" y="134" on="0"/>
        <pt x="338" y="166" on="0"/>
        <pt x="318" y="200" on="1"/>
        <pt x="334" y="65" on="1"/>
        <pt x="490" y="65" on="1"/>
        <pt x="530" y="0" on="1"/>
        <pt x="70" y="0" on="1"/>
        <pt x="110" y="65" on="1"/>
        <pt x="266" y="65" on="1"/>
        <pt x="282" y="200" on="1"/>
        <pt x="261" y="166" on="0"/>
        <pt x="209" y="134" on="0"/>
        <pt x="174" y="134" on="1"/>
        <pt x="129" y="134" on="0"/>
        <pt x="70" y="193" on="0"/>
        <pt x="70" y="239" on="1"/>
        <pt x="70" y="295" on="0"/>
        <pt x="120" y="356" on="0"/>
        <pt x="167" y="356" on="1"/>
        <pt x="189" y="356" on="0"/>
        <pt x="214" y="351" on="0"/>
        <pt x="234" y="342" on="1"/>
        <pt x="208" y="363" on="0"/>
        <pt x="180" y="408" on="0"/>
        <pt x="180" y="444" on="1"/>
        <pt x="180" y="491" on="0"/>
        <pt x="244" y="539" on="0"/>
        <pt x="300" y="539" on="1"/>
      </contour>
    </TTGlyph>
    <TTGlyph name="colon" xMin="219" yMin="-11" xMax="380" yMax="511">
      <contour>
        <pt x="219" y="464" on="0"/>
        <pt x="265" y="511" on="0"/>
        <pt x="299" y="511" on="1"/>
        <pt x="334" y="511" on="0"/>
        <pt x="380" y="464" on="0"/>
        <pt x="380" y="431" on="1"/>
        <pt x="380" y="397" on="0"/>
        <pt x="334" y="349" on="0"/>
        <pt x="299" y="349" on="1"/>
        <pt x="265" y="349" on="0"/>
        <pt x="219" y="397" on="0"/>
        <pt x="219" y="431" on="1"/>
      </contour>
      <contour>
        <pt x="219" y="103" on="0"/>
        <pt x="265" y="151" on="0"/>
        <pt x="299" y="151" on="1"/>
        <pt x="334" y="151" on="0"/>
        <pt x="380" y="104" on="0"/>
        <pt x="380" y="70" on="1"/>
        <pt x="380" y="35" on="0"/>
        <pt x="334" y="-11" on="0"/>
        <pt x="299" y="-11" on="1"/>
        <pt x="265" y="-11" on="0"/>
        <pt x="219" y="35" on="0"/>
        <pt x="219" y="70" on="1"/>
      </contour>
    </TTGlyph>
    <TTGlyph name="colon.uc" xMin="219" yMin="69" xMax="380" yMax="591">
      <contour>
        <pt x="219" y="544" on="0"/>
        <pt x="265" y="591" on="0"/>
        <pt x="299" y="591" on="1"/>
        <pt x="334" y="591" on="0"/>
        <pt x="380" y="544" on="0"/>
        <pt x="380" y="511" on="1"/>
        <pt x="380" y="477" on="0"/>
        <pt x="334" y="429" on="0"/>
        <pt x="299" y="429" on="1"/>
        <pt x="265" y="429" on="0"/>
        <pt x="219" y="477" on="0"/>
        <pt x="219" y="511" on="1"/>
      </contour>
      <contour>
        <pt x="219" y="183" on="0"/>
        <pt x="265" y="231" on="0"/>
        <pt x="299" y="231" on="1"/>
        <pt x="334" y="231" on="0"/>
        <pt x="380" y="184" on="0"/>
        <pt x="380" y="150" on="1"/>
        <pt x="380" y="115" on="0"/>
        <pt x="334" y="69" on="0"/>
        <pt x="299" y="69" on="1"/>
        <pt x="265" y="69" on="0"/>
        <pt x="219" y="115" on="0"/>
        <pt x="219" y="150" on="1"/>
      </contour>
    </TTGlyph>
    <TTGlyph name="colon_colon.liga" xMin="-281" yMin="-11" xMax="280" yMax="511">
      <component glyphName="colon" x="-100" y="0" flags="0x1000"/>
      <component glyphName="colon" x="-500" y="0" flags="0x1000"/>
    </TTGlyph>
    <TTGlyph name="colon_colon_colon.liga" xMin="-861" yMin="-11" xMax="260" yMax="511">
      <component glyphName="colon" x="-1080" y="0" flags="0x1000"/>
      <component glyphName="colon" x="-600" y="0" flags="0x1000"/>
      <component glyphName="colon" x="-120" y="0" flags="0x1000"/>
    </TTGlyph>
    <TTGlyph name="colon_equal.liga" xMin="-384" yMin="107" xMax="494" yMax="514">
      <contour>
        <pt x="-384" y="468" on="0"/>
        <pt x="-338" y="514" on="0"/>
        <pt x="-304" y="514" on="1"/>
        <pt x="-269" y="514" on="0"/>
        <pt x="-222" y="468" on="0"/>
        <pt x="-222" y="434" on="1"/>
        <pt x="-222" y="400" on="0"/>
        <pt x="-269" y="352" on="0"/>
        <pt x="-304" y="352" on="1"/>
        <pt x="-338" y="352" on="0"/>
        <pt x="-384" y="400" on="0"/>
        <pt x="-384" y="434" on="1"/>
      </contour>
      <contour>
        <pt x="494" y="370" on="1"/>
        <pt x="-59" y="370" on="1"/>
        <pt x="-59" y="442" on="1"/>
        <pt x="494" y="442" on="1"/>
      </contour>
      <contour>
        <pt x="-384" y="221" on="0"/>
        <pt x="-337" y="269" on="0"/>
        <pt x="-304" y="269" on="1"/>
        <pt x="-269" y="269" on="0"/>
        <pt x="-222" y="221" on="0"/>
        <pt x="-222" y="188" on="1"/>
        <pt x="-222" y="153" on="0"/>
        <pt x="-269" y="107" on="0"/>
        <pt x="-304" y="107" on="1"/>
        <pt x="-338" y="107" on="0"/>
        <pt x="-384" y="154" on="0"/>
        <pt x="-384" y="188" on="1"/>
      </contour>
      <contour>
        <pt x="494" y="180" on="1"/>
        <pt x="-59" y="180" on="1"/>
        <pt x="-59" y="252" on="1"/>
        <pt x="494" y="252" on="1"/>
      </contour>
    </TTGlyph>
    <TTGlyph name="comma" xMin="205" yMin="-179" xMax="381" yMax="165">
      <contour>
        <pt x="334" y="165" on="0"/>
        <pt x="381" y="118" on="0"/>
        <pt x="381" y="85" on="1"/>
        <pt x="381" y="48" on="0"/>
        <pt x="362" y="6" on="1"/>
        <pt x="281" y="-179" on="1"/>
        <pt x="205" y="-179" on="1"/>
        <pt x="252" y="18" on="1"/>
        <pt x="238" y="29" on="0"/>
        <pt x="220" y="65" on="0"/>
        <pt x="220" y="84" on="1"/>
        <pt x="220" y="118" on="0"/>
        <pt x="266" y="165" on="0"/>
        <pt x="300" y="165" on="1"/>
      </contour>
    </TTGlyph>
    <TTGlyph name="copyright" xMin="29" yMin="125" xMax="571" yMax="747">
      <contour>
        <pt x="385" y="747" on="0"/>
        <pt x="507" y="664" on="0"/>
        <pt x="571" y="522" on="0"/>
        <pt x="571" y="435" on="1"/>
        <pt x="571" y="348" on="0"/>
        <pt x="507" y="207" on="0"/>
        <pt x="385" y="125" on="0"/>
        <pt x="301" y="125" on="1"/>
        <pt x="217" y="125" on="0"/>
        <pt x="94" y="207" on="0"/>
        <pt x="29" y="349" on="0"/>
        <pt x="29" y="435" on="1"/>
        <pt x="29" y="522" on="0"/>
        <pt x="94" y="664" on="0"/>
        <pt x="217" y="747" on="0"/>
        <pt x="301" y="747" on="1"/>
      </contour>
      <contour>
        <pt x="231" y="697" on="0"/>
        <pt x="134" y="628" on="0"/>
        <pt x="85" y="509" on="0"/>
        <pt x="85" y="435" on="1"/>
        <pt x="85" y="361" on="0"/>
        <pt x="134" y="244" on="0"/>
        <pt x="231" y="176" on="0"/>
        <pt x="301" y="176" on="1"/>
        <pt x="371" y="176" on="0"/>
        <pt x="468" y="244" on="0"/>
        <pt x="516" y="361" on="0"/>
        <pt x="516" y="435" on="1"/>
        <pt x="516" y="509" on="0"/>
        <pt x="468" y="628" on="0"/>
        <pt x="371" y="697" on="0"/>
        <pt x="301" y="697" on="1"/>
      </contour>
      <contour>
        <pt x="342" y="625" on="0"/>
        <pt x="394" y="607" on="0"/>
        <pt x="422" y="586" on="1"/>
        <pt x="386" y="539" on="1"/>
        <pt x="347" y="569" on="0"/>
        <pt x="308" y="569" on="1"/>
        <pt x="266" y="569" on="0"/>
        <pt x="214" y="504" on="0"/>
        <pt x="214" y="436" on="1"/>
        <pt x="214" y="372" on="0"/>
        <pt x="264" y="307" on="0"/>
        <pt x="308" y="307" on="1"/>
        <pt x="356" y="307" on="0"/>
        <pt x="394" y="342" on="1"/>
        <pt x="427" y="294" on="1"/>
        <pt x="374" y="247" on="0"/>
        <pt x="305" y="247" on="1"/>
        <pt x="232" y="247" on="0"/>
        <pt x="142" y="347" on="0"/>
        <pt x="142" y="436" on="1"/>
        <pt x="142" y="496" on="0"/>
        <pt x="186" y="581" on="0"/>
        <pt x="260" y="625" on="0"/>
        <pt x="304" y="625" on="1"/>
      </contour>
    </TTGlyph>
    <TTGlyph name="currency" xMin="34" yMin="73" xMax="566" yMax="610">
      <contour>
        <pt x="177" y="520" on="1"/>
        <pt x="232" y="553" on="0"/>
        <pt x="301" y="553" on="1"/>
        <pt x="374" y="553" on="0"/>
        <pt x="422" y="520" on="1"/>
        <pt x="511" y="609" on="1"/>
        <pt x="566" y="555" on="1"/>
        <pt x="479" y="467" on="1"/>
        <pt x="515" y="413" on="0"/>
        <pt x="515" y="342" on="1"/>
        <pt x="515" y="274" on="0"/>
        <pt x="478" y="215" on="1"/>
        <pt x="566" y="128" on="1"/>
        <pt x="511" y="74" on="1"/>
        <pt x="421" y="162" on="1"/>
        <pt x="371" y="130" on="0"/>
        <pt x="301" y="130" on="1"/>
        <pt x="230" y="130" on="0"/>
        <pt x="178" y="162" on="1"/>
        <pt x="89" y="73" on="1"/>
        <pt x="34" y="127" on="1"/>
        <pt x="123" y="216" on="1"/>
        <pt x="88" y="272" on="0"/>
        <pt x="88" y="342" on="1"/>
        <pt x="88" y="412" on="0"/>
        <pt x="122" y="465" on="1"/>
        <pt x="34" y="556" on="1"/>
        <pt x="89" y="610" on="1"/>
      </contour>
      <contour>
        <pt x="239" y="486" on="0"/>
        <pt x="173" y="410" on="0"/>
        <pt x="173" y="342" on="1"/>
        <pt x="173" y="274" on="0"/>
        <pt x="239" y="199" on="0"/>
        <pt x="301" y="199" on="1"/>
        <pt x="363" y="199" on="0"/>
        <pt x="428" y="274" on="0"/>
        <pt x="428" y="342" on="1"/>
        <pt x="428" y="410" on="0"/>
        <pt x="363" y="486" on="0"/>
        <pt x="301" y="486" on="1"/>
      </contour>
    </TTGlyph>
    <TTGlyph name="currency.tosf" xMin="34" yMin="73" xMax="566" yMax="610">
      <component glyphName="currency" x="0" y="0" flags="0x1000"/>
    </TTGlyph>
    <TTGlyph name="d" xMin="68" yMin="-11" xMax="500" yMax="749">
      <contour>
        <pt x="500" y="739" on="1"/>
        <pt x="500" y="0" on="1"/>
        <pt x="426" y="0" on="1"/>
        <pt x="418" y="69" on="1"/>
        <pt x="389" y="29" on="0"/>
        <pt x="313" y="-11" on="0"/>
        <pt x="269" y="-11" on="1"/>
        <pt x="169" y="-11" on="0"/>
        <pt x="68" y="135" on="0"/>
        <pt x="68" y="263" on="1"/>
        <pt x="68" y="342" on="0"/>
        <pt x="118" y="467" on="0"/>
        <pt x="211" y="538" on="0"/>
        <pt x="274" y="538" on="1"/>
        <pt x="361" y="538" on="0"/>
        <pt x="416" y="475" on="1"/>
        <pt x="416" y="749" on="1"/>
      </contour>
      <contour>
        <pt x="230" y="470" on="0"/>
        <pt x="159" y="366" on="0"/>
        <pt x="159" y="263" on="1"/>
        <pt x="159" y="161" on="0"/>
        <pt x="224" y="56" on="0"/>
        <pt x="286" y="56" on="1"/>
        <pt x="361" y="56" on="0"/>
        <pt x="416" y="140" on="1"/>
        <pt x="416" y="402" on="1"/>
        <pt x="394" y="435" on="0"/>
        <pt x="332" y="470" on="0"/>
        <pt x="296" y="470" on="1"/>
      </contour>
    </TTGlyph>
    <TTGlyph name="dagger" xMin="90" yMin="0" xMax="510" yMax="677">
      <contour>
        <pt x="340" y="520" on="1"/>
        <pt x="510" y="520" on="1"/>
        <pt x="510" y="449" on="1"/>
        <pt x="340" y="449" on="1"/>
        <pt x="340" y="0" on="1"/>
        <pt x="260" y="0" on="1"/>
        <pt x="260" y="449" on="1"/>
        <pt x="90" y="449" on="1"/>
        <pt x="90" y="520" on="1"/>
        <pt x="260" y="520" on="1"/>
        <pt x="260" y="677" on="1"/>
        <pt x="340" y="677" on="1"/>
      </contour>
    </TTGlyph>
    <TTGlyph name="dagger.tosf" xMin="91" yMin="0" xMax="511" yMax="677">
      <component glyphName="dagger" x="1" y="0" flags="0x1000"/>
    </TTGlyph>
    <TTGlyph name="daggerdbl" xMin="90" yMin="0" xMax="510" yMax="677">
      <contour>
        <pt x="340" y="513" on="1"/>
        <pt x="510" y="513" on="1"/>
        <pt x="510" y="442" on="1"/>
        <pt x="340" y="442" on="1"/>
        <pt x="340" y="232" on="1"/>
        <pt x="510" y="232" on="1"/>
        <pt x="510" y="161" on="1"/>
        <pt x="340" y="161" on="1"/>
        <pt x="340" y="0" on="1"/>
        <pt x="260" y="0" on="1"/>
        <pt x="260" y="161" on="1"/>
        <pt x="90" y="161" on="1"/>
        <pt x="90" y="232" on="1"/>
        <pt x="260" y="232" on="1"/>
        <pt x="260" y="442" on="1"/>
        <pt x="90" y="442" on="1"/>
        <pt x="90" y="513" on="1"/>
        <pt x="260" y="513" on="1"/>
        <pt x="260" y="677" on="1"/>
        <pt x="340" y="677" on="1"/>
      </contour>
    </TTGlyph>
    <TTGlyph name="daggerdbl.tosf" xMin="91" yMin="0" xMax="511" yMax="677">
      <component glyphName="daggerdbl" x="1" y="0" flags="0x1000"/>
    </TTGlyph>
    <TTGlyph name="dcaron" xMin="39" yMin="-11" xMax="613" yMax="749">
      <component glyphName="d" x="-29" y="0" flags="0x1000"/>
      <component glyphName="caron.alt" x="258" y="50" flags="0x1004"/>
    </TTGlyph>
    <TTGlyph name="dcroat" xMin="70" yMin="-11" xMax="581" yMax="749">
      <contour>
        <pt x="581" y="597" on="1"/>
        <pt x="502" y="597" on="1"/>
        <pt x="502" y="0" on="1"/>
        <pt x="428" y="0" on="1"/>
        <pt x="420" y="69" on="1"/>
        <pt x="391" y="29" on="0"/>
        <pt x="315" y="-11" on="0"/>
        <pt x="271" y="-11" on="1"/>
        <pt x="171" y="-11" on="0"/>
        <pt x="70" y="135" on="0"/>
        <pt x="70" y="263" on="1"/>
        <pt x="70" y="342" on="0"/>
        <pt x="120" y="467" on="0"/>
        <pt x="213" y="538" on="0"/>
        <pt x="276" y="538" on="1"/>
        <pt x="363" y="538" on="0"/>
        <pt x="418" y="475" on="1"/>
        <pt x="418" y="597" on="1"/>
        <pt x="247" y="597" on="1"/>
        <pt x="247" y="665" on="1"/>
        <pt x="418" y="665" on="1"/>
        <pt x="418" y="749" on="1"/>
        <pt x="502" y="739" on="1"/>
        <pt x="502" y="665" on="1"/>
        <pt x="581" y="665" on="1"/>
      </contour>
      <contour>
        <pt x="418" y="402" on="1"/>
        <pt x="396" y="435" on="0"/>
        <pt x="334" y="470" on="0"/>
        <pt x="298" y="470" on="1"/>
        <pt x="232" y="470" on="0"/>
        <pt x="161" y="366" on="0"/>
        <pt x="161" y="263" on="1"/>
        <pt x="161" y="161" on="0"/>
        <pt x="226" y="56" on="0"/>
        <pt x="288" y="56" on="1"/>
        <pt x="363" y="56" on="0"/>
        <pt x="418" y="140" on="1"/>
      </contour>
    </TTGlyph>
    <TTGlyph name="degree" xMin="65" yMin="436" xMax="390" yMax="749">
      <contour>
        <pt x="270" y="749" on="0"/>
        <pt x="345" y="712" on="0"/>
        <pt x="390" y="641" on="0"/>
        <pt x="390" y="592" on="1"/>
        <pt x="390" y="544" on="0"/>
        <pt x="345" y="473" on="0"/>
        <pt x="270" y="436" on="0"/>
        <pt x="228" y="436" on="1"/>
        <pt x="185" y="436" on="0"/>
        <pt x="111" y="473" on="0"/>
        <pt x="65" y="545" on="0"/>
        <pt x="65" y="593" on="1"/>
        <pt x="65" y="641" on="0"/>
        <pt x="111" y="712" on="0"/>
        <pt x="186" y="749" on="0"/>
        <pt x="228" y="749" on="1"/>
      </contour>
      <contour>
        <pt x="191" y="689" on="0"/>
        <pt x="139" y="640" on="0"/>
        <pt x="139" y="593" on="1"/>
        <pt x="139" y="546" on="0"/>
        <pt x="191" y="495" on="0"/>
        <pt x="228" y="495" on="1"/>
        <pt x="265" y="495" on="0"/>
        <pt x="317" y="545" on="0"/>
        <pt x="317" y="592" on="1"/>
        <pt x="317" y="639" on="0"/>
        <pt x="265" y="689" on="0"/>
        <pt x="228" y="689" on="1"/>
      </contour>
    </TTGlyph>
    <TTGlyph name="degree.tosf" xMin="65" yMin="436" xMax="390" yMax="749">
      <component glyphName="degree" x="0" y="0" flags="0x1000"/>
    </TTGlyph>
    <TTGlyph name="delta" xMin="68" yMin="-11" xMax="539" yMax="749">
      <contour>
        <pt x="369" y="749" on="0"/>
        <pt x="447" y="719" on="0"/>
        <pt x="483" y="689" on="1"/>
        <pt x="441" y="639" on="1"/>
        <pt x="409" y="664" on="0"/>
        <pt x="349" y="684" on="0"/>
        <pt x="313" y="684" on="1"/>
        <pt x="269" y="684" on="0"/>
        <pt x="218" y="647" on="0"/>
        <pt x="218" y="614" on="1"/>
        <pt x="218" y="591" on="0"/>
        <pt x="241" y="562" on="0"/>
        <pt x="287" y="538" on="0"/>
        <pt x="337" y="517" on="1"/>
        <pt x="408" y="488" on="0"/>
        <pt x="495" y="419" on="0"/>
        <pt x="539" y="318" on="0"/>
        <pt x="539" y="244" on="1"/>
        <pt x="539" y="176" on="0"/>
        <pt x="482" y="59" on="0"/>
        <pt x="375" y="-11" on="0"/>
        <pt x="303" y="-11" on="1"/>
        <pt x="231" y="-11" on="0"/>
        <pt x="125" y="57" on="0"/>
        <pt x="68" y="173" on="0"/>
        <pt x="68" y="243" on="1"/>
        <pt x="68" y="330" on="0"/>
        <pt x="156" y="454" on="0"/>
        <pt x="227" y="482" on="1"/>
        <pt x="175" y="508" on="0"/>
        <pt x="130" y="570" on="0"/>
        <pt x="130" y="611" on="1"/>
        <pt x="130" y="676" on="0"/>
        <pt x="235" y="749" on="0"/>
        <pt x="318" y="749" on="1"/>
      </contour>
      <contour>
        <pt x="220" y="422" on="0"/>
        <pt x="159" y="320" on="0"/>
        <pt x="159" y="242" on="1"/>
        <pt x="159" y="156" on="0"/>
        <pt x="235" y="58" on="0"/>
        <pt x="303" y="58" on="1"/>
        <pt x="372" y="58" on="0"/>
        <pt x="448" y="154" on="0"/>
        <pt x="448" y="243" on="1"/>
        <pt x="448" y="303" on="0"/>
        <pt x="419" y="377" on="0"/>
        <pt x="353" y="428" on="0"/>
        <pt x="291" y="454" on="1"/>
      </contour>
    </TTGlyph>
    <TTGlyph name="diamond" xMin="104" yMin="-12" xMax="496" yMax="539">
      <contour>
        <pt x="496" y="266" on="1"/>
        <pt x="300" y="-12" on="1"/>
        <pt x="104" y="266" on="1"/>
        <pt x="300" y="539" on="1"/>
      </contour>
    </TTGlyph>
    <TTGlyph name="dieresis" xMin="141" yMin="648" xMax="458" yMax="756">
      <contour>
        <pt x="173" y="648" on="0"/>
        <pt x="141" y="679" on="0"/>
        <pt x="141" y="701" on="1"/>
        <pt x="141" y="725" on="0"/>
        <pt x="173" y="756" on="0"/>
        <pt x="196" y="756" on="1"/>
        <pt x="219" y="756" on="0"/>
        <pt x="250" y="725" on="0"/>
        <pt x="250" y="701" on="1"/>
        <pt x="250" y="678" on="0"/>
        <pt x="219" y="648" on="0"/>
        <pt x="196" y="648" on="1"/>
      </contour>
      <contour>
        <pt x="380" y="648" on="0"/>
        <pt x="349" y="678" on="0"/>
        <pt x="349" y="701" on="1"/>
        <pt x="349" y="725" on="0"/>
        <pt x="380" y="756" on="0"/>
        <pt x="403" y="756" on="1"/>
        <pt x="426" y="756" on="0"/>
        <pt x="458" y="725" on="0"/>
        <pt x="458" y="701" on="1"/>
        <pt x="458" y="679" on="0"/>
        <pt x="426" y="648" on="0"/>
        <pt x="403" y="648" on="1"/>
      </contour>
    </TTGlyph>
    <TTGlyph name="dieresis.case" xMin="140" yMin="767" xMax="457" yMax="875">
      <contour>
        <pt x="172" y="767" on="0"/>
        <pt x="140" y="798" on="0"/>
        <pt x="140" y="820" on="1"/>
        <pt x="140" y="844" on="0"/>
        <pt x="172" y="875" on="0"/>
        <pt x="195" y="875" on="1"/>
        <pt x="218" y="875" on="0"/>
        <pt x="249" y="844" on="0"/>
        <pt x="249" y="820" on="1"/>
        <pt x="249" y="797" on="0"/>
        <pt x="218" y="767" on="0"/>
        <pt x="195" y="767" on="1"/>
      </contour>
      <contour>
        <pt x="379" y="767" on="0"/>
        <pt x="348" y="797" on="0"/>
        <pt x="348" y="820" on="1"/>
        <pt x="348" y="844" on="0"/>
        <pt x="379" y="875" on="0"/>
        <pt x="402" y="875" on="1"/>
        <pt x="425" y="875" on="0"/>
        <pt x="457" y="844" on="0"/>
        <pt x="457" y="820" on="1"/>
        <pt x="457" y="798" on="0"/>
        <pt x="425" y="767" on="0"/>
        <pt x="402" y="767" on="1"/>
      </contour>
    </TTGlyph>
    <TTGlyph name="dieresistonos" xMin="143" yMin="627" xMax="456" yMax="914">
      <contour>
        <pt x="387" y="895" on="1"/>
        <pt x="328" y="728" on="1"/>
        <pt x="269" y="737" on="1"/>
        <pt x="298" y="914" on="1"/>
      </contour>
      <contour>
        <pt x="221" y="735" on="0"/>
        <pt x="252" y="704" on="0"/>
        <pt x="252" y="681" on="1"/>
        <pt x="252" y="658" on="0"/>
        <pt x="221" y="627" on="0"/>
        <pt x="198" y="627" on="1"/>
        <pt x="175" y="627" on="0"/>
        <pt x="143" y="658" on="0"/>
        <pt x="143" y="681" on="1"/>
        <pt x="143" y="704" on="0"/>
        <pt x="175" y="735" on="0"/>
        <pt x="198" y="735" on="1"/>
      </contour>
      <contour>
        <pt x="424" y="735" on="0"/>
        <pt x="456" y="704" on="0"/>
        <pt x="456" y="681" on="1"/>
        <pt x="456" y="658" on="0"/>
        <pt x="424" y="627" on="0"/>
        <pt x="401" y="627" on="1"/>
        <pt x="378" y="627" on="0"/>
        <pt x="347" y="658" on="0"/>
        <pt x="347" y="681" on="1"/>
        <pt x="347" y="704" on="0"/>
        <pt x="378" y="735" on="0"/>
        <pt x="401" y="735" on="1"/>
      </contour>
    </TTGlyph>
    <TTGlyph name="divide" xMin="116" yMin="49" xMax="484" yMax="575">
      <contour>
        <pt x="328" y="575" on="0"/>
        <pt x="368" y="536" on="0"/>
        <pt x="368" y="508" on="1"/>
        <pt x="368" y="480" on="0"/>
        <pt x="329" y="442" on="0"/>
        <pt x="300" y="442" on="1"/>
        <pt x="271" y="442" on="0"/>
        <pt x="232" y="480" on="0"/>
        <pt x="232" y="508" on="1"/>
        <pt x="232" y="536" on="0"/>
        <pt x="272" y="575" on="0"/>
        <pt x="300" y="575" on="1"/>
      </contour>
      <contour>
        <pt x="484" y="276" on="1"/>
        <pt x="116" y="276" on="1"/>
        <pt x="116" y="348" on="1"/>
        <pt x="484" y="348" on="1"/>
      </contour>
      <contour>
        <pt x="328" y="183" on="0"/>
        <pt x="368" y="144" on="0"/>
        <pt x="368" y="116" on="1"/>
        <pt x="368" y="88" on="0"/>
        <pt x="328" y="49" on="0"/>
        <pt x="300" y="49" on="1"/>
        <pt x="272" y="49" on="0"/>
        <pt x="232" y="88" on="0"/>
        <pt x="232" y="116" on="1"/>
        <pt x="232" y="144" on="0"/>
        <pt x="272" y="183" on="0"/>
        <pt x="300" y="183" on="1"/>
      </contour>
    </TTGlyph>
    <TTGlyph name="divide.tosf" xMin="116" yMin="49" xMax="484" yMax="575">
      <component glyphName="divide" x="0" y="0" flags="0x1000"/>
    </TTGlyph>
    <TTGlyph name="dkshade" xMin="0" yMin="-500" xMax="600" yMax="1000">
      <contour>
        <pt x="600" y="925" on="1"/>
        <pt x="550" y="925" on="1"/>
        <pt x="550" y="850" on="1"/>
        <pt x="600" y="850" on="1"/>
        <pt x="600" y="775" on="1"/>
        <pt x="550" y="775" on="1"/>
        <pt x="550" y="700" on="1"/>
        <pt x="600" y="700" on="1"/>
        <pt x="600" y="625" on="1"/>
        <pt x="550" y="625" on="1"/>
        <pt x="550" y="550" on="1"/>
        <pt x="600" y="550" on="1"/>
        <pt x="600" y="475" on="1"/>
        <pt x="550" y="475" on="1"/>
        <pt x="550" y="400" on="1"/>
        <pt x="600" y="400" on="1"/>
        <pt x="600" y="325" on="1"/>
        <pt x="550" y="325" on="1"/>
        <pt x="550" y="250" on="1"/>
        <pt x="600" y="250" on="1"/>
        <pt x="600" y="175" on="1"/>
        <pt x="550" y="175" on="1"/>
        <pt x="550" y="100" on="1"/>
        <pt x="600" y="100" on="1"/>
        <pt x="600" y="25" on="1"/>
        <pt x="550" y="25" on="1"/>
        <pt x="550" y="-50" on="1"/>
        <pt x="600" y="-50" on="1"/>
        <pt x="600" y="-125" on="1"/>
        <pt x="550" y="-125" on="1"/>
        <pt x="550" y="-200" on="1"/>
        <pt x="600" y="-200" on="1"/>
        <pt x="600" y="-275" on="1"/>
        <pt x="550" y="-275" on="1"/>
        <pt x="550" y="-350" on="1"/>
        <pt x="600" y="-350" on="1"/>
        <pt x="600" y="-425" on="1"/>
        <pt x="550" y="-425" on="1"/>
        <pt x="550" y="-500" on="1"/>
        <pt x="500" y="-500" on="1"/>
        <pt x="500" y="-425" on="1"/>
        <pt x="450" y="-425" on="1"/>
        <pt x="450" y="-500" on="1"/>
        <pt x="400" y="-500" on="1"/>
        <pt x="400" y="-425" on="1"/>
        <pt x="350" y="-425" on="1"/>
        <pt x="350" y="-500" on="1"/>
        <pt x="300" y="-500" on="1"/>
        <pt x="300" y="-425" on="1"/>
        <pt x="250" y="-425" on="1"/>
        <pt x="250" y="-500" on="1"/>
        <pt x="200" y="-500" on="1"/>
        <pt x="200" y="-425" on="1"/>
        <pt x="150" y="-425" on="1"/>
        <pt x="150" y="-500" on="1"/>
        <pt x="100" y="-500" on="1"/>
        <pt x="100" y="-425" on="1"/>
        <pt x="50" y="-425" on="1"/>
        <pt x="50" y="-500" on="1"/>
        <pt x="0" y="-500" on="1"/>
        <pt x="0" y="1000" on="1"/>
        <pt x="600" y="1000" on="1"/>
      </contour>
      <contour>
        <pt x="50" y="925" on="1"/>
        <pt x="50" y="850" on="1"/>
        <pt x="100" y="850" on="1"/>
        <pt x="100" y="925" on="1"/>
      </contour>
      <contour>
        <pt x="150" y="925" on="1"/>
        <pt x="150" y="850" on="1"/>
        <pt x="200" y="850" on="1"/>
        <pt x="200" y="925" on="1"/>
      </contour>
      <contour>
        <pt x="250" y="925" on="1"/>
        <pt x="250" y="850" on="1"/>
        <pt x="300" y="850" on="1"/>
        <pt x="300" y="925" on="1"/>
      </contour>
      <contour>
        <pt x="350" y="925" on="1"/>
        <pt x="350" y="850" on="1"/>
        <pt x="400" y="850" on="1"/>
        <pt x="400" y="925" on="1"/>
      </contour>
      <contour>
        <pt x="450" y="925" on="1"/>
        <pt x="450" y="850" on="1"/>
        <pt x="500" y="850" on="1"/>
        <pt x="500" y="925" on="1"/>
      </contour>
      <contour>
        <pt x="50" y="775" on="1"/>
        <pt x="50" y="700" on="1"/>
        <pt x="100" y="700" on="1"/>
        <pt x="100" y="775" on="1"/>
      </contour>
      <contour>
        <pt x="150" y="775" on="1"/>
        <pt x="150" y="700" on="1"/>
        <pt x="200" y="700" on="1"/>
        <pt x="200" y="775" on="1"/>
      </contour>
      <contour>
        <pt x="250" y="775" on="1"/>
        <pt x="250" y="700" on="1"/>
        <pt x="300" y="700" on="1"/>
        <pt x="300" y="775" on="1"/>
      </contour>
      <contour>
        <pt x="350" y="775" on="1"/>
        <pt x="350" y="700" on="1"/>
        <pt x="400" y="700" on="1"/>
        <pt x="400" y="775" on="1"/>
      </contour>
      <contour>
        <pt x="450" y="775" on="1"/>
        <pt x="450" y="700" on="1"/>
        <pt x="500" y="700" on="1"/>
        <pt x="500" y="775" on="1"/>
      </contour>
      <contour>
        <pt x="50" y="625" on="1"/>
        <pt x="50" y="550" on="1"/>
        <pt x="100" y="550" on="1"/>
        <pt x="100" y="625" on="1"/>
      </contour>
      <contour>
        <pt x="150" y="625" on="1"/>
        <pt x="150" y="550" on="1"/>
        <pt x="200" y="550" on="1"/>
        <pt x="200" y="625" on="1"/>
      </contour>
      <contour>
        <pt x="250" y="625" on="1"/>
        <pt x="250" y="550" on="1"/>
        <pt x="300" y="550" on="1"/>
        <pt x="300" y="625" on="1"/>
      </contour>
      <contour>
        <pt x="350" y="625" on="1"/>
        <pt x="350" y="550" on="1"/>
        <pt x="400" y="550" on="1"/>
        <pt x="400" y="625" on="1"/>
      </contour>
      <contour>
        <pt x="450" y="625" on="1"/>
        <pt x="450" y="550" on="1"/>
        <pt x="500" y="550" on="1"/>
        <pt x="500" y="625" on="1"/>
      </contour>
      <contour>
        <pt x="50" y="475" on="1"/>
        <pt x="50" y="400" on="1"/>
        <pt x="100" y="400" on="1"/>
        <pt x="100" y="475" on="1"/>
      </contour>
      <contour>
        <pt x="150" y="475" on="1"/>
        <pt x="150" y="400" on="1"/>
        <pt x="200" y="400" on="1"/>
        <pt x="200" y="475" on="1"/>
      </contour>
      <contour>
        <pt x="250" y="475" on="1"/>
        <pt x="250" y="400" on="1"/>
        <pt x="300" y="400" on="1"/>
        <pt x="300" y="475" on="1"/>
      </contour>
      <contour>
        <pt x="350" y="475" on="1"/>
        <pt x="350" y="400" on="1"/>
        <pt x="400" y="400" on="1"/>
        <pt x="400" y="475" on="1"/>
      </contour>
      <contour>
        <pt x="450" y="475" on="1"/>
        <pt x="450" y="400" on="1"/>
        <pt x="500" y="400" on="1"/>
        <pt x="500" y="475" on="1"/>
      </contour>
      <contour>
        <pt x="50" y="325" on="1"/>
        <pt x="50" y="250" on="1"/>
        <pt x="100" y="250" on="1"/>
        <pt x="100" y="325" on="1"/>
      </contour>
      <contour>
        <pt x="150" y="325" on="1"/>
        <pt x="150" y="250" on="1"/>
        <pt x="200" y="250" on="1"/>
        <pt x="200" y="325" on="1"/>
      </contour>
      <contour>
        <pt x="250" y="325" on="1"/>
        <pt x="250" y="250" on="1"/>
        <pt x="300" y="250" on="1"/>
        <pt x="300" y="325" on="1"/>
      </contour>
      <contour>
        <pt x="350" y="325" on="1"/>
        <pt x="350" y="250" on="1"/>
        <pt x="400" y="250" on="1"/>
        <pt x="400" y="325" on="1"/>
      </contour>
      <contour>
        <pt x="450" y="325" on="1"/>
        <pt x="450" y="250" on="1"/>
        <pt x="500" y="250" on="1"/>
        <pt x="500" y="325" on="1"/>
      </contour>
      <contour>
        <pt x="50" y="175" on="1"/>
        <pt x="50" y="100" on="1"/>
        <pt x="100" y="100" on="1"/>
        <pt x="100" y="175" on="1"/>
      </contour>
      <contour>
        <pt x="150" y="175" on="1"/>
        <pt x="150" y="100" on="1"/>
        <pt x="200" y="100" on="1"/>
        <pt x="200" y="175" on="1"/>
      </contour>
      <contour>
        <pt x="250" y="175" on="1"/>
        <pt x="250" y="100" on="1"/>
        <pt x="300" y="100" on="1"/>
        <pt x="300" y="175" on="1"/>
      </contour>
      <contour>
        <pt x="350" y="175" on="1"/>
        <pt x="350" y="100" on="1"/>
        <pt x="400" y="100" on="1"/>
        <pt x="400" y="175" on="1"/>
      </contour>
      <contour>
        <pt x="450" y="175" on="1"/>
        <pt x="450" y="100" on="1"/>
        <pt x="500" y="100" on="1"/>
        <pt x="500" y="175" on="1"/>
      </contour>
      <contour>
        <pt x="50" y="25" on="1"/>
        <pt x="50" y="-50" on="1"/>
        <pt x="100" y="-50" on="1"/>
        <pt x="100" y="25" on="1"/>
      </contour>
      <contour>
        <pt x="150" y="25" on="1"/>
        <pt x="150" y="-50" on="1"/>
        <pt x="200" y="-50" on="1"/>
        <pt x="200" y="25" on="1"/>
      </contour>
      <contour>
        <pt x="250" y="25" on="1"/>
        <pt x="250" y="-50" on="1"/>
        <pt x="300" y="-50" on="1"/>
        <pt x="300" y="25" on="1"/>
      </contour>
      <contour>
        <pt x="350" y="25" on="1"/>
        <pt x="350" y="-50" on="1"/>
        <pt x="400" y="-50" on="1"/>
        <pt x="400" y="25" on="1"/>
      </contour>
      <contour>
        <pt x="450" y="25" on="1"/>
        <pt x="450" y="-50" on="1"/>
        <pt x="500" y="-50" on="1"/>
        <pt x="500" y="25" on="1"/>
      </contour>
      <contour>
        <pt x="50" y="-125" on="1"/>
        <pt x="50" y="-200" on="1"/>
        <pt x="100" y="-200" on="1"/>
        <pt x="100" y="-125" on="1"/>
      </contour>
      <contour>
        <pt x="150" y="-125" on="1"/>
        <pt x="150" y="-200" on="1"/>
        <pt x="200" y="-200" on="1"/>
        <pt x="200" y="-125" on="1"/>
      </contour>
      <contour>
        <pt x="250" y="-125" on="1"/>
        <pt x="250" y="-200" on="1"/>
        <pt x="300" y="-200" on="1"/>
        <pt x="300" y="-125" on="1"/>
      </contour>
      <contour>
        <pt x="350" y="-125" on="1"/>
        <pt x="350" y="-200" on="1"/>
        <pt x="400" y="-200" on="1"/>
        <pt x="400" y="-125" on="1"/>
      </contour>
      <contour>
        <pt x="450" y="-125" on="1"/>
        <pt x="450" y="-200" on="1"/>
        <pt x="500" y="-200" on="1"/>
        <pt x="500" y="-125" on="1"/>
      </contour>
      <contour>
        <pt x="50" y="-275" on="1"/>
        <pt x="50" y="-350" on="1"/>
        <pt x="100" y="-350" on="1"/>
        <pt x="100" y="-275" on="1"/>
      </contour>
      <contour>
        <pt x="150" y="-275" on="1"/>
        <pt x="150" y="-350" on="1"/>
        <pt x="200" y="-350" on="1"/>
        <pt x="200" y="-275" on="1"/>
      </contour>
      <contour>
        <pt x="250" y="-275" on="1"/>
        <pt x="250" y="-350" on="1"/>
        <pt x="300" y="-350" on="1"/>
        <pt x="300" y="-275" on="1"/>
      </contour>
      <contour>
        <pt x="350" y="-275" on="1"/>
        <pt x="350" y="-350" on="1"/>
        <pt x="400" y="-350" on="1"/>
        <pt x="400" y="-275" on="1"/>
      </contour>
      <contour>
        <pt x="450" y="-275" on="1"/>
        <pt x="450" y="-350" on="1"/>
        <pt x="500" y="-350" on="1"/>
        <pt x="500" y="-275" on="1"/>
      </contour>
    </TTGlyph>
    <TTGlyph name="dnblock" xMin="0" yMin="-500" xMax="600" yMax="250">
      <contour>
        <pt x="600" y="-500" on="1"/>
        <pt x="0" y="-500" on="1"/>
        <pt x="0" y="250" on="1"/>
        <pt x="600" y="250" on="1"/>
      </contour>
    </TTGlyph>
    <TTGlyph name="dollar" xMin="69" yMin="-153" xMax="538" yMax="848">
      <contour>
        <pt x="346" y="698" on="1"/>
        <pt x="401" y="692" on="0"/>
        <pt x="495" y="649" on="0"/>
        <pt x="529" y="618" on="1"/>
        <pt x="478" y="565" on="1"/>
        <pt x="419" y="619" on="0"/>
        <pt x="346" y="628" on="1"/>
        <pt x="346" y="401" on="1"/>
        <pt x="434" y="372" on="0"/>
        <pt x="538" y="274" on="0"/>
        <pt x="538" y="189" on="1"/>
        <pt x="538" y="114" on="0"/>
        <pt x="438" y="5" on="0"/>
        <pt x="346" y="-7" on="1"/>
        <pt x="346" y="-153" on="1"/>
        <pt x="278" y="-153" on="1"/>
        <pt x="278" y="-10" on="1"/>
        <pt x="213" y="-7" on="0"/>
        <pt x="107" y="46" on="0"/>
        <pt x="69" y="83" on="1"/>
        <pt x="119" y="139" on="1"/>
        <pt x="190" y="68" on="0"/>
        <pt x="278" y="61" on="1"/>
        <pt x="278" y="337" on="1"/>
        <pt x="188" y="367" on="0"/>
        <pt x="95" y="460" on="0"/>
        <pt x="95" y="528" on="1"/>
        <pt x="95" y="569" on="0"/>
        <pt x="136" y="643" on="0"/>
        <pt x="219" y="692" on="0"/>
        <pt x="278" y="698" on="1"/>
        <pt x="278" y="848" on="1"/>
        <pt x="346" y="848" on="1"/>
      </contour>
      <contour>
        <pt x="235" y="619" on="0"/>
        <pt x="184" y="570" on="0"/>
        <pt x="184" y="529" on="1"/>
        <pt x="184" y="492" on="0"/>
        <pt x="225" y="444" on="0"/>
        <pt x="278" y="423" on="1"/>
        <pt x="278" y="626" on="1"/>
      </contour>
      <contour>
        <pt x="346" y="65" on="1"/>
        <pt x="447" y="85" on="0"/>
        <pt x="447" y="188" on="1"/>
        <pt x="447" y="231" on="0"/>
        <pt x="401" y="291" on="0"/>
        <pt x="346" y="314" on="1"/>
      </contour>
    </TTGlyph>
    <TTGlyph name="dollar.tosf" xMin="69" yMin="-153" xMax="538" yMax="848">
      <component glyphName="dollar" x="0" y="0" flags="0x1000"/>
    </TTGlyph>
    <TTGlyph name="dollar_greater.liga" xMin="-457" yMin="-153" xMax="513" yMax="848">
      <contour>
        <pt x="513" y="356" on="1"/>
        <pt x="513" y="270" on="1"/>
        <pt x="143" y="37" on="1"/>
        <pt x="165" y="145" on="1"/>
        <pt x="441" y="313" on="1"/>
        <pt x="88" y="530" on="1"/>
        <pt x="-60" y="625" on="0"/>
        <pt x="-154" y="636" on="1"/>
        <pt x="-154" y="401" on="1"/>
        <pt x="-63" y="371" on="0"/>
        <pt x="63" y="261" on="0"/>
        <pt x="63" y="177" on="1"/>
        <pt x="63" y="115" on="0"/>
        <pt x="7" y="17" on="0"/>
        <pt x="-92" y="-46" on="0"/>
        <pt x="-154" y="-55" on="1"/>
        <pt x="-154" y="-153" on="1"/>
        <pt x="-222" y="-153" on="1"/>
        <pt x="-222" y="-57" on="1"/>
        <pt x="-288" y="-59" on="0"/>
        <pt x="-383" y="-34" on="0"/>
        <pt x="-457" y="5" on="1"/>
        <pt x="-457" y="94" on="1"/>
        <pt x="-384" y="50" on="0"/>
        <pt x="-292" y="19" on="0"/>
        <pt x="-247" y="19" on="1"/>
        <pt x="-231" y="19" on="0"/>
        <pt x="-222" y="20" on="1"/>
        <pt x="-222" y="337" on="1"/>
        <pt x="-312" y="367" on="0"/>
        <pt x="-405" y="460" on="0"/>
        <pt x="-405" y="528" on="1"/>
        <pt x="-405" y="569" on="0"/>
        <pt x="-364" y="645" on="0"/>
        <pt x="-281" y="697" on="0"/>
        <pt x="-222" y="703" on="1"/>
        <pt x="-222" y="848" on="1"/>
        <pt x="-154" y="848" on="1"/>
        <pt x="-154" y="702" on="1"/>
        <pt x="-94" y="696" on="0"/>
        <pt x="38" y="651" on="0"/>
        <pt x="88" y="619" on="1"/>
      </contour>
      <contour>
        <pt x="-222" y="634" on="1"/>
        <pt x="-264" y="627" on="0"/>
        <pt x="-316" y="571" on="0"/>
        <pt x="-316" y="529" on="1"/>
        <pt x="-316" y="492" on="0"/>
        <pt x="-275" y="444" on="0"/>
        <pt x="-222" y="423" on="1"/>
      </contour>
      <contour>
        <pt x="-28" y="216" on="0"/>
        <pt x="-97" y="290" on="0"/>
        <pt x="-154" y="314" on="1"/>
        <pt x="-154" y="24" on="1"/>
        <pt x="-28" y="51" on="0"/>
        <pt x="-28" y="177" on="1"/>
      </contour>
    </TTGlyph>
    <TTGlyph name="dotaccent" xMin="239" yMin="655" xMax="360" yMax="773">
      <contour>
        <pt x="326" y="773" on="0"/>
        <pt x="360" y="740" on="0"/>
        <pt x="360" y="714" on="1"/>
        <pt x="360" y="688" on="0"/>
        <pt x="326" y="655" on="0"/>
        <pt x="299" y="655" on="1"/>
        <pt x="272" y="655" on="0"/>
        <pt x="239" y="688" on="0"/>
        <pt x="239" y="714" on="1"/>
        <pt x="239" y="740" on="0"/>
        <pt x="272" y="773" on="0"/>
        <pt x="299" y="773" on="1"/>
      </contour>
    </TTGlyph>
    <TTGlyph name="dotaccent.case" xMin="238" yMin="774" xMax="359" yMax="892">
      <contour>
        <pt x="325" y="892" on="0"/>
        <pt x="359" y="859" on="0"/>
        <pt x="359" y="833" on="1"/>
        <pt x="359" y="807" on="0"/>
        <pt x="325" y="774" on="0"/>
        <pt x="298" y="774" on="1"/>
        <pt x="271" y="774" on="0"/>
        <pt x="238" y="807" on="0"/>
        <pt x="238" y="833" on="1"/>
        <pt x="238" y="859" on="0"/>
        <pt x="271" y="892" on="0"/>
        <pt x="298" y="892" on="1"/>
      </contour>
    </TTGlyph>
    <TTGlyph name="dotlessi" xMin="121" yMin="0" xMax="515" yMax="527">
      <contour>
        <pt x="367" y="67" on="1"/>
        <pt x="515" y="67" on="1"/>
        <pt x="515" y="0" on="1"/>
        <pt x="121" y="0" on="1"/>
        <pt x="121" y="67" on="1"/>
        <pt x="283" y="67" on="1"/>
        <pt x="283" y="460" on="1"/>
        <pt x="126" y="460" on="1"/>
        <pt x="126" y="527" on="1"/>
        <pt x="367" y="527" on="1"/>
      </contour>
    </TTGlyph>
    <TTGlyph name="e" xMin="79" yMin="-11" xMax="523" yMax="538">
      <contour>
        <pt x="170" y="147" on="0"/>
        <pt x="255" y="59" on="0"/>
        <pt x="320" y="59" on="1"/>
        <pt x="359" y="59" on="0"/>
        <pt x="424" y="82" on="0"/>
        <pt x="461" y="106" on="1"/>
        <pt x="500" y="50" on="1"/>
        <pt x="463" y="21" on="0"/>
        <pt x="368" y="-11" on="0"/>
        <pt x="320" y="-11" on="1"/>
        <pt x="206" y="-11" on="0"/>
        <pt x="79" y="138" on="0"/>
        <pt x="79" y="263" on="1"/>
        <pt x="79" y="342" on="0"/>
        <pt x="135" y="467" on="0"/>
        <pt x="239" y="538" on="0"/>
        <pt x="308" y="538" on="1"/>
        <pt x="408" y="538" on="0"/>
        <pt x="523" y="399" on="0"/>
        <pt x="523" y="279" on="1"/>
        <pt x="523" y="256" on="0"/>
        <pt x="521" y="234" on="1"/>
        <pt x="167" y="234" on="1"/>
      </contour>
      <contour>
        <pt x="248" y="469" on="0"/>
        <pt x="172" y="382" on="0"/>
        <pt x="167" y="298" on="1"/>
        <pt x="441" y="298" on="1"/>
        <pt x="440" y="381" on="0"/>
        <pt x="370" y="469" on="0"/>
        <pt x="309" y="469" on="1"/>
      </contour>
    </TTGlyph>
    <TTGlyph name="eacute" xMin="79" yMin="-11" xMax="523" yMax="797">
      <component glyphName="e" x="0" y="0" flags="0x1000"/>
      <component glyphName="acute" x="10" y="0" flags="0x1000"/>
    </TTGlyph>
    <TTGlyph name="ebreve" xMin="79" yMin="-11" xMax="523" yMax="779">
      <component glyphName="e" x="0" y="0" flags="0x1000"/>
      <component glyphName="breve" x="10" y="0" flags="0x1000"/>
    </TTGlyph>
    <TTGlyph name="ecaron" xMin="79" yMin="-11" xMax="523" yMax="789">
      <component glyphName="e" x="0" y="0" flags="0x1000"/>
      <component glyphName="caron" x="10" y="0" flags="0x1000"/>
    </TTGlyph>
    <TTGlyph name="ecircumflex" xMin="79" yMin="-11" xMax="523" yMax="789">
      <component glyphName="e" x="0" y="0" flags="0x1000"/>
      <component glyphName="circumflex" x="10" y="0" flags="0x1000"/>
    </TTGlyph>
    <TTGlyph name="edieresis" xMin="79" yMin="-11" xMax="523" yMax="756">
      <component glyphName="e" x="0" y="0" flags="0x1000"/>
      <component glyphName="dieresis" x="10" y="0" flags="0x1000"/>
    </TTGlyph>
    <TTGlyph name="edotaccent" xMin="79" yMin="-11" xMax="523" yMax="773">
      <component glyphName="e" x="0" y="0" flags="0x1000"/>
      <component glyphName="dotaccent" x="10" y="0" flags="0x1000"/>
    </TTGlyph>
    <TTGlyph name="egrave" xMin="79" yMin="-11" xMax="523" yMax="787">
      <component glyphName="e" x="0" y="0" flags="0x1000"/>
      <component glyphName="grave" x="10" y="0" flags="0x1000"/>
    </TTGlyph>
    <TTGlyph name="eight" xMin="65" yMin="-11" xMax="535" yMax="700">
      <contour>
        <pt x="506" y="476" on="0"/>
        <pt x="446" y="402" on="0"/>
        <pt x="387" y="369" on="1"/>
        <pt x="457" y="340" on="0"/>
        <pt x="535" y="246" on="0"/>
        <pt x="535" y="185" on="1"/>
        <pt x="535" y="129" on="0"/>
        <pt x="477" y="39" on="0"/>
        <pt x="369" y="-11" on="0"/>
        <pt x="298" y="-11" on="1"/>
        <pt x="226" y="-11" on="0"/>
        <pt x="120" y="40" on="0"/>
        <pt x="65" y="128" on="0"/>
        <pt x="65" y="183" on="1"/>
        <pt x="65" y="298" on="0"/>
        <pt x="204" y="363" on="1"/>
        <pt x="147" y="390" on="0"/>
        <pt x="94" y="463" on="0"/>
        <pt x="94" y="520" on="1"/>
        <pt x="94" y="579" on="0"/>
        <pt x="156" y="661" on="0"/>
        <pt x="251" y="700" on="0"/>
        <pt x="300" y="700" on="1"/>
        <pt x="353" y="700" on="0"/>
        <pt x="447" y="662" on="0"/>
        <pt x="506" y="583" on="0"/>
        <pt x="506" y="525" on="1"/>
      </contour>
      <contour>
        <pt x="176" y="481" on="0"/>
        <pt x="211" y="436" on="0"/>
        <pt x="269" y="409" on="0"/>
        <pt x="328" y="390" on="1"/>
        <pt x="379" y="420" on="0"/>
        <pt x="424" y="477" on="0"/>
        <pt x="424" y="521" on="1"/>
        <pt x="424" y="573" on="0"/>
        <pt x="359" y="634" on="0"/>
        <pt x="300" y="634" on="1"/>
        <pt x="241" y="634" on="0"/>
        <pt x="176" y="574" on="0"/>
        <pt x="176" y="519" on="1"/>
      </contour>
      <contour>
        <pt x="446" y="227" on="0"/>
        <pt x="402" y="282" on="0"/>
        <pt x="331" y="314" on="0"/>
        <pt x="261" y="339" on="1"/>
        <pt x="154" y="289" on="0"/>
        <pt x="154" y="183" on="1"/>
        <pt x="154" y="124" on="0"/>
        <pt x="228" y="57" on="0"/>
        <pt x="298" y="57" on="1"/>
        <pt x="368" y="57" on="0"/>
        <pt x="446" y="127" on="0"/>
        <pt x="446" y="183" on="1"/>
      </contour>
    </TTGlyph>
    <TTGlyph name="eight.dnom" xMin="142" yMin="-6" xMax="458" yMax="327">
      <contour>
        <pt x="441" y="183" on="0"/>
        <pt x="371" y="176" on="1"/>
        <pt x="415" y="163" on="0"/>
        <pt x="458" y="124" on="0"/>
        <pt x="458" y="94" on="1"/>
        <pt x="458" y="49" on="0"/>
        <pt x="372" y="-6" on="0"/>
        <pt x="299" y="-6" on="1"/>
        <pt x="225" y="-6" on="0"/>
        <pt x="142" y="48" on="0"/>
        <pt x="142" y="92" on="1"/>
        <pt x="142" y="120" on="0"/>
        <pt x="183" y="159" on="0"/>
        <pt x="222" y="168" on="1"/>
        <pt x="191" y="177" on="0"/>
        <pt x="160" y="211" on="0"/>
        <pt x="160" y="242" on="1"/>
        <pt x="160" y="279" on="0"/>
        <pt x="239" y="327" on="0"/>
        <pt x="300" y="327" on="1"/>
        <pt x="364" y="327" on="0"/>
        <pt x="441" y="279" on="0"/>
        <pt x="441" y="244" on="1"/>
      </contour>
      <contour>
        <pt x="232" y="225" on="0"/>
        <pt x="268" y="206" on="0"/>
        <pt x="315" y="198" on="1"/>
        <pt x="344" y="207" on="0"/>
        <pt x="369" y="225" on="0"/>
        <pt x="369" y="240" on="1"/>
        <pt x="369" y="254" on="0"/>
        <pt x="334" y="273" on="0"/>
        <pt x="300" y="273" on="1"/>
        <pt x="267" y="273" on="0"/>
        <pt x="232" y="255" on="0"/>
        <pt x="232" y="241" on="1"/>
      </contour>
      <contour>
        <pt x="384" y="115" on="0"/>
        <pt x="332" y="135" on="0"/>
        <pt x="276" y="145" on="1"/>
        <pt x="247" y="137" on="0"/>
        <pt x="217" y="110" on="0"/>
        <pt x="217" y="94" on="1"/>
        <pt x="217" y="75" on="0"/>
        <pt x="259" y="53" on="0"/>
        <pt x="299" y="53" on="1"/>
        <pt x="338" y="53" on="0"/>
        <pt x="384" y="77" on="0"/>
        <pt x="384" y="95" on="1"/>
      </contour>
    </TTGlyph>
    <TTGlyph name="eight.numr" xMin="142" yMin="362" xMax="458" yMax="695">
      <component glyphName="eight.dnom" x="0" y="368" flags="0x1004"/>
    </TTGlyph>
    <TTGlyph name="eight.tosf" xMin="65" yMin="-11" xMax="535" yMax="700">
      <contour>
        <pt x="506" y="474" on="0"/>
        <pt x="447" y="400" on="0"/>
        <pt x="387" y="369" on="1"/>
        <pt x="457" y="340" on="0"/>
        <pt x="535" y="246" on="0"/>
        <pt x="535" y="185" on="1"/>
        <pt x="535" y="129" on="0"/>
        <pt x="477" y="39" on="0"/>
        <pt x="369" y="-11" on="0"/>
        <pt x="298" y="-11" on="1"/>
        <pt x="226" y="-11" on="0"/>
        <pt x="120" y="40" on="0"/>
        <pt x="65" y="128" on="0"/>
        <pt x="65" y="183" on="1"/>
        <pt x="65" y="298" on="0"/>
        <pt x="204" y="363" on="1"/>
        <pt x="148" y="391" on="0"/>
        <pt x="94" y="464" on="0"/>
        <pt x="94" y="520" on="1"/>
        <pt x="94" y="579" on="0"/>
        <pt x="156" y="660" on="0"/>
        <pt x="251" y="700" on="0"/>
        <pt x="300" y="700" on="1"/>
        <pt x="352" y="700" on="0"/>
        <pt x="447" y="661" on="0"/>
        <pt x="506" y="582" on="0"/>
        <pt x="506" y="525" on="1"/>
      </contour>
      <contour>
        <pt x="176" y="481" on="0"/>
        <pt x="211" y="436" on="0"/>
        <pt x="269" y="409" on="0"/>
        <pt x="328" y="390" on="1"/>
        <pt x="379" y="420" on="0"/>
        <pt x="424" y="477" on="0"/>
        <pt x="424" y="521" on="1"/>
        <pt x="424" y="573" on="0"/>
        <pt x="359" y="634" on="0"/>
        <pt x="300" y="634" on="1"/>
        <pt x="241" y="634" on="0"/>
        <pt x="176" y="574" on="0"/>
        <pt x="176" y="519" on="1"/>
      </contour>
      <contour>
        <pt x="446" y="227" on="0"/>
        <pt x="402" y="282" on="0"/>
        <pt x="331" y="314" on="0"/>
        <pt x="261" y="339" on="1"/>
        <pt x="154" y="289" on="0"/>
        <pt x="154" y="183" on="1"/>
        <pt x="154" y="124" on="0"/>
        <pt x="228" y="57" on="0"/>
        <pt x="298" y="57" on="1"/>
        <pt x="368" y="57" on="0"/>
        <pt x="446" y="127" on="0"/>
        <pt x="446" y="183" on="1"/>
      </contour>
    </TTGlyph>
</ttFont>
